{"glyphs":{"0":{"ha":795,"x_min":73,"x_max":722,"o":"m 233 156 q 397 64 294 64 q 562 156 501 64 q 624 413 624 248 q 563 673 624 578 q 397 768 502 768 q 233 673 294 768 q 173 412 173 578 q 233 156 173 247 m 633 95 q 589 39 633 95 q 397 -18 544 -18 q 162 96 251 -18 q 73 414 73 209 q 163 734 73 618 q 398 850 252 849 q 633 734 544 850 q 722 414 723 619 q 633 95 723 208 z "},"1":{"ha":469,"x_min":32,"x_max":342,"o":"m 249 0 l 249 708 l 37 604 l 32 604 l 32 699 l 322 848 l 342 848 l 342 0 l 249 0 z "},"2":{"ha":676,"x_min":58,"x_max":616,"o":"m 451 510 q 494 625 494 563 q 447 728 494 688 q 317 768 400 768 q 172 739 235 768 q 78 675 111 711 l 76 677 l 75 760 q 323 851 165 851 q 513 791 438 852 q 587 626 587 730 q 541 483 587 547 q 375 318 494 419 q 232 183 284 245 q 174 83 180 121 l 616 83 l 616 0 l 58 0 q 299 369 54 169 q 451 510 408 457 z "},"3":{"ha":670,"x_min":64,"x_max":600,"o":"m 522 52 q 481 16 522 52 q 302 -19 441 -19 q 64 44 163 -19 l 64 136 l 67 138 q 300 60 159 60 q 451 108 391 60 q 510 239 511 155 q 269 397 510 395 l 201 399 l 201 479 l 269 479 q 419 518 365 481 q 473 624 473 556 q 425 731 473 692 q 296 770 377 770 q 91 708 171 770 l 90 709 l 90 790 q 303 852 184 852 q 494 797 422 852 q 566 642 566 741 q 447 451 566 514 q 600 236 595 403 q 522 52 602 122 z "},"4":{"ha":745,"x_min":25,"x_max":703,"o":"m 469 269 l 469 701 l 153 269 l 469 269 m 703 269 l 703 184 l 555 184 l 555 0 l 469 0 l 469 184 l 25 184 l 25 224 l 482 847 l 555 847 l 555 269 l 703 269 z "},"5":{"ha":679,"x_min":75,"x_max":616,"o":"m 322 520 q 538 451 461 520 q 616 252 616 381 q 532 52 617 123 q 319 -19 446 -19 q 75 37 191 -19 l 75 129 l 77 129 q 304 66 198 66 q 464 115 410 65 q 519 250 518 165 q 465 385 519 334 q 303 435 412 435 q 95 407 195 435 l 92 409 l 121 836 l 580 836 l 580 754 l 202 754 l 186 507 q 322 520 240 520 z "},"6":{"ha":730,"x_min":73,"x_max":667,"o":"m 518 118 q 573 254 573 172 q 524 385 573 335 q 388 435 475 435 q 243 382 301 435 q 176 252 184 330 q 381 64 217 64 q 518 118 463 64 m 407 522 q 596 450 526 522 q 667 260 667 378 q 585 61 667 142 q 367 -20 504 -20 q 152 77 231 -20 q 73 380 73 175 q 177 718 73 586 q 448 850 281 849 q 605 825 543 850 l 605 745 l 602 744 q 450 768 541 768 q 244 663 316 768 q 165 387 172 557 q 262 485 199 448 q 407 522 326 522 z "},"7":{"ha":611,"x_min":31,"x_max":586,"o":"m 31 747 l 31 835 l 586 835 l 586 790 l 259 0 l 160 0 l 476 747 l 31 747 z "},"8":{"ha":741,"x_min":72,"x_max":669,"o":"m 374 64 q 522 107 468 64 q 572 216 574 150 q 522 320 570 283 q 356 397 472 357 q 296 420 351 399 q 169 220 168 341 q 225 104 170 144 q 374 64 281 65 m 547 640 q 502 734 547 701 q 376 766 457 766 q 250 732 294 766 q 206 643 206 699 q 253 551 206 587 q 400 481 300 514 l 432 469 q 547 640 547 541 m 590 47 q 550 14 590 47 q 370 -19 510 -19 q 151 41 231 -19 q 72 210 72 100 q 226 456 71 359 q 107 640 107 525 q 182 793 107 735 q 376 851 256 852 q 568 800 495 851 q 642 649 642 748 q 501 438 642 524 q 628 347 588 397 q 669 218 668 296 q 590 47 670 114 z "},"9":{"ha":727,"x_min":58,"x_max":652,"o":"m 151 580 q 203 442 151 494 q 336 390 256 391 q 473 429 416 390 q 555 532 529 469 q 487 709 542 650 q 348 769 432 769 q 208 718 264 769 q 151 580 151 666 m 142 774 q 183 813 142 774 q 358 852 225 852 q 571 751 491 852 q 652 439 652 650 q 562 107 652 227 q 299 -13 470 -13 q 116 18 191 -13 l 116 102 l 119 104 q 290 68 202 68 q 488 158 424 67 q 558 414 551 249 q 328 306 479 306 q 132 379 205 306 q 58 574 58 452 q 142 774 58 695 z "}," ":{"ha":332,"x_min":0,"x_max":0,"o":""},"!":{"ha":323,"x_min":102,"x_max":220,"o":"m 160 -14 q 117 2 132 -14 q 102 42 102 18 q 117 81 102 66 q 160 97 132 97 q 203 81 187 97 q 220 42 220 65 q 203 3 220 19 q 160 -14 187 -14 m 121 241 l 115 860 l 210 860 l 202 241 l 121 241 z "},"\"":{"ha":411,"x_min":92,"x_max":341,"o":"m 255 553 l 252 835 l 331 835 l 341 825 l 315 553 l 255 553 m 96 553 l 92 835 l 172 835 l 182 825 l 157 553 l 96 553 z "},"#":{"ha":715,"x_min":73,"x_max":643,"o":"m 444 274 l 476 465 l 277 465 l 245 274 l 444 274 m 643 465 l 542 465 l 510 274 l 626 274 l 626 208 l 498 208 l 476 76 l 410 76 l 433 208 l 233 208 l 211 76 l 145 76 l 168 208 l 73 208 l 73 274 l 179 274 l 211 465 l 88 465 l 88 530 l 222 530 l 245 662 l 311 662 l 288 530 l 488 530 l 510 662 l 576 662 l 553 530 l 643 530 l 643 465 z "},"$":{"ha":611,"x_min":67,"x_max":547,"o":"m 547 271 q 496 140 547 190 q 353 78 445 90 l 353 -41 l 264 -41 l 264 76 q 67 125 151 81 l 67 210 l 69 211 q 288 151 163 151 q 461 267 460 151 q 419 345 461 319 q 275 397 377 370 q 126 467 175 425 q 77 589 77 509 q 134 716 77 669 q 286 772 191 763 l 286 892 l 375 892 l 375 772 q 526 741 463 768 l 526 658 l 523 656 q 337 692 444 692 q 174 593 174 692 q 199 528 174 551 q 263 494 223 505 q 345 471 303 483 q 494 397 441 443 q 547 271 547 352 z "},"%":{"ha":949,"x_min":50,"x_max":899,"o":"m 697 60 q 787 95 754 60 q 821 196 821 130 q 787 298 821 262 q 697 334 754 335 q 608 298 640 334 q 576 195 575 260 q 608 95 575 130 q 697 60 640 60 m 844 347 q 871 320 844 347 q 899 196 899 293 q 844 46 899 99 q 698 -6 788 -7 q 552 46 608 -6 q 496 195 496 98 q 552 347 496 293 q 698 401 608 401 q 844 347 788 401 m 163 533 q 179 515 163 533 q 252 498 195 498 q 342 533 309 498 q 375 634 375 568 q 342 736 375 700 q 252 772 309 773 q 163 736 195 772 q 130 633 130 699 q 163 533 130 568 m 151 14 l 715 823 l 797 823 l 233 14 l 151 14 m 252 432 q 106 484 161 432 q 50 633 50 537 q 106 785 50 730 q 253 840 163 840 q 399 785 343 840 q 456 634 456 731 q 399 484 456 537 q 252 432 343 431 z "},"&":{"ha":831,"x_min":63,"x_max":829,"o":"m 551 164 q 296 423 299 418 q 190 345 225 389 q 154 225 155 300 q 205 106 153 151 q 345 62 256 61 q 551 164 471 62 m 829 435 l 725 435 q 653 172 712 280 l 817 0 l 711 0 l 608 105 q 332 -20 504 -20 q 138 41 214 -20 q 63 216 63 102 q 245 477 63 386 q 165 662 165 572 q 230 806 165 751 q 392 861 294 861 q 557 822 490 861 l 557 743 l 554 743 q 410 783 479 783 q 298 749 340 783 q 255 663 255 716 q 287 566 255 610 q 395 439 319 520 l 592 235 q 640 435 631 323 l 526 435 l 526 507 l 829 507 l 829 435 z "},"'":{"ha":254,"x_min":92,"x_max":182,"o":"m 96 553 l 92 835 l 172 835 l 182 825 l 157 553 l 96 553 z "},"(":{"ha":374,"x_min":66,"x_max":341,"o":"m 140 -26 q 103 51 140 -26 q 66 365 66 127 q 140 756 66 602 q 306 951 215 910 l 341 880 q 212 703 269 837 q 155 367 155 568 q 213 28 155 165 q 341 -146 271 -110 l 306 -218 q 140 -26 215 -180 z "},")":{"ha":374,"x_min":33,"x_max":308,"o":"m 233 764 q 271 687 233 764 q 308 372 308 610 q 233 -19 308 135 q 68 -214 159 -173 l 33 -142 q 161 35 104 -100 q 218 370 218 168 q 161 709 218 572 q 33 884 103 846 l 68 956 q 233 764 159 918 z "},"*":{"ha":593,"x_min":76,"x_max":533,"o":"m 334 477 l 326 484 l 299 671 l 306 678 l 318 682 l 326 677 l 399 500 l 395 492 l 334 477 m 167 520 l 123 564 l 123 576 l 273 692 l 281 690 l 292 682 l 292 673 l 176 522 l 167 520 m 507 612 l 331 683 l 328 690 l 331 705 l 337 709 l 528 683 l 533 677 l 517 616 l 507 612 m 271 699 l 82 725 l 76 731 l 91 791 l 104 797 l 278 726 l 281 718 l 278 703 l 271 699 m 336 718 l 327 718 l 318 728 l 437 888 l 447 886 l 488 845 l 453 803 l 336 718 m 292 727 l 284 731 l 211 908 l 215 916 l 274 932 l 284 926 l 309 737 l 306 731 l 292 727 z "},"+":{"ha":625,"x_min":57,"x_max":568,"o":"m 568 407 l 568 332 l 351 332 l 351 98 l 275 98 l 275 332 l 57 332 l 57 407 l 275 407 l 275 640 l 351 640 l 351 407 l 568 407 z "},",":{"ha":246,"x_min":53,"x_max":178,"o":"m 82 16 q 78 82 82 44 l 165 91 l 178 77 q 111 -184 178 -58 l 53 -184 q 82 16 82 -79 z "},"-":{"ha":530,"x_min":92,"x_max":437,"o":"m 92 326 l 92 404 l 437 404 l 437 326 l 92 326 z "},".":{"ha":274,"x_min":72,"x_max":202,"o":"m 184 12 q 176 3 184 12 q 136 -6 167 -6 q 89 12 106 -6 q 72 56 72 29 q 90 100 72 82 q 137 119 107 119 q 184 100 167 119 q 202 56 202 82 q 184 12 202 29 z "},"/":{"ha":568,"x_min":44,"x_max":526,"o":"m 44 -149 l 439 945 l 526 945 l 130 -149 l 44 -149 z "},":":{"ha":298,"x_min":91,"x_max":208,"o":"m 149 -6 q 106 9 121 -6 q 91 49 91 25 q 106 88 91 72 q 149 104 122 104 q 193 88 176 104 q 208 49 208 72 q 193 9 208 26 q 149 -6 177 -7 m 149 501 q 106 517 121 501 q 91 556 91 532 q 106 596 91 580 q 149 612 122 612 q 193 596 176 612 q 208 556 208 579 q 193 517 208 533 q 149 501 177 500 z "},";":{"ha":324,"x_min":92,"x_max":239,"o":"m 121 16 q 117 82 121 44 l 205 91 l 217 77 q 151 -184 217 -58 l 92 -184 q 121 16 121 -79 m 221 520 q 212 511 221 520 q 173 503 203 503 q 125 520 142 503 q 109 564 109 538 q 126 609 109 591 q 174 627 144 627 q 221 609 203 627 q 239 564 239 591 q 221 520 239 538 z "},"<":{"ha":585,"x_min":50,"x_max":504,"o":"m 142 370 l 159 362 l 504 164 l 466 96 l 50 336 l 50 404 l 466 644 l 504 576 l 158 378 l 142 370 z "},"=":{"ha":705,"x_min":95,"x_max":611,"o":"m 95 193 l 95 269 l 611 269 l 611 193 l 95 193 m 95 461 l 95 535 l 611 535 l 611 461 l 95 461 z "},">":{"ha":585,"x_min":81,"x_max":534,"o":"m 119 644 l 534 404 l 534 336 l 119 96 l 81 164 l 427 362 l 443 370 l 425 378 l 81 576 l 119 644 z "},"?":{"ha":541,"x_min":57,"x_max":481,"o":"m 220 -6 q 177 10 192 -6 q 161 50 162 26 q 176 90 161 73 q 220 106 191 106 q 262 90 248 106 q 278 50 278 75 q 263 10 278 26 q 220 -6 248 -6 m 233 787 q 60 724 127 787 l 57 725 l 57 808 q 236 869 123 869 q 415 812 349 869 q 481 665 481 755 q 448 525 481 575 q 343 416 414 475 q 260 239 260 355 l 177 237 q 199 372 177 321 q 281 468 222 425 q 363 548 339 511 q 388 646 388 585 q 347 747 388 708 q 233 787 305 787 z "},"@":{"ha":1016,"x_min":69,"x_max":960,"o":"m 507 151 q 658 264 612 151 l 658 434 q 530 494 606 494 q 410 446 453 494 q 366 319 366 397 q 406 195 366 240 q 507 151 446 151 m 772 92 q 692 120 720 92 q 664 193 664 148 l 664 195 q 491 86 612 86 q 348 146 404 86 q 292 315 292 206 q 355 490 292 423 q 511 555 418 556 q 665 498 605 555 l 671 543 l 731 543 l 731 216 q 781 158 731 157 q 880 369 880 158 q 788 609 880 511 q 530 707 696 707 q 256 598 365 707 q 148 315 148 489 q 255 35 148 140 q 532 -69 362 -69 q 804 25 701 -69 l 808 25 l 844 -25 q 541 -139 728 -139 q 197 -15 326 -140 q 69 314 69 110 q 199 647 69 518 q 529 775 330 776 q 844 656 728 775 q 960 374 960 538 q 913 167 959 241 q 772 92 867 92 z "},"A":{"ha":799,"x_min":16,"x_max":789,"o":"m 233 296 l 562 296 l 407 654 l 394 690 l 381 654 l 233 296 m 690 0 l 595 221 l 202 221 l 110 0 l 16 0 l 378 847 l 416 847 l 789 0 l 690 0 z "},"B":{"ha":734,"x_min":126,"x_max":671,"o":"m 341 72 q 578 233 578 72 q 527 351 578 307 q 385 395 476 395 l 217 395 l 217 72 l 341 72 m 342 766 q 217 763 264 766 l 217 467 l 355 467 q 481 508 434 467 q 528 620 528 548 q 342 766 528 766 m 671 240 q 349 0 671 0 l 126 0 l 126 835 q 332 844 223 844 q 548 786 480 844 q 616 633 616 728 q 505 447 616 498 q 627 370 583 424 q 671 240 671 315 z "},"C":{"ha":803,"x_min":68,"x_max":749,"o":"m 189 102 q 129 159 189 102 q 68 413 68 217 q 190 728 68 608 q 509 848 312 848 q 749 800 640 848 l 749 712 l 745 711 q 520 763 645 762 q 262 668 359 763 q 165 415 165 573 q 259 165 165 258 q 520 72 353 72 q 745 123 642 72 l 749 123 l 749 38 q 507 -15 642 -15 q 189 102 309 -14 z "},"D":{"ha":924,"x_min":126,"x_max":856,"o":"m 665 171 q 711 215 665 171 q 758 420 758 259 q 662 670 758 581 q 385 759 567 759 q 220 753 308 759 l 220 86 q 394 82 278 82 q 665 171 573 83 m 388 845 q 737 732 618 845 q 856 420 856 620 q 733 110 856 221 q 384 -1 610 -1 q 126 3 191 -1 l 126 835 q 388 845 264 845 z "},"E":{"ha":694,"x_min":126,"x_max":633,"o":"m 221 87 l 633 87 l 633 0 l 126 0 l 126 835 l 616 835 l 616 747 l 221 747 l 221 473 l 592 473 l 592 387 l 221 387 l 221 87 z "},"F":{"ha":646,"x_min":126,"x_max":611,"o":"m 611 749 l 221 749 l 221 446 l 553 446 l 553 362 l 221 362 l 221 0 l 126 0 l 126 835 l 611 835 l 611 749 z "},"G":{"ha":880,"x_min":68,"x_max":803,"o":"m 803 403 l 803 60 q 482 -12 671 -12 q 181 102 293 -12 q 68 412 68 216 q 192 729 68 609 q 520 848 315 848 q 768 802 659 848 l 766 709 l 763 708 q 507 762 656 762 q 262 667 357 762 q 167 414 167 571 q 253 165 167 258 q 501 73 340 73 q 718 119 627 73 l 718 322 l 496 322 l 496 403 l 803 403 z "},"H":{"ha":939,"x_min":126,"x_max":813,"o":"m 718 835 l 813 835 l 813 0 l 718 0 l 718 381 l 221 381 l 221 0 l 126 0 l 126 835 l 221 835 l 221 466 l 718 466 l 718 835 z "},"I":{"ha":346,"x_min":126,"x_max":221,"o":"m 126 0 l 126 835 l 221 835 l 221 0 l 126 0 z "},"J":{"ha":449,"x_min":18,"x_max":334,"o":"m 82 -4 q 18 0 53 -4 l 18 81 l 22 82 q 72 78 43 78 q 239 277 239 78 l 239 835 l 334 835 l 334 284 q 82 -4 334 -4 z "},"K":{"ha":777,"x_min":126,"x_max":779,"o":"m 221 0 l 126 0 l 126 835 l 221 835 l 221 453 l 642 835 l 754 835 l 755 831 l 306 425 l 779 4 l 778 0 l 655 0 l 221 384 l 221 0 z "},"L":{"ha":631,"x_min":126,"x_max":616,"o":"m 221 79 l 616 79 l 616 0 l 126 0 l 126 835 l 221 835 l 221 79 z "},"M":{"ha":1083,"x_min":102,"x_max":981,"o":"m 102 0 l 151 835 l 235 835 l 549 262 l 850 835 l 932 835 l 981 0 l 892 0 l 852 665 l 850 665 l 568 132 l 523 132 l 233 665 l 230 665 l 192 0 l 102 0 z "},"N":{"ha":932,"x_min":126,"x_max":807,"o":"m 126 0 l 126 837 l 165 837 l 712 192 l 716 192 l 716 835 l 807 835 l 807 -4 l 769 -4 l 220 644 l 217 644 l 217 0 l 126 0 z "},"O":{"ha":995,"x_min":68,"x_max":927,"o":"m 259 161 q 305 114 259 161 q 498 67 351 67 q 736 161 644 67 q 828 417 828 255 q 736 672 828 578 q 498 766 644 766 q 259 672 351 766 q 167 417 167 578 q 259 161 167 255 m 805 100 q 744 41 805 100 q 499 -18 684 -18 q 192 99 315 -18 q 68 415 68 215 q 190 733 68 616 q 496 851 312 851 q 804 735 681 851 q 927 418 927 618 q 805 100 927 218 z "},"P":{"ha":696,"x_min":126,"x_max":653,"o":"m 323 397 q 498 444 438 397 q 558 577 558 491 q 505 711 558 663 q 343 760 452 760 q 220 756 283 760 l 220 406 q 323 397 275 397 m 334 318 q 220 324 280 318 l 220 0 l 126 0 l 126 835 q 337 842 235 842 q 572 775 492 842 q 653 583 652 709 q 570 388 654 457 q 334 318 486 318 z "},"Q":{"ha":995,"x_min":68,"x_max":927,"o":"m 259 161 q 305 114 259 161 q 498 67 351 67 q 736 161 644 67 q 828 417 828 255 q 736 672 828 578 q 498 766 644 766 q 259 672 351 766 q 167 417 167 578 q 259 161 167 255 m 804 735 q 866 677 804 735 q 927 428 927 618 q 828 124 927 238 q 570 -13 728 10 q 644 -121 595 -83 q 779 -173 693 -158 l 781 -176 l 747 -246 q 576 -170 639 -226 q 481 -18 514 -115 q 186 103 304 -12 q 68 417 68 218 q 190 733 68 616 q 496 851 312 851 q 804 735 681 851 z "},"R":{"ha":733,"x_min":126,"x_max":684,"o":"m 220 404 l 332 404 q 488 450 427 404 q 548 582 548 496 q 498 713 548 667 q 358 760 448 760 q 220 755 268 760 l 220 404 m 220 328 l 220 0 l 126 0 l 126 835 q 340 842 250 842 q 563 780 482 842 q 644 589 644 718 q 595 431 644 493 q 467 345 547 370 l 684 4 l 683 0 l 581 0 l 375 328 l 220 328 z "},"S":{"ha":642,"x_min":69,"x_max":572,"o":"m 498 47 q 461 15 498 47 q 296 -18 425 -18 q 69 41 168 -18 l 69 136 l 73 139 q 296 66 170 66 q 429 104 379 66 q 479 209 479 142 q 435 316 479 275 q 294 402 391 357 q 139 500 196 447 q 82 636 82 553 q 157 800 82 742 q 349 857 233 857 q 552 817 465 857 l 552 727 l 548 726 q 352 775 472 773 q 227 743 275 775 q 178 649 178 711 q 226 553 178 588 q 341 487 274 517 q 440 436 408 456 q 506 385 472 416 q 572 218 572 324 q 498 47 572 111 z "},"T":{"ha":699,"x_min":19,"x_max":680,"o":"m 680 835 l 680 750 l 399 750 l 399 0 l 306 0 l 306 750 l 19 750 l 19 835 l 680 835 z "},"U":{"ha":900,"x_min":115,"x_max":787,"o":"m 699 71 q 654 27 699 71 q 450 -18 610 -18 q 202 70 290 -18 q 115 319 115 158 l 115 835 l 208 835 l 208 332 q 271 133 208 201 q 451 64 334 64 q 631 133 568 64 q 694 332 694 202 l 694 835 l 787 835 l 787 319 q 699 71 787 159 z "},"V":{"ha":787,"x_min":16,"x_max":772,"o":"m 770 835 l 772 831 l 420 -18 l 368 -18 l 16 831 l 18 835 l 116 835 l 388 161 l 397 123 l 409 161 l 677 835 l 770 835 z "},"W":{"ha":1217,"x_min":22,"x_max":1192,"o":"m 1191 835 l 1192 831 l 916 -15 l 846 -15 l 618 650 l 611 681 l 602 650 l 375 -15 l 304 -15 l 22 831 l 23 835 l 123 835 l 334 165 l 343 119 l 355 165 l 577 831 l 645 831 l 870 173 l 882 125 l 891 173 l 1100 835 l 1191 835 z "},"X":{"ha":775,"x_min":22,"x_max":759,"o":"m 450 435 l 759 4 l 758 0 l 648 0 l 382 370 l 123 0 l 23 0 l 22 4 l 323 433 l 38 831 l 39 835 l 151 835 l 391 495 l 626 835 l 730 835 l 731 831 l 450 435 z "},"Y":{"ha":743,"x_min":19,"x_max":724,"o":"m 326 0 l 326 349 l 19 831 l 20 835 l 120 835 l 375 435 l 627 835 l 722 835 l 724 831 l 419 347 l 419 0 l 326 0 z "},"Z":{"ha":734,"x_min":45,"x_max":690,"o":"m 45 0 l 45 33 l 553 756 l 50 756 l 50 835 l 684 835 l 684 802 l 172 78 l 690 78 l 690 0 l 45 0 z "},"[":{"ha":381,"x_min":119,"x_max":338,"o":"m 338 873 l 199 873 l 199 -130 l 338 -130 l 338 -199 l 119 -199 l 119 943 l 338 943 l 338 873 z "},"\\":{"ha":568,"x_min":44,"x_max":526,"o":"m 526 -149 l 439 -149 l 44 945 l 130 945 l 526 -149 z "},"]":{"ha":381,"x_min":43,"x_max":262,"o":"m 43 943 l 262 943 l 262 -199 l 43 -199 l 43 -130 l 180 -130 l 180 873 l 43 873 l 43 943 z "},"^":{"ha":621,"x_min":63,"x_max":561,"o":"m 341 850 l 561 441 l 498 412 l 318 753 l 312 769 l 126 412 l 63 441 l 281 850 l 341 850 z "},"_":{"ha":598,"x_min":47,"x_max":552,"o":"m 47 -77 l 47 -1 l 552 -1 l 552 -77 l 47 -77 z "},"`":{"ha":300,"x_min":22,"x_max":280,"o":"m 246 711 l 24 859 l 22 873 l 87 941 l 280 760 l 246 711 z "},"a":{"ha":712,"x_min":50,"x_max":687,"o":"m 278 64 q 494 184 420 64 l 494 274 q 338 302 428 302 q 198 271 249 302 q 146 181 146 240 q 184 94 146 123 q 278 64 222 64 m 494 391 q 283 586 494 586 q 114 542 179 586 l 111 543 l 111 620 q 312 667 180 667 q 516 597 444 667 q 587 395 587 528 l 587 149 q 639 81 587 81 q 683 96 667 81 l 687 95 l 687 13 q 608 -7 654 -7 q 500 100 504 -7 q 260 -15 412 -15 q 110 35 170 -15 q 50 180 50 85 q 127 326 50 275 q 313 376 203 376 q 494 349 422 376 l 494 391 z "},"b":{"ha":772,"x_min":104,"x_max":707,"o":"m 199 105 q 374 68 270 68 q 544 137 477 68 q 610 330 610 205 q 550 518 610 454 q 397 582 491 582 q 281 549 336 582 q 199 461 226 516 l 199 105 m 199 568 q 409 667 275 667 q 626 582 544 667 q 707 336 707 496 q 612 80 707 176 q 363 -15 517 -15 q 104 44 210 -15 l 104 897 l 199 897 l 199 568 z "},"c":{"ha":631,"x_min":63,"x_max":580,"o":"m 407 -15 q 159 78 254 -15 q 63 326 63 170 q 160 574 63 481 q 407 668 256 668 q 576 639 500 668 l 576 559 l 572 557 q 416 586 498 586 q 231 515 302 586 q 160 328 160 444 q 229 140 160 211 q 416 67 298 68 q 574 109 498 67 l 580 106 l 580 25 q 407 -15 507 -15 z "},"d":{"ha":772,"x_min":63,"x_max":667,"o":"m 375 69 q 571 187 507 69 l 571 526 q 399 583 503 583 q 228 511 295 583 q 161 317 161 439 q 221 132 161 195 q 375 69 280 69 m 571 897 l 667 897 l 667 0 l 589 0 l 578 90 q 353 -15 500 -16 q 144 71 226 -15 q 63 315 63 157 q 157 569 63 472 q 393 667 250 667 q 571 617 498 667 l 571 897 z "},"e":{"ha":721,"x_min":63,"x_max":663,"o":"m 510 533 q 485 559 510 533 q 376 586 460 586 q 236 533 293 586 q 164 385 178 479 l 570 385 q 510 533 561 480 m 152 572 q 197 620 152 572 q 376 667 241 667 q 586 583 510 667 q 663 351 662 500 q 662 307 663 322 l 160 307 q 239 130 166 192 q 419 67 312 67 q 623 119 526 67 l 626 117 l 626 38 q 398 -16 534 -16 q 162 71 262 -16 q 63 318 63 158 q 152 572 63 478 z "},"f":{"ha":419,"x_min":44,"x_max":432,"o":"m 345 901 q 432 888 401 901 l 432 804 l 428 803 q 350 817 401 817 q 264 783 298 817 q 230 677 230 749 l 230 652 l 391 652 l 391 576 l 230 576 l 230 0 l 135 0 l 135 576 l 44 576 l 44 652 l 135 652 l 135 667 q 194 842 135 783 q 345 901 252 901 z "},"g":{"ha":704,"x_min":54,"x_max":662,"o":"m 571 -38 q 513 39 571 18 q 371 63 466 55 q 252 78 277 75 q 142 -44 142 28 q 357 -141 142 -141 q 571 -38 571 -142 m 458 345 q 480 362 458 345 q 503 444 503 380 q 457 543 503 507 q 339 578 412 578 q 222 543 267 578 q 177 444 177 507 q 222 347 177 381 q 340 311 267 312 q 458 345 413 311 m 662 652 l 662 580 l 517 580 q 593 437 593 526 q 522 294 593 349 q 338 239 450 239 q 222 258 273 239 q 199 212 199 240 q 236 171 199 184 q 401 146 273 158 q 595 98 530 135 q 659 -26 659 60 q 346 -216 659 -216 q 135 -178 216 -216 q 54 -52 54 -140 q 172 100 54 37 q 111 185 111 127 q 165 287 111 243 q 85 441 85 344 q 156 595 85 538 q 340 652 227 652 l 662 652 z "},"h":{"ha":774,"x_min":106,"x_max":677,"o":"m 420 667 q 606 594 535 667 q 677 385 677 522 l 677 0 l 582 0 l 582 363 q 530 524 582 473 q 404 574 479 574 q 278 539 330 574 q 202 441 226 504 l 202 0 l 106 0 l 106 897 l 202 897 l 202 561 q 420 667 274 667 z "},"i":{"ha":308,"x_min":88,"x_max":220,"o":"m 106 0 l 106 652 l 202 652 l 202 0 l 106 0 m 200 795 q 190 785 200 795 q 154 775 180 775 q 108 795 127 775 q 88 842 88 814 q 108 888 88 869 q 154 907 127 907 q 200 888 180 907 q 220 842 220 869 q 200 795 220 814 z "},"j":{"ha":329,"x_min":-50,"x_max":241,"o":"m 13 -214 q -50 -207 -11 -214 l -50 -125 l -45 -123 q -5 -127 -26 -127 q 129 35 129 -127 l 129 652 l 224 652 l 224 15 q 13 -214 224 -214 m 222 795 q 212 785 222 795 q 176 775 202 775 q 130 795 149 775 q 110 842 110 814 q 130 888 110 869 q 176 907 149 907 q 222 888 202 907 q 241 842 241 869 q 222 795 241 814 z "},"k":{"ha":664,"x_min":106,"x_max":650,"o":"m 202 0 l 106 0 l 106 897 l 202 897 l 202 363 l 520 652 l 633 652 l 634 648 l 293 340 l 650 4 l 649 0 l 530 0 l 202 306 l 202 0 z "},"l":{"ha":311,"x_min":110,"x_max":205,"o":"m 110 0 l 110 897 l 205 897 l 205 0 l 110 0 z "},"m":{"ha":1184,"x_min":106,"x_max":1087,"o":"m 704 631 q 733 649 704 631 q 855 667 762 667 q 1018 597 949 667 q 1087 395 1087 528 l 1087 0 l 994 0 l 994 370 q 947 525 994 475 q 833 574 901 574 q 643 446 699 574 q 645 395 646 413 l 645 0 l 549 0 l 549 370 q 503 525 549 475 q 389 574 457 574 q 272 538 321 574 q 202 441 222 503 l 202 0 l 106 0 l 106 652 l 184 652 l 195 555 q 277 634 222 602 q 402 667 331 667 q 529 634 474 667 q 615 541 585 602 q 704 631 646 595 z "},"n":{"ha":775,"x_min":106,"x_max":678,"o":"m 420 667 q 606 594 534 667 q 678 379 678 522 l 678 0 l 583 0 l 583 355 q 531 522 583 469 q 404 574 479 574 q 276 538 328 574 q 202 438 224 501 l 202 0 l 106 0 l 106 652 l 184 652 l 196 553 q 420 667 269 667 z "},"o":{"ha":796,"x_min":63,"x_max":734,"o":"m 226 138 q 259 102 226 138 q 397 67 292 67 q 569 138 503 67 q 635 326 635 208 q 569 514 635 444 q 397 583 503 583 q 226 514 292 583 q 160 326 160 444 q 226 138 160 208 m 636 77 q 588 30 636 77 q 396 -16 539 -16 q 158 75 253 -16 q 63 323 63 165 q 160 574 63 481 q 400 667 256 667 q 638 576 543 667 q 734 328 734 486 q 636 77 734 170 z "},"p":{"ha":774,"x_min":106,"x_max":709,"o":"m 202 119 q 379 68 272 68 q 549 138 486 68 q 612 330 612 208 q 555 517 612 452 q 400 582 498 582 q 282 548 337 582 q 202 461 227 514 l 202 119 m 422 667 q 630 579 551 667 q 709 334 709 491 q 619 81 709 177 q 382 -15 529 -15 q 202 31 275 -15 l 202 -207 l 106 -207 l 106 652 l 184 652 l 195 561 q 422 667 269 667 z "},"q":{"ha":772,"x_min":64,"x_max":668,"o":"m 375 69 q 492 101 441 69 q 572 189 544 134 l 572 526 q 400 583 505 583 q 229 511 296 583 q 163 318 163 439 q 221 133 163 197 q 375 69 279 69 m 668 652 l 668 -207 l 572 -207 l 572 81 q 361 -15 498 -15 q 144 72 224 -15 q 64 316 64 159 q 158 570 64 473 q 382 667 252 667 q 583 608 512 667 l 589 652 l 668 652 z "},"r":{"ha":479,"x_min":106,"x_max":456,"o":"m 380 665 q 456 653 421 665 l 456 567 l 452 566 q 380 578 425 578 q 202 403 231 578 l 202 0 l 106 0 l 106 652 l 184 652 l 195 557 q 380 665 248 665 z "},"s":{"ha":602,"x_min":60,"x_max":547,"o":"m 474 34 q 438 9 474 34 q 274 -16 401 -16 q 60 33 146 -16 l 60 125 l 63 126 q 274 66 154 66 q 453 169 453 66 q 415 243 453 218 q 275 295 378 268 q 121 362 173 322 q 69 484 69 403 q 141 616 69 566 q 327 667 214 667 q 513 634 439 667 l 513 549 l 509 548 q 341 585 429 585 q 208 559 254 585 q 163 490 163 533 q 201 423 163 446 q 341 374 239 400 q 495 304 443 349 q 547 173 547 260 q 474 34 547 85 z "},"t":{"ha":492,"x_min":29,"x_max":482,"o":"m 154 188 l 154 572 l 29 572 l 29 652 l 154 652 l 154 812 l 246 829 l 250 827 l 250 652 l 479 652 l 479 572 l 250 572 l 250 205 q 368 78 250 78 q 479 107 429 78 l 482 106 l 482 25 q 340 -6 429 -7 q 203 43 252 -6 q 154 188 154 92 z "},"u":{"ha":758,"x_min":98,"x_max":652,"o":"m 555 652 l 652 652 l 652 0 l 573 0 l 563 88 q 342 -15 494 -16 q 162 51 227 -15 q 98 249 98 117 l 98 652 l 195 652 l 195 265 q 368 67 195 67 q 483 101 431 67 q 555 199 534 135 l 555 652 z "},"v":{"ha":689,"x_min":22,"x_max":668,"o":"m 667 652 l 668 648 l 380 -7 l 312 -7 l 22 648 l 23 652 l 126 652 l 349 115 l 568 652 l 667 652 z "},"w":{"ha":1013,"x_min":28,"x_max":983,"o":"m 982 652 l 983 648 l 766 0 l 696 0 l 516 509 l 509 535 l 503 509 l 318 0 l 246 0 l 28 648 l 29 652 l 125 652 l 281 149 l 287 121 l 293 149 l 471 652 l 549 652 l 725 151 l 731 123 l 736 151 l 895 652 l 982 652 z "},"x":{"ha":665,"x_min":26,"x_max":642,"o":"m 394 334 l 642 4 l 640 0 l 533 0 l 332 270 l 129 0 l 28 0 l 26 4 l 275 332 l 37 648 l 38 652 l 146 652 l 337 394 l 529 652 l 627 652 l 629 648 l 394 334 z "},"y":{"ha":665,"x_min":24,"x_max":644,"o":"m 138 -214 q 64 -205 113 -214 l 64 -125 l 68 -123 q 121 -132 96 -131 q 227 -98 190 -132 q 300 24 264 -65 l 24 648 l 25 652 l 127 652 l 347 132 l 547 652 l 643 652 l 644 648 l 381 3 q 284 -165 334 -117 q 138 -214 233 -214 z "},"z":{"ha":645,"x_min":48,"x_max":601,"o":"m 601 82 l 601 0 l 48 0 l 48 43 l 460 570 l 50 570 l 50 652 l 591 652 l 591 606 l 178 82 l 601 82 z "},"{":{"ha":401,"x_min":48,"x_max":357,"o":"m 239 509 q 197 410 239 447 q 116 374 156 374 l 116 369 q 198 332 157 369 q 239 233 239 296 l 239 -45 q 262 -119 239 -101 q 336 -138 285 -138 l 357 -138 l 357 -210 l 321 -210 q 195 -173 236 -210 q 155 -50 155 -136 l 155 214 q 119 300 155 269 q 48 331 83 331 l 48 414 q 119 445 83 415 q 155 528 155 475 l 155 791 q 196 914 155 878 q 321 951 237 951 l 357 951 l 357 879 l 336 879 q 261 861 284 879 q 239 788 238 842 l 239 509 z "},"|":{"ha":323,"x_min":119,"x_max":205,"o":"m 119 -127 l 119 917 l 205 917 l 205 -127 l 119 -127 z "},"}":{"ha":401,"x_min":44,"x_max":353,"o":"m 245 528 q 281 442 245 473 q 353 410 317 411 l 353 327 q 281 297 317 327 q 245 214 245 267 l 245 -50 q 205 -173 245 -136 q 81 -210 164 -210 l 44 -210 l 44 -138 l 67 -138 q 140 -119 117 -138 q 163 -45 163 -101 l 163 233 q 204 332 163 296 q 286 369 245 369 l 286 374 q 203 410 244 374 q 163 509 163 447 l 163 788 q 140 861 163 842 q 67 879 117 879 l 44 879 l 44 951 l 81 951 q 205 914 164 951 q 245 791 245 878 l 245 528 z "},"~":{"ha":667,"x_min":91,"x_max":577,"o":"m 127 399 q 146 417 127 399 q 217 434 164 434 q 340 408 270 434 q 442 381 411 381 q 514 438 512 381 l 516 441 l 577 428 q 541 340 577 374 q 456 306 505 306 q 335 332 407 306 q 231 359 263 359 q 178 343 198 358 q 157 302 157 328 l 155 299 l 91 308 q 127 399 91 365 z "},"¡":{"ha":301,"x_min":94,"x_max":211,"o":"m 104 -201 l 110 416 l 192 416 l 198 -201 l 104 -201 m 195 577 q 151 562 179 562 q 109 577 123 562 q 94 616 94 591 q 109 656 94 640 q 151 673 123 673 q 195 656 179 673 q 211 616 212 640 q 195 577 211 593 z "},"¢":{"ha":723,"x_min":64,"x_max":649,"o":"m 454 -48 l 365 -48 l 365 72 q 144 181 224 91 q 64 414 64 271 q 146 650 64 556 q 368 763 229 744 l 368 885 l 457 885 l 457 766 q 640 727 551 764 l 640 645 l 635 642 q 441 682 541 682 q 240 609 316 682 q 164 418 164 536 q 237 227 164 299 q 434 154 311 154 q 644 205 557 154 l 649 201 l 649 117 q 454 68 561 71 l 454 -48 z "},"£":{"ha":728,"x_min":50,"x_max":668,"o":"m 668 79 l 668 0 l 95 0 l 91 7 q 179 293 179 122 q 170 384 179 331 l 50 384 l 50 462 l 157 462 q 145 571 145 525 q 229 777 145 705 q 434 848 312 848 q 637 802 556 848 l 637 715 l 635 712 q 448 765 548 765 q 294 716 347 765 q 240 576 240 667 q 252 462 240 528 l 532 462 l 532 384 l 265 384 q 274 293 274 328 q 224 79 274 165 l 668 79 z "},"¤":{"ha":897,"x_min":90,"x_max":813,"o":"m 267 603 q 229 565 267 603 q 192 421 192 528 q 267 239 192 315 q 447 163 341 163 q 627 239 553 163 q 702 421 702 315 q 627 603 702 528 q 447 678 553 678 q 267 603 341 678 m 720 621 q 785 421 785 534 q 716 216 785 308 l 813 119 l 750 57 l 653 153 q 447 83 561 83 q 246 149 333 83 l 153 57 l 90 119 l 182 211 q 109 420 109 304 q 179 627 109 536 l 90 715 l 153 779 l 242 690 q 449 759 332 759 q 656 686 566 759 l 750 779 l 813 715 l 720 621 z "},"¥":{"ha":794,"x_min":41,"x_max":753,"o":"m 667 414 l 667 340 l 444 340 l 444 224 l 667 224 l 667 151 l 444 151 l 444 0 l 352 0 l 352 151 l 134 151 l 134 224 l 352 224 l 352 340 l 134 340 l 134 414 l 313 414 l 41 842 l 145 842 l 400 434 l 654 842 l 753 842 l 484 414 l 667 414 z "},"¦":{"ha":333,"x_min":123,"x_max":211,"o":"m 123 -127 l 123 264 l 211 264 l 211 -127 l 123 -127 m 123 532 l 123 917 l 211 917 l 211 532 l 123 532 z "},"§":{"ha":661,"x_min":64,"x_max":601,"o":"m 475 170 q 517 267 517 212 q 476 357 517 321 q 332 440 435 392 q 193 509 229 488 q 148 410 148 465 q 190 321 148 356 q 333 241 232 286 q 475 170 435 197 m 573 19 q 498 -132 573 -76 q 301 -187 423 -187 q 96 -139 179 -187 l 96 -57 l 100 -56 q 304 -109 188 -109 q 429 -77 381 -109 q 476 15 476 -46 q 452 76 476 49 q 399 117 427 103 q 328 151 370 131 q 275 174 284 170 q 115 270 165 224 q 64 397 64 315 q 149 542 64 479 q 92 668 92 595 q 165 814 92 762 q 358 867 239 867 q 554 825 477 867 l 554 743 l 552 743 q 361 788 477 788 q 236 758 286 788 q 186 671 186 727 q 224 587 186 616 q 319 534 262 559 q 385 507 375 510 q 547 412 494 460 q 601 283 601 363 q 520 136 601 202 q 573 19 573 90 z "},"¨":{"ha":391,"x_min":16,"x_max":385,"o":"m 366 796 q 357 787 366 796 q 321 778 347 778 q 277 796 296 778 q 259 840 259 814 q 277 884 259 866 q 321 903 296 903 q 366 884 347 903 q 385 840 385 865 q 366 796 385 814 m 123 796 q 114 787 123 796 q 79 778 104 778 q 35 796 53 778 q 16 840 16 814 q 35 884 16 866 q 79 903 53 903 q 123 884 104 903 q 142 840 142 866 q 123 796 142 814 z "},"©":{"ha":877,"x_min":66,"x_max":811,"o":"m 567 189 q 444 165 521 165 q 310 216 366 165 q 254 353 254 266 q 311 494 254 439 q 457 547 368 547 q 563 528 515 547 l 563 466 l 559 465 q 460 485 518 485 q 363 450 401 485 q 326 356 326 414 q 363 263 326 298 q 461 229 401 229 q 564 252 521 229 l 567 250 l 567 189 m 440 41 q 663 129 578 41 q 749 358 749 217 q 662 587 749 499 q 439 675 575 675 q 216 587 304 675 q 130 359 130 499 q 217 130 130 218 q 440 41 304 41 m 707 90 q 654 38 707 90 q 439 -15 602 -15 q 172 90 277 -15 q 66 358 66 195 q 172 627 66 521 q 439 731 277 731 q 707 626 602 731 q 811 358 811 521 q 707 90 811 195 z "},"ª":{"ha":595,"x_min":68,"x_max":538,"o":"m 171 512 q 183 502 171 512 q 239 492 196 492 q 328 514 283 492 q 397 572 374 536 l 397 634 q 268 654 342 654 q 145 572 145 654 q 171 512 145 532 m 397 724 q 239 859 397 859 q 109 826 161 859 l 106 828 l 106 890 q 256 924 153 924 q 415 874 360 924 q 470 726 470 823 l 470 553 q 504 501 470 501 q 535 511 524 501 l 538 510 l 538 450 q 475 435 517 436 q 401 509 408 435 q 217 429 332 429 q 111 467 153 429 q 68 575 68 505 q 122 680 68 644 q 261 716 176 716 q 397 694 347 716 l 397 724 z "},"«":{"ha":688,"x_min":45,"x_max":618,"o":"m 618 578 l 618 568 l 418 351 l 618 126 l 618 119 l 520 119 l 311 350 l 522 578 l 618 578 m 353 578 l 353 568 l 153 351 l 353 126 l 353 119 l 255 119 l 45 350 l 256 578 l 353 578 z "},"­":{"ha":530,"x_min":92,"x_max":437,"o":"m 92 326 l 92 404 l 437 404 l 437 326 l 92 326 z "},"®":{"ha":804,"x_min":73,"x_max":730,"o":"m 334 589 l 403 589 q 469 644 469 589 q 397 701 469 700 q 334 699 345 701 l 334 589 m 532 646 q 470 547 532 573 l 549 435 l 479 435 l 408 536 l 334 536 l 334 435 l 274 435 l 274 753 q 397 755 327 755 q 532 646 532 755 m 209 389 q 404 312 284 312 q 596 389 523 312 q 669 588 669 467 q 595 788 669 711 q 402 865 520 865 q 209 787 284 865 q 134 589 134 709 q 209 389 134 468 m 166 825 q 213 871 166 825 q 404 917 259 917 q 639 825 548 917 q 730 589 730 732 q 639 353 730 445 q 404 260 548 260 q 166 353 259 260 q 73 589 73 445 q 166 825 73 732 z "},"¯":{"ha":439,"x_min":31,"x_max":393,"o":"m 31 784 l 31 856 l 393 856 l 393 784 l 31 784 z "},"°":{"ha":447,"x_min":67,"x_max":380,"o":"m 155 621 q 168 607 155 621 q 224 592 182 592 q 294 621 266 592 q 321 692 321 650 q 294 764 321 734 q 224 793 266 793 q 155 764 182 793 q 127 692 127 734 q 155 621 127 650 m 336 582 q 314 560 336 582 q 224 538 292 538 q 111 582 156 538 q 67 692 66 626 q 112 803 67 759 q 224 847 156 847 q 336 803 292 847 q 380 692 380 759 q 336 582 380 626 z "},"±":{"ha":680,"x_min":85,"x_max":596,"o":"m 596 343 l 378 343 l 378 149 l 591 149 l 591 75 l 90 75 l 90 149 l 303 149 l 303 343 l 85 343 l 85 416 l 304 416 l 304 640 l 378 640 l 378 416 l 596 416 l 596 343 z "},"²":{"ha":431,"x_min":44,"x_max":395,"o":"m 293 715 q 269 764 293 743 q 202 784 244 784 q 56 732 115 784 l 54 734 l 54 800 q 201 850 121 850 q 328 818 281 850 q 375 730 375 784 q 346 637 375 675 q 252 553 317 600 q 151 442 157 486 l 395 442 l 395 379 l 44 379 q 179 585 41 483 q 269 659 245 633 q 293 715 293 685 z "},"³":{"ha":420,"x_min":50,"x_max":379,"o":"m 379 515 q 329 408 379 448 q 193 369 278 369 q 50 404 107 369 l 50 467 l 50 469 q 189 431 103 431 q 274 453 241 431 q 307 515 307 476 q 280 575 307 555 q 211 595 254 595 l 139 595 l 139 649 l 203 649 q 263 667 240 649 q 287 718 286 686 q 184 788 287 788 q 64 758 109 788 l 63 758 l 63 822 q 194 851 119 851 q 315 821 269 851 q 361 728 361 791 q 297 627 361 665 q 379 515 379 597 z "},"´":{"ha":300,"x_min":22,"x_max":280,"o":"m 56 711 l 22 760 l 215 941 l 280 873 l 277 859 l 56 711 z "},"¶":{"ha":728,"x_min":43,"x_max":665,"o":"m 665 758 l 665 673 l 585 673 l 585 -140 l 554 -140 l 554 673 l 466 673 l 466 -140 l 376 -140 l 376 277 q 125 334 208 277 q 43 512 43 391 q 362 758 45 758 l 665 758 z "},"·":{"ha":292,"x_min":88,"x_max":205,"o":"m 146 252 q 88 306 88 252 q 103 345 88 330 q 146 361 118 361 q 189 345 174 361 q 205 306 205 330 q 190 267 205 282 q 146 252 175 252 z "},"¸":{"ha":256,"x_min":15,"x_max":248,"o":"m 204 -259 q 182 -275 204 -259 q 106 -290 161 -290 q 15 -278 51 -290 l 15 -221 l 18 -220 q 81 -230 44 -230 q 141 -214 119 -230 q 163 -168 163 -198 q 102 -116 163 -117 q 44 -126 71 -116 l 43 -123 l 43 -77 l 90 0 l 153 0 l 114 -66 q 140 -62 124 -62 q 217 -86 186 -62 q 248 -170 248 -111 q 204 -259 248 -229 z "},"¹":{"ha":289,"x_min":31,"x_max":217,"o":"m 139 379 l 139 743 l 31 699 l 31 781 l 207 848 l 217 848 l 217 379 l 139 379 z "},"º":{"ha":633,"x_min":62,"x_max":572,"o":"m 317 488 q 442 539 394 488 q 490 677 490 591 q 442 816 490 764 q 317 867 394 867 q 193 816 240 867 q 145 678 145 765 q 193 540 145 591 q 317 488 240 488 m 572 680 q 500 488 572 559 q 318 418 428 418 q 135 487 208 418 q 62 676 62 556 q 134 867 62 795 q 315 938 205 938 q 498 869 425 938 q 572 680 572 800 z "},"»":{"ha":688,"x_min":69,"x_max":643,"o":"m 334 117 l 334 127 l 535 345 l 334 570 l 334 577 l 433 577 l 643 346 l 432 117 l 334 117 m 69 117 l 69 127 l 270 345 l 69 570 l 69 577 l 168 577 l 378 346 l 167 117 l 69 117 z "},"¼":{"ha":932,"x_min":31,"x_max":894,"o":"m 743 145 l 743 371 l 571 145 l 743 145 m 894 145 l 894 94 l 816 94 l 816 0 l 743 0 l 743 94 l 486 94 l 486 125 l 753 473 l 816 473 l 816 145 l 894 145 m 650 835 l 728 835 l 186 -15 l 107 -15 l 650 835 m 139 379 l 139 743 l 31 699 l 31 781 l 207 848 l 217 848 l 217 379 l 139 379 z "},"½":{"ha":934,"x_min":48,"x_max":891,"o":"m 699 406 q 552 353 612 406 l 551 355 l 551 422 q 698 472 618 472 q 825 439 778 472 q 871 351 871 406 q 842 259 871 297 q 749 174 813 221 q 648 63 654 107 l 891 63 l 891 0 l 541 0 q 574 103 539 50 q 675 206 608 157 q 765 281 741 255 q 789 336 789 307 q 765 385 789 365 q 699 406 741 406 m 71 -15 l 614 835 l 692 835 l 149 -15 l 71 -15 m 157 379 l 157 743 l 48 699 l 48 781 l 224 848 l 235 848 l 235 379 l 157 379 z "},"¾":{"ha":979,"x_min":50,"x_max":939,"o":"m 788 145 l 788 371 l 616 145 l 788 145 m 939 145 l 939 94 l 861 94 l 861 0 l 788 0 l 788 94 l 532 94 l 532 125 l 798 473 l 861 473 l 861 145 l 939 145 m 725 835 l 803 835 l 260 -15 l 182 -15 l 725 835 m 379 515 q 329 408 379 448 q 193 369 278 369 q 50 404 107 369 l 50 467 l 50 469 q 189 431 103 431 q 274 453 241 431 q 307 515 307 476 q 280 575 307 555 q 211 595 254 595 l 139 595 l 139 649 l 203 649 q 263 667 240 649 q 287 718 286 686 q 184 788 287 788 q 64 758 109 788 l 63 758 l 63 822 q 194 851 119 851 q 315 821 269 851 q 361 728 361 791 q 297 627 361 665 q 379 515 379 597 z "},"¿":{"ha":532,"x_min":54,"x_max":479,"o":"m 172 113 q 148 14 148 76 q 189 -87 148 -47 q 302 -126 229 -126 q 476 -63 408 -126 l 479 -64 l 479 -148 q 299 -208 412 -208 q 121 -151 187 -208 q 54 -4 54 -94 q 87 136 54 85 q 192 243 121 186 q 275 422 275 305 l 359 423 q 336 288 359 339 q 255 193 313 236 q 172 113 197 149 m 315 667 q 358 650 343 667 q 374 610 373 635 q 359 570 374 586 q 316 555 345 555 q 273 570 288 555 q 258 610 258 586 q 273 650 258 633 q 315 667 288 666 z "},"À":{"ha":799,"x_min":16,"x_max":789,"o":"m 233 296 l 562 296 l 407 654 l 394 690 l 381 654 l 233 296 m 690 0 l 595 221 l 202 221 l 110 0 l 16 0 l 378 847 l 416 847 l 789 0 l 690 0 m 503 885 l 250 992 l 243 1006 l 294 1081 l 522 939 l 503 885 z "},"Á":{"ha":799,"x_min":16,"x_max":789,"o":"m 233 296 l 562 296 l 407 654 l 394 690 l 381 654 l 233 296 m 690 0 l 595 221 l 202 221 l 110 0 l 16 0 l 378 847 l 416 847 l 789 0 l 690 0 m 529 992 l 278 885 l 258 938 l 485 1081 l 535 1006 l 529 992 z "},"Â":{"ha":799,"x_min":16,"x_max":789,"o":"m 233 296 l 562 296 l 407 654 l 394 690 l 381 654 l 233 296 m 690 0 l 595 221 l 202 221 l 110 0 l 16 0 l 378 847 l 416 847 l 789 0 l 690 0 m 390 990 l 254 885 l 218 932 l 370 1072 l 414 1072 l 571 932 l 534 885 l 390 990 z "},"Ã":{"ha":799,"x_min":16,"x_max":789,"o":"m 233 296 l 562 296 l 407 654 l 394 690 l 381 654 l 233 296 m 690 0 l 595 221 l 202 221 l 110 0 l 16 0 l 378 847 l 416 847 l 789 0 l 690 0 m 229 1005 q 245 1022 229 1005 q 303 1039 261 1039 q 399 1016 345 1039 q 477 992 454 992 q 516 1007 500 992 q 532 1046 532 1021 l 534 1049 l 599 1029 q 565 944 596 976 q 494 911 533 911 q 398 936 454 911 q 317 960 342 960 q 277 944 292 960 q 261 904 261 929 l 259 903 l 195 920 q 229 1005 197 972 z "},"Ä":{"ha":799,"x_min":16,"x_max":789,"o":"m 233 296 l 562 296 l 407 654 l 394 690 l 381 654 l 233 296 m 690 0 l 595 221 l 202 221 l 110 0 l 16 0 l 378 847 l 416 847 l 789 0 l 690 0 m 566 939 q 557 931 566 939 q 525 923 549 923 q 485 939 501 923 q 469 980 469 956 q 485 1020 469 1004 q 525 1037 501 1037 q 566 1020 549 1037 q 582 980 582 1004 q 566 939 582 956 m 309 939 q 301 931 309 939 q 269 923 293 923 q 229 939 245 923 q 212 980 212 956 q 229 1020 212 1004 q 269 1037 245 1037 q 309 1020 293 1037 q 326 980 326 1004 q 309 939 326 956 z "},"Å":{"ha":799,"x_min":16,"x_max":789,"o":"m 233 296 l 562 296 l 407 654 l 394 690 l 381 654 l 233 296 m 690 0 l 595 221 l 202 221 l 110 0 l 16 0 l 378 847 l 416 847 l 789 0 l 690 0 m 437 1012 q 429 1020 437 1012 q 395 1029 420 1029 q 354 1012 370 1029 q 337 971 337 995 q 354 930 337 947 q 395 913 370 913 q 437 930 420 913 q 453 971 453 947 q 437 1012 453 995 m 478 892 q 462 877 478 892 q 395 861 446 861 q 311 892 344 861 q 279 971 279 923 q 311 1050 279 1019 q 394 1081 343 1081 q 478 1050 446 1081 q 510 971 510 1019 q 478 892 510 923 z "},"Æ":{"ha":1034,"x_min":-28,"x_max":971,"o":"m 517 323 l 517 730 l 458 623 l 271 323 l 517 323 m 612 79 l 971 79 l 971 0 l 517 0 l 517 255 l 229 255 l 69 0 l -28 0 l 492 835 l 955 835 l 955 756 l 612 756 l 612 472 l 930 472 l 930 394 l 612 394 l 612 79 z "},"Ç":{"ha":803,"x_min":68,"x_max":749,"o":"m 520 763 q 262 668 358 763 q 165 415 165 572 q 259 165 165 258 q 520 72 353 72 q 745 123 642 72 l 749 123 l 749 38 q 536 -15 653 -10 l 507 -66 q 533 -62 515 -62 q 609 -86 578 -62 q 640 -170 640 -111 q 597 -259 640 -228 q 498 -290 552 -290 q 408 -278 444 -290 l 408 -221 l 410 -220 q 474 -230 437 -230 q 533 -214 511 -230 q 555 -168 555 -198 q 495 -116 555 -117 q 437 -126 463 -116 l 435 -123 l 435 -77 l 473 -14 q 179 112 289 -2 q 68 417 68 226 q 190 728 68 608 q 509 848 312 848 q 749 800 640 848 l 749 712 l 745 711 q 520 763 645 763 z "},"È":{"ha":694,"x_min":126,"x_max":633,"o":"m 221 87 l 633 87 l 633 0 l 126 0 l 126 835 l 616 835 l 616 747 l 221 747 l 221 473 l 592 473 l 592 387 l 221 387 l 221 87 m 495 885 l 242 992 l 236 1006 l 287 1081 l 514 939 l 495 885 z "},"É":{"ha":694,"x_min":126,"x_max":633,"o":"m 221 87 l 633 87 l 633 0 l 126 0 l 126 835 l 616 835 l 616 747 l 221 747 l 221 473 l 592 473 l 592 387 l 221 387 l 221 87 m 522 992 l 270 885 l 250 938 l 477 1081 l 528 1006 l 522 992 z "},"Ê":{"ha":694,"x_min":126,"x_max":633,"o":"m 221 87 l 633 87 l 633 0 l 126 0 l 126 835 l 616 835 l 616 747 l 221 747 l 221 473 l 592 473 l 592 387 l 221 387 l 221 87 m 382 990 l 246 885 l 211 932 l 362 1072 l 407 1072 l 563 932 l 526 885 l 382 990 z "},"Ë":{"ha":694,"x_min":126,"x_max":633,"o":"m 221 87 l 633 87 l 633 0 l 126 0 l 126 835 l 616 835 l 616 747 l 221 747 l 221 473 l 592 473 l 592 387 l 221 387 l 221 87 m 558 939 q 550 931 558 939 q 518 923 542 923 q 477 939 494 923 q 461 980 461 956 q 477 1020 461 1004 q 518 1037 494 1037 q 558 1020 542 1037 q 574 980 574 1004 q 558 939 574 956 m 302 939 q 294 931 302 939 q 261 923 286 923 q 221 939 237 923 q 205 980 205 956 q 221 1020 205 1004 q 261 1037 237 1037 q 302 1020 286 1037 q 318 980 318 1004 q 302 939 318 956 z "},"Ì":{"ha":346,"x_min":23,"x_max":300,"o":"m 126 0 l 126 835 l 221 835 l 221 0 l 126 0 m 281 885 l 29 992 l 23 1006 l 73 1081 l 300 939 l 281 885 z "},"Í":{"ha":346,"x_min":37,"x_max":315,"o":"m 126 0 l 126 835 l 221 835 l 221 0 l 126 0 m 57 885 l 37 938 l 264 1081 l 315 1006 l 308 992 l 57 885 z "},"Î":{"ha":346,"x_min":-3,"x_max":350,"o":"m 126 0 l 126 835 l 221 835 l 221 0 l 126 0 m 33 885 l -3 932 l 149 1072 l 193 1072 l 350 932 l 313 885 l 169 990 l 33 885 z "},"Ï":{"ha":346,"x_min":-9,"x_max":361,"o":"m 126 0 l 126 835 l 221 835 l 221 0 l 126 0 m 345 939 q 336 931 345 939 q 304 923 328 923 q 264 939 280 923 q 248 980 248 956 q 264 1020 248 1004 q 304 1037 280 1037 q 345 1020 328 1037 q 361 980 361 1004 q 345 939 361 956 m 89 939 q 80 931 89 939 q 48 923 72 923 q 7 939 24 923 q -9 980 -9 956 q 7 1020 -9 1004 q 48 1037 24 1037 q 89 1020 72 1037 q 105 980 105 1004 q 89 939 105 956 z "},"Ð":{"ha":934,"x_min":23,"x_max":866,"o":"m 675 171 q 722 215 675 171 q 768 420 768 259 q 672 670 768 581 q 395 759 577 759 q 230 753 318 759 l 230 448 l 366 448 l 366 379 l 230 379 l 230 86 q 404 82 290 82 q 675 171 583 83 m 397 845 q 747 732 627 845 q 866 420 866 620 q 743 110 866 221 q 394 -1 620 -1 q 136 3 201 -1 l 136 379 l 23 379 l 23 448 l 136 448 l 136 835 q 397 845 274 845 z "},"Ñ":{"ha":932,"x_min":126,"x_max":807,"o":"m 126 0 l 126 837 l 165 837 l 712 192 l 716 192 l 716 835 l 807 835 l 807 -4 l 769 -4 l 220 644 l 217 644 l 217 0 l 126 0 m 305 1005 q 321 1022 305 1005 q 379 1039 337 1039 q 475 1016 420 1039 q 553 992 530 992 q 592 1007 576 992 q 608 1046 608 1021 l 610 1049 l 674 1029 q 640 944 671 976 q 569 911 608 911 q 474 936 530 911 q 393 960 418 960 q 353 944 368 960 q 337 904 337 929 l 334 903 l 270 920 q 305 1005 273 972 z "},"Ò":{"ha":995,"x_min":68,"x_max":927,"o":"m 259 161 q 305 114 259 161 q 498 67 351 67 q 736 161 644 67 q 828 417 828 255 q 736 672 828 578 q 498 766 644 766 q 259 672 351 766 q 167 417 167 578 q 259 161 167 255 m 805 100 q 744 41 805 100 q 499 -18 684 -18 q 192 99 315 -18 q 68 415 68 215 q 190 733 68 616 q 496 851 312 851 q 804 735 681 851 q 927 418 927 618 q 805 100 927 218 m 605 885 l 352 992 l 346 1006 l 397 1081 l 624 939 l 605 885 z "},"Ó":{"ha":995,"x_min":68,"x_max":927,"o":"m 259 161 q 305 114 259 161 q 498 67 351 67 q 736 161 644 67 q 828 417 828 255 q 736 672 828 578 q 498 766 644 766 q 259 672 351 766 q 167 417 167 578 q 259 161 167 255 m 805 100 q 744 41 805 100 q 499 -18 684 -18 q 192 99 315 -18 q 68 415 68 215 q 190 733 68 616 q 496 851 312 851 q 804 735 681 851 q 927 418 927 618 q 805 100 927 218 m 380 885 l 360 938 l 587 1081 l 637 1006 l 631 992 l 380 885 z "},"Ô":{"ha":995,"x_min":68,"x_max":927,"o":"m 259 161 q 305 114 259 161 q 498 67 351 67 q 736 161 644 67 q 828 417 828 255 q 736 672 828 578 q 498 766 644 766 q 259 672 351 766 q 167 417 167 578 q 259 161 167 255 m 805 100 q 744 41 805 100 q 499 -18 684 -18 q 192 99 315 -18 q 68 415 68 215 q 190 733 68 616 q 496 851 312 851 q 804 735 681 851 q 927 418 927 618 q 805 100 927 218 m 356 885 l 321 932 l 472 1072 l 516 1072 l 673 932 l 636 885 l 492 990 l 356 885 z "},"Õ":{"ha":995,"x_min":68,"x_max":927,"o":"m 259 161 q 305 114 259 161 q 498 67 351 67 q 736 161 644 67 q 828 417 828 255 q 736 672 828 578 q 498 766 644 766 q 259 672 351 766 q 167 417 167 578 q 259 161 167 255 m 805 100 q 744 41 805 100 q 499 -18 684 -18 q 192 99 315 -18 q 68 415 68 215 q 190 733 68 616 q 496 851 312 851 q 804 735 681 851 q 927 418 927 618 q 805 100 927 218 m 332 1005 q 348 1022 332 1005 q 405 1039 363 1039 q 502 1016 447 1039 q 579 992 557 992 q 618 1007 602 992 q 634 1046 634 1021 l 636 1049 l 701 1029 q 666 944 698 976 q 596 911 635 911 q 500 936 557 911 q 419 960 444 960 q 379 944 395 960 q 363 904 363 929 l 361 903 l 297 920 q 332 1005 300 972 z "},"Ö":{"ha":995,"x_min":68,"x_max":927,"o":"m 259 161 q 305 114 259 161 q 498 67 351 67 q 736 161 644 67 q 828 417 828 255 q 736 672 828 578 q 498 766 644 766 q 259 672 351 766 q 167 417 167 578 q 259 161 167 255 m 805 100 q 744 41 805 100 q 499 -18 684 -18 q 192 99 315 -18 q 68 415 68 215 q 190 733 68 616 q 496 851 312 851 q 804 735 681 851 q 927 418 927 618 q 805 100 927 218 m 668 939 q 660 931 668 939 q 628 923 652 923 q 587 939 604 923 q 571 980 571 956 q 587 1020 571 1004 q 628 1037 604 1037 q 668 1020 652 1037 q 684 980 684 1004 q 668 939 684 956 m 412 939 q 404 931 412 939 q 371 923 395 923 q 331 939 347 923 q 315 980 315 956 q 331 1020 315 1004 q 371 1037 347 1037 q 412 1020 395 1037 q 428 980 428 1004 q 412 939 428 956 z "},"×":{"ha":645,"x_min":81,"x_max":564,"o":"m 564 557 l 376 369 l 564 179 l 511 126 l 323 315 l 134 126 l 81 179 l 270 369 l 81 557 l 134 610 l 323 422 l 511 610 l 564 557 z "},"Ø":{"ha":995,"x_min":68,"x_max":927,"o":"m 736 161 q 782 208 736 161 q 828 407 828 255 q 754 652 828 559 l 296 129 q 498 67 379 67 q 736 161 644 67 m 259 672 q 213 625 259 672 q 167 427 167 578 q 240 183 167 276 l 697 706 q 498 766 612 766 q 259 672 351 766 m 927 856 l 927 848 l 816 722 q 927 410 927 602 q 805 100 927 218 q 498 -18 683 -18 q 236 62 347 -18 l 163 -22 l 68 -22 l 68 -12 l 177 113 q 68 424 68 231 q 190 733 68 616 q 498 851 312 851 q 758 774 647 851 l 829 856 l 927 856 z "},"Ù":{"ha":900,"x_min":115,"x_max":787,"o":"m 699 71 q 654 27 699 71 q 450 -18 610 -18 q 202 70 290 -18 q 115 319 115 158 l 115 835 l 208 835 l 208 332 q 271 133 208 201 q 451 64 334 64 q 631 133 568 64 q 694 332 694 202 l 694 835 l 787 835 l 787 319 q 699 71 787 159 m 558 885 l 306 992 l 299 1006 l 350 1081 l 577 939 l 558 885 z "},"Ú":{"ha":900,"x_min":115,"x_max":787,"o":"m 699 71 q 654 27 699 71 q 450 -18 610 -18 q 202 70 290 -18 q 115 319 115 158 l 115 835 l 208 835 l 208 332 q 271 133 208 201 q 451 64 334 64 q 631 133 568 64 q 694 332 694 202 l 694 835 l 787 835 l 787 319 q 699 71 787 159 m 334 885 l 313 938 l 541 1081 l 591 1006 l 585 992 l 334 885 z "},"Û":{"ha":900,"x_min":115,"x_max":787,"o":"m 699 71 q 654 27 699 71 q 450 -18 610 -18 q 202 70 290 -18 q 115 319 115 158 l 115 835 l 208 835 l 208 332 q 271 133 208 201 q 451 64 334 64 q 631 133 568 64 q 694 332 694 202 l 694 835 l 787 835 l 787 319 q 699 71 787 159 m 309 885 l 274 932 l 425 1072 l 470 1072 l 626 932 l 589 885 l 446 990 l 309 885 z "},"Ü":{"ha":900,"x_min":115,"x_max":787,"o":"m 699 71 q 654 27 699 71 q 450 -18 610 -18 q 202 70 290 -18 q 115 319 115 158 l 115 835 l 208 835 l 208 332 q 271 133 208 201 q 451 64 334 64 q 631 133 568 64 q 694 332 694 202 l 694 835 l 787 835 l 787 319 q 699 71 787 159 m 621 939 q 613 931 621 939 q 581 923 605 923 q 541 939 557 923 q 524 980 524 956 q 541 1020 524 1004 q 581 1037 557 1037 q 621 1020 605 1037 q 637 980 637 1004 q 621 939 637 956 m 365 939 q 357 931 365 939 q 325 923 349 923 q 284 939 300 923 q 268 980 268 956 q 284 1020 268 1004 q 325 1037 300 1037 q 365 1020 349 1037 q 381 980 381 1004 q 365 939 381 956 z "},"Ý":{"ha":743,"x_min":19,"x_max":724,"o":"m 326 0 l 326 349 l 19 831 l 20 835 l 120 835 l 375 435 l 627 835 l 722 835 l 724 831 l 419 347 l 419 0 l 326 0 m 255 885 l 235 938 l 462 1081 l 513 1006 l 507 992 l 255 885 z "},"Þ":{"ha":707,"x_min":126,"x_max":645,"o":"m 318 239 q 551 423 551 239 q 496 552 551 505 q 328 600 441 600 q 220 595 270 600 l 220 243 q 318 239 267 239 m 328 160 q 220 164 270 160 l 220 0 l 126 0 l 126 835 l 220 835 l 220 677 q 338 682 280 682 q 563 617 482 682 q 645 428 644 553 q 563 231 646 302 q 328 160 479 160 z "},"ß":{"ha":777,"x_min":106,"x_max":737,"o":"m 708 269 q 723 250 708 269 q 737 155 737 231 q 677 32 737 79 q 524 -16 617 -16 q 365 26 431 -16 l 365 116 l 369 117 q 523 66 436 66 q 612 89 578 66 q 645 156 645 111 q 621 227 645 201 q 541 286 597 254 q 464 334 485 318 q 423 380 442 350 q 404 451 404 410 q 425 528 404 492 q 468 584 445 563 q 532 699 532 642 q 489 787 532 756 q 371 817 447 817 q 249 769 295 817 q 202 624 202 721 l 202 0 l 106 0 l 106 634 q 180 833 106 764 q 369 901 254 901 q 554 853 484 901 q 625 705 625 806 q 606 621 625 659 q 564 563 587 583 q 504 471 503 509 q 528 410 504 433 q 616 347 553 387 q 708 269 680 307 z "},"à":{"ha":712,"x_min":50,"x_max":687,"o":"m 278 64 q 494 184 420 64 l 494 274 q 338 302 428 302 q 198 271 249 302 q 146 181 146 240 q 184 94 146 123 q 278 64 222 64 m 494 391 q 283 586 494 586 q 114 542 179 586 l 111 543 l 111 620 q 312 667 180 667 q 516 597 444 667 q 587 395 587 528 l 587 149 q 639 81 587 81 q 683 96 667 81 l 687 95 l 687 13 q 608 -7 654 -7 q 500 100 504 -7 q 260 -15 412 -15 q 110 35 170 -15 q 50 180 50 85 q 127 326 50 275 q 313 376 203 376 q 494 349 422 376 l 494 391 m 403 711 l 180 859 l 178 873 l 243 941 l 437 760 l 403 711 z "},"á":{"ha":712,"x_min":50,"x_max":687,"o":"m 278 64 q 494 184 420 64 l 494 274 q 338 302 428 302 q 198 271 249 302 q 146 181 146 240 q 184 94 146 123 q 278 64 222 64 m 494 391 q 283 586 494 586 q 114 542 179 586 l 111 543 l 111 620 q 312 667 180 667 q 516 597 444 667 q 587 395 587 528 l 587 149 q 639 81 587 81 q 683 96 667 81 l 687 95 l 687 13 q 608 -7 654 -7 q 500 100 504 -7 q 260 -15 412 -15 q 110 35 170 -15 q 50 180 50 85 q 127 326 50 275 q 313 376 203 376 q 494 349 422 376 l 494 391 m 461 859 l 240 711 l 205 760 l 399 941 l 465 873 l 461 859 z "},"â":{"ha":712,"x_min":50,"x_max":687,"o":"m 278 64 q 494 184 420 64 l 494 274 q 338 302 428 302 q 198 271 249 302 q 146 181 146 240 q 184 94 146 123 q 278 64 222 64 m 494 391 q 283 586 494 586 q 114 542 179 586 l 111 543 l 111 620 q 312 667 180 667 q 516 597 444 667 q 587 395 587 528 l 587 149 q 639 81 587 81 q 683 96 667 81 l 687 95 l 687 13 q 608 -7 654 -7 q 500 100 504 -7 q 260 -15 412 -15 q 110 35 170 -15 q 50 180 50 85 q 127 326 50 275 q 313 376 203 376 q 494 349 422 376 l 494 391 m 322 837 l 196 716 l 154 758 l 302 927 l 346 927 l 498 758 l 456 716 l 322 837 z "},"ã":{"ha":712,"x_min":50,"x_max":687,"o":"m 278 64 q 494 184 420 64 l 494 274 q 338 302 428 302 q 198 271 249 302 q 146 181 146 240 q 184 94 146 123 q 278 64 222 64 m 494 391 q 283 586 494 586 q 114 542 179 586 l 111 543 l 111 620 q 312 667 180 667 q 516 597 444 667 q 587 395 587 528 l 587 149 q 639 81 587 81 q 683 96 667 81 l 687 95 l 687 13 q 608 -7 654 -7 q 500 100 504 -7 q 260 -15 412 -15 q 110 35 170 -15 q 50 180 50 85 q 127 326 50 275 q 313 376 203 376 q 494 349 422 376 l 494 391 m 152 859 q 167 876 152 859 q 225 894 182 894 q 327 869 268 894 q 412 845 387 845 q 452 859 437 845 q 467 898 467 873 l 471 900 l 533 886 q 502 799 533 831 q 428 766 470 766 q 327 791 387 765 q 241 817 267 817 q 201 803 216 817 q 187 763 187 788 l 184 760 l 121 774 q 152 859 121 824 z "},"ä":{"ha":712,"x_min":50,"x_max":687,"o":"m 278 64 q 494 184 420 64 l 494 274 q 338 302 428 302 q 198 271 249 302 q 146 181 146 240 q 184 94 146 123 q 278 64 222 64 m 494 391 q 283 586 494 586 q 114 542 179 586 l 111 543 l 111 620 q 312 667 180 667 q 516 597 444 667 q 587 395 587 528 l 587 149 q 639 81 587 81 q 683 96 667 81 l 687 95 l 687 13 q 608 -7 654 -7 q 500 100 504 -7 q 260 -15 412 -15 q 110 35 170 -15 q 50 180 50 85 q 127 326 50 275 q 313 376 203 376 q 494 349 422 376 l 494 391 m 495 796 q 486 787 495 796 q 450 778 476 778 q 406 796 425 778 q 388 840 388 814 q 406 884 388 866 q 450 903 425 903 q 495 884 476 903 q 514 840 514 865 q 495 796 514 814 m 252 796 q 243 787 252 796 q 208 778 233 778 q 163 796 182 778 q 145 840 145 814 q 163 884 145 866 q 208 903 182 903 q 252 884 233 903 q 271 840 271 866 q 252 796 271 814 z "},"å":{"ha":712,"x_min":50,"x_max":687,"o":"m 278 64 q 494 184 420 64 l 494 274 q 338 302 428 302 q 198 271 249 302 q 146 181 146 240 q 184 94 146 123 q 278 64 222 64 m 494 391 q 283 586 494 586 q 114 542 179 586 l 111 543 l 111 620 q 312 667 180 667 q 516 597 444 667 q 587 395 587 528 l 587 149 q 639 81 587 81 q 683 96 667 81 l 687 95 l 687 13 q 608 -7 654 -7 q 500 100 504 -7 q 260 -15 412 -15 q 110 35 170 -15 q 50 180 50 85 q 127 326 50 275 q 313 376 203 376 q 494 349 422 376 l 494 391 m 370 871 q 361 880 370 871 q 325 889 352 889 q 279 871 298 889 q 261 826 261 852 q 279 781 261 800 q 325 763 298 763 q 370 781 352 763 q 389 826 389 800 q 370 871 389 852 m 410 742 q 394 726 410 742 q 325 709 377 709 q 239 743 273 709 q 205 826 205 777 q 239 908 205 875 q 325 941 273 941 q 410 908 377 941 q 443 826 443 876 q 410 742 443 775 z "},"æ":{"ha":1135,"x_min":50,"x_max":1065,"o":"m 179 94 q 197 80 179 94 q 280 66 215 66 q 407 100 345 66 q 504 197 469 135 q 486 304 490 247 q 168 241 229 304 q 142 168 142 214 q 179 94 142 121 m 917 535 q 892 562 917 535 q 785 589 867 589 q 648 533 703 589 q 581 378 593 477 l 972 378 q 917 535 966 480 m 484 391 q 278 586 484 586 q 107 542 175 586 l 104 544 l 104 620 q 304 667 165 667 q 543 534 484 667 q 646 631 584 596 q 781 667 707 667 q 989 583 913 667 q 1065 349 1065 498 l 1065 304 l 580 304 q 653 130 586 192 q 826 68 720 68 q 1025 125 933 68 l 1029 123 l 1029 39 q 809 -16 934 -16 q 650 20 722 -16 q 535 127 577 56 q 255 -15 430 -15 q 105 32 161 -15 q 50 168 50 79 q 177 337 50 293 q 484 378 288 375 l 484 391 z "},"ç":{"ha":631,"x_min":63,"x_max":580,"o":"m 423 -62 q 499 -86 469 -62 q 530 -170 530 -111 q 487 -259 530 -229 q 388 -290 443 -290 q 298 -278 334 -290 l 298 -221 l 300 -220 q 364 -230 327 -230 q 424 -214 401 -230 q 446 -168 446 -198 q 385 -116 446 -117 q 327 -126 353 -116 l 326 -123 l 326 -77 l 365 -13 q 146 91 229 0 q 63 331 63 182 q 160 574 63 481 q 407 668 256 668 q 576 639 500 668 l 576 559 l 572 557 q 416 586 498 586 q 231 515 302 586 q 160 328 160 444 q 229 140 160 211 q 416 67 298 68 q 574 109 498 67 l 580 106 l 580 25 q 427 -15 511 -12 l 397 -66 q 423 -62 407 -62 z "},"è":{"ha":721,"x_min":63,"x_max":663,"o":"m 510 533 q 485 559 510 533 q 376 586 460 586 q 236 533 293 586 q 164 385 178 479 l 570 385 q 510 533 561 480 m 152 572 q 197 620 152 572 q 376 667 241 667 q 586 583 510 667 q 663 351 662 500 q 662 307 663 322 l 160 307 q 239 130 166 192 q 419 67 312 67 q 623 119 526 67 l 626 117 l 626 38 q 398 -16 534 -16 q 162 71 262 -16 q 63 318 63 158 q 152 572 63 478 m 450 711 l 227 859 l 224 873 l 290 941 l 484 760 l 450 711 z "},"é":{"ha":721,"x_min":63,"x_max":663,"o":"m 510 533 q 485 559 510 533 q 376 586 460 586 q 236 533 293 586 q 164 385 178 479 l 570 385 q 510 533 561 480 m 152 572 q 197 620 152 572 q 376 667 241 667 q 586 583 510 667 q 663 351 662 500 q 662 307 663 322 l 160 307 q 239 130 166 192 q 419 67 312 67 q 623 119 526 67 l 626 117 l 626 38 q 398 -16 534 -16 q 162 71 262 -16 q 63 318 63 158 q 152 572 63 478 m 507 859 l 287 711 l 252 760 l 446 941 l 511 873 l 507 859 z "},"ê":{"ha":721,"x_min":63,"x_max":663,"o":"m 510 533 q 485 559 510 533 q 376 586 460 586 q 236 533 293 586 q 164 385 178 479 l 570 385 q 510 533 561 480 m 152 572 q 197 620 152 572 q 376 667 241 667 q 586 583 510 667 q 663 351 662 500 q 662 307 663 322 l 160 307 q 239 130 166 192 q 419 67 312 67 q 623 119 526 67 l 626 117 l 626 38 q 398 -16 534 -16 q 162 71 262 -16 q 63 318 63 158 q 152 572 63 478 m 369 837 l 242 716 l 201 758 l 349 927 l 393 927 l 544 758 l 503 716 l 369 837 z "},"ë":{"ha":721,"x_min":63,"x_max":663,"o":"m 510 533 q 485 559 510 533 q 376 586 460 586 q 236 533 293 586 q 164 385 178 479 l 570 385 q 510 533 561 480 m 152 572 q 197 620 152 572 q 376 667 241 667 q 586 583 510 667 q 663 351 662 500 q 662 307 663 322 l 160 307 q 239 130 166 192 q 419 67 312 67 q 623 119 526 67 l 626 117 l 626 38 q 398 -16 534 -16 q 162 71 262 -16 q 63 318 63 158 q 152 572 63 478 m 542 796 q 532 787 542 796 q 497 778 523 778 q 453 796 471 778 q 434 840 434 814 q 452 884 434 866 q 497 903 471 903 q 542 884 523 903 q 561 840 561 865 q 542 796 561 814 m 299 796 q 290 787 299 796 q 254 778 280 778 q 210 796 229 778 q 192 840 192 814 q 210 884 192 866 q 254 903 229 903 q 299 884 280 903 q 318 840 318 866 q 299 796 318 814 z "},"ì":{"ha":308,"x_min":7,"x_max":267,"o":"m 106 0 l 106 652 l 202 652 l 202 0 l 106 0 m 233 711 l 10 859 l 7 873 l 73 941 l 267 760 l 233 711 z "},"í":{"ha":308,"x_min":35,"x_max":294,"o":"m 106 0 l 106 652 l 202 652 l 202 0 l 106 0 m 69 711 l 35 760 l 229 941 l 294 873 l 290 859 l 69 711 z "},"î":{"ha":308,"x_min":-16,"x_max":327,"o":"m 106 0 l 106 652 l 202 652 l 202 0 l 106 0 m 25 716 l -16 758 l 132 927 l 176 927 l 327 758 l 286 716 l 151 837 l 25 716 z "},"ï":{"ha":308,"x_min":-10,"x_max":319,"o":"m 106 0 l 106 652 l 202 652 l 202 0 l 106 0 m 301 797 q 292 787 301 797 q 256 778 283 778 q 212 796 230 778 q 195 840 195 814 q 212 884 195 866 q 256 903 230 903 q 300 884 281 903 q 319 841 319 866 q 301 797 319 816 m 96 797 q 87 787 96 797 q 52 778 78 778 q 7 796 25 778 q -10 840 -10 814 q 7 884 -10 866 q 51 903 25 903 q 96 884 77 903 q 115 841 115 866 q 96 797 115 816 z "},"ð":{"ha":809,"x_min":66,"x_max":730,"o":"m 226 132 q 257 100 226 132 q 396 67 289 67 q 567 146 503 67 q 631 379 631 224 l 631 382 q 549 484 611 438 q 388 529 486 529 q 226 466 289 529 q 163 300 163 403 q 226 132 163 197 m 639 92 q 593 38 639 92 q 396 -16 548 -16 q 155 67 244 -16 q 66 295 66 151 q 156 525 66 438 q 391 612 246 612 q 623 516 535 612 q 460 800 592 734 l 353 693 l 303 744 l 381 822 q 334 826 358 826 q 157 793 231 826 l 153 797 l 153 878 q 312 909 224 909 q 453 894 400 909 l 559 1000 l 610 949 l 526 865 q 730 394 730 750 q 639 92 730 199 z "},"ñ":{"ha":775,"x_min":106,"x_max":678,"o":"m 420 667 q 606 594 534 667 q 678 379 678 522 l 678 0 l 583 0 l 583 355 q 531 522 583 469 q 404 574 479 574 q 276 538 328 574 q 202 438 224 501 l 202 0 l 106 0 l 106 652 l 184 652 l 196 553 q 420 667 269 667 m 209 859 q 224 876 209 859 q 281 894 239 894 q 384 869 323 894 q 469 845 444 845 q 509 859 494 845 q 524 898 524 873 l 528 900 l 589 886 q 558 799 589 831 q 485 766 526 766 q 384 791 444 765 q 298 817 323 817 q 258 803 273 817 q 243 763 243 788 l 241 760 l 178 774 q 209 859 178 824 z "},"ò":{"ha":796,"x_min":63,"x_max":734,"o":"m 226 138 q 259 102 226 138 q 397 67 292 67 q 569 138 503 67 q 635 326 635 208 q 569 514 635 444 q 397 583 503 583 q 226 514 292 583 q 160 326 160 444 q 226 138 160 208 m 636 77 q 588 30 636 77 q 396 -16 539 -16 q 158 75 253 -16 q 63 323 63 165 q 160 574 63 481 q 400 667 256 667 q 638 576 543 667 q 734 328 734 486 q 636 77 734 170 m 477 711 l 255 859 l 252 873 l 318 941 l 511 760 l 477 711 z "},"ó":{"ha":796,"x_min":63,"x_max":734,"o":"m 226 138 q 259 102 226 138 q 397 67 292 67 q 569 138 503 67 q 635 326 635 208 q 569 514 635 444 q 397 583 503 583 q 226 514 292 583 q 160 326 160 444 q 226 138 160 208 m 636 77 q 588 30 636 77 q 396 -16 539 -16 q 158 75 253 -16 q 63 323 63 165 q 160 574 63 481 q 400 667 256 667 q 638 576 543 667 q 734 328 734 486 q 636 77 734 170 m 315 711 l 280 760 l 473 941 l 539 873 l 535 859 l 315 711 z "},"ô":{"ha":796,"x_min":63,"x_max":734,"o":"m 226 138 q 259 102 226 138 q 397 67 292 67 q 569 138 503 67 q 635 326 635 208 q 569 514 635 444 q 397 583 503 583 q 226 514 292 583 q 160 326 160 444 q 226 138 160 208 m 636 77 q 588 30 636 77 q 396 -16 539 -16 q 158 75 253 -16 q 63 323 63 165 q 160 574 63 481 q 400 667 256 667 q 638 576 543 667 q 734 328 734 486 q 636 77 734 170 m 270 716 l 229 758 l 376 927 l 420 927 l 572 758 l 530 716 l 397 837 l 270 716 z "},"õ":{"ha":796,"x_min":63,"x_max":734,"o":"m 226 138 q 259 102 226 138 q 397 67 292 67 q 569 138 503 67 q 635 326 635 208 q 569 514 635 444 q 397 583 503 583 q 226 514 292 583 q 160 326 160 444 q 226 138 160 208 m 636 77 q 588 30 636 77 q 396 -16 539 -16 q 158 75 253 -16 q 63 323 63 165 q 160 574 63 481 q 400 667 256 667 q 638 576 543 667 q 734 328 734 486 q 636 77 734 170 m 226 859 q 241 876 226 859 q 299 894 256 894 q 401 869 341 894 q 487 845 462 845 q 527 859 512 845 q 542 898 542 873 l 545 900 l 608 886 q 576 799 608 831 q 503 766 544 766 q 401 791 461 765 q 316 817 341 817 q 276 803 290 817 q 261 763 261 788 l 259 760 l 196 774 q 226 859 196 824 z "},"ö":{"ha":796,"x_min":63,"x_max":734,"o":"m 226 138 q 259 102 226 138 q 397 67 292 67 q 569 138 503 67 q 635 326 635 208 q 569 514 635 444 q 397 583 503 583 q 226 514 292 583 q 160 326 160 444 q 226 138 160 208 m 636 77 q 588 30 636 77 q 396 -16 539 -16 q 158 75 253 -16 q 63 323 63 165 q 160 574 63 481 q 400 667 256 667 q 638 576 543 667 q 734 328 734 486 q 636 77 734 170 m 570 796 q 560 787 570 796 q 525 778 551 778 q 480 796 499 778 q 462 840 462 814 q 480 884 462 866 q 525 903 498 903 q 570 884 551 903 q 589 840 589 865 q 570 796 589 814 m 327 796 q 317 787 327 796 q 282 778 308 778 q 238 796 256 778 q 220 840 220 814 q 238 884 220 866 q 282 903 256 903 q 327 884 308 903 q 346 840 346 866 q 327 796 346 814 z "},"÷":{"ha":673,"x_min":78,"x_max":596,"o":"m 386 125 q 377 116 386 125 q 337 107 369 107 q 288 125 305 107 q 271 169 271 142 q 289 214 271 195 q 337 233 307 233 q 385 214 368 233 q 403 170 403 197 q 386 125 403 142 m 78 337 l 78 413 l 596 413 l 596 337 l 78 337 m 386 528 q 377 519 386 528 q 337 510 369 510 q 288 528 305 510 q 271 572 271 545 q 289 616 271 598 q 337 635 307 635 q 385 616 368 635 q 403 572 403 598 q 386 528 403 545 z "},"ø":{"ha":799,"x_min":64,"x_max":735,"o":"m 397 67 q 570 138 503 67 q 636 318 636 208 q 587 495 636 428 l 261 109 q 397 67 318 67 m 227 514 q 194 479 227 514 q 161 336 161 444 q 210 159 161 227 l 534 545 q 397 583 475 583 q 227 514 292 583 m 397 -16 q 203 39 285 -16 l 153 -20 l 68 -20 l 68 -10 l 149 86 q 64 329 64 177 q 161 574 64 481 q 397 667 258 667 q 592 614 509 667 l 639 671 l 728 671 l 728 663 l 648 568 q 735 322 734 475 q 638 77 735 170 q 397 -16 541 -16 z "},"ù":{"ha":758,"x_min":98,"x_max":652,"o":"m 555 652 l 652 652 l 652 0 l 573 0 l 563 88 q 342 -15 494 -16 q 162 51 227 -15 q 98 249 98 117 l 98 652 l 195 652 l 195 265 q 368 67 195 67 q 483 101 431 67 q 555 199 534 135 l 555 652 m 458 711 l 236 859 l 233 873 l 299 941 l 492 760 l 458 711 z "},"ú":{"ha":758,"x_min":98,"x_max":652,"o":"m 555 652 l 652 652 l 652 0 l 573 0 l 563 88 q 342 -15 494 -16 q 162 51 227 -15 q 98 249 98 117 l 98 652 l 195 652 l 195 265 q 368 67 195 67 q 483 101 431 67 q 555 199 534 135 l 555 652 m 516 859 l 296 711 l 261 760 l 454 941 l 520 873 l 516 859 z "},"û":{"ha":758,"x_min":98,"x_max":652,"o":"m 555 652 l 652 652 l 652 0 l 573 0 l 563 88 q 342 -15 494 -16 q 162 51 227 -15 q 98 249 98 117 l 98 652 l 195 652 l 195 265 q 368 67 195 67 q 483 101 431 67 q 555 199 534 135 l 555 652 m 378 837 l 252 716 l 210 758 l 357 927 l 401 927 l 553 758 l 511 716 l 378 837 z "},"ü":{"ha":758,"x_min":98,"x_max":652,"o":"m 555 652 l 652 652 l 652 0 l 573 0 l 563 88 q 342 -15 494 -16 q 162 51 227 -15 q 98 249 98 117 l 98 652 l 195 652 l 195 265 q 368 67 195 67 q 483 101 431 67 q 555 199 534 135 l 555 652 m 551 796 q 541 787 551 796 q 506 778 532 778 q 461 796 480 778 q 443 840 443 814 q 461 884 443 866 q 506 903 479 903 q 551 884 532 903 q 570 840 570 865 q 551 796 570 814 m 308 796 q 298 787 308 796 q 263 778 289 778 q 219 796 237 778 q 201 840 201 814 q 219 884 201 866 q 263 903 237 903 q 308 884 289 903 q 327 840 327 866 q 308 796 327 814 z "},"ý":{"ha":665,"x_min":24,"x_max":644,"o":"m 138 -214 q 64 -205 113 -214 l 64 -125 l 68 -123 q 121 -132 96 -131 q 227 -98 190 -132 q 300 24 264 -65 l 24 648 l 25 652 l 127 652 l 347 132 l 547 652 l 643 652 l 644 648 l 381 3 q 284 -165 334 -117 q 138 -214 233 -214 m 477 859 l 256 711 l 222 760 l 416 941 l 481 873 l 477 859 z "},"þ":{"ha":774,"x_min":106,"x_max":709,"o":"m 202 119 q 379 68 273 68 q 549 138 486 68 q 612 331 612 207 q 554 518 612 454 q 403 582 495 582 q 283 549 336 582 q 202 461 230 515 l 202 119 m 202 571 q 416 667 280 667 q 631 579 553 667 q 709 333 709 491 q 618 80 709 176 q 388 -15 526 -15 q 202 31 277 -15 l 202 -207 l 106 -207 l 106 897 l 202 897 l 202 571 z "},"ÿ":{"ha":665,"x_min":24,"x_max":644,"o":"m 138 -214 q 64 -205 113 -214 l 64 -125 l 68 -123 q 121 -132 96 -131 q 228 -98 190 -132 q 300 24 265 -64 l 24 648 l 25 652 l 127 652 l 347 132 l 547 652 l 643 652 l 644 648 l 381 3 q 284 -165 334 -117 q 138 -214 233 -214 m 511 796 q 502 787 511 796 q 467 778 492 778 q 422 796 441 778 q 404 840 404 814 q 422 884 404 866 q 467 903 441 903 q 511 884 492 903 q 530 840 530 865 q 511 796 530 814 m 269 796 q 259 787 269 796 q 224 778 250 778 q 180 796 198 778 q 161 840 161 814 q 180 884 161 866 q 224 903 198 903 q 269 884 250 903 q 288 840 288 866 q 269 796 288 814 z "},"Ā":{"ha":799,"x_min":16,"x_max":789,"o":"m 233 296 l 562 296 l 407 654 l 394 690 l 381 654 l 233 296 m 690 0 l 595 221 l 202 221 l 110 0 l 16 0 l 378 847 l 416 847 l 789 0 l 690 0 m 571 1024 l 571 945 l 217 945 l 217 1024 l 571 1024 z "},"ā":{"ha":712,"x_min":50,"x_max":687,"o":"m 278 64 q 494 184 420 64 l 494 274 q 338 302 428 302 q 198 271 249 302 q 146 181 146 240 q 184 94 146 123 q 278 64 222 64 m 494 391 q 283 586 494 586 q 114 542 179 586 l 111 543 l 111 620 q 312 667 180 667 q 516 597 444 667 q 587 395 587 528 l 587 149 q 639 81 587 81 q 683 96 667 81 l 687 95 l 687 13 q 608 -7 654 -7 q 500 100 504 -7 q 260 -15 412 -15 q 110 35 170 -15 q 50 180 50 85 q 127 326 50 275 q 313 376 203 376 q 494 349 422 376 l 494 391 m 505 856 l 505 784 l 142 784 l 142 856 l 505 856 z "},"Ă":{"ha":799,"x_min":16,"x_max":789,"o":"m 233 296 l 562 296 l 407 654 l 394 690 l 381 654 l 233 296 m 690 0 l 595 221 l 202 221 l 110 0 l 16 0 l 378 847 l 416 847 l 789 0 l 690 0 m 518 937 q 493 915 518 937 q 394 892 469 892 q 272 937 319 892 q 224 1058 224 982 l 286 1065 q 319 991 290 1018 q 397 964 349 964 q 476 991 445 964 q 507 1065 507 1019 l 567 1058 q 518 937 567 982 z "},"ă":{"ha":712,"x_min":50,"x_max":687,"o":"m 278 64 q 494 184 420 64 l 494 274 q 338 302 428 302 q 198 271 249 302 q 146 181 146 240 q 184 94 146 123 q 278 64 222 64 m 494 391 q 283 586 494 586 q 114 542 179 586 l 111 543 l 111 620 q 312 667 180 667 q 516 597 444 667 q 587 395 587 528 l 587 149 q 639 81 587 81 q 683 96 667 81 l 687 95 l 687 13 q 608 -7 654 -7 q 500 100 504 -7 q 260 -15 412 -15 q 110 35 170 -15 q 50 180 50 85 q 127 326 50 275 q 313 376 203 376 q 494 349 422 376 l 494 391 m 447 776 q 422 752 447 776 q 323 728 397 728 q 201 775 249 728 q 153 903 153 822 l 217 910 l 220 908 q 251 831 222 860 q 326 802 280 802 q 401 831 371 802 q 432 907 431 860 l 434 910 l 496 903 q 447 776 496 823 z "},"Ą":{"ha":799,"x_min":16,"x_max":789,"o":"m 233 296 l 562 296 l 407 654 l 394 690 l 381 654 l 233 296 m 671 -202 q 679 -210 671 -202 q 715 -218 687 -218 q 758 -214 743 -218 l 763 -216 l 763 -278 q 686 -287 738 -287 q 599 -260 635 -287 q 563 -184 563 -233 q 693 0 563 -79 l 690 0 l 595 221 l 202 221 l 110 0 l 16 0 l 378 847 l 416 847 l 789 0 l 770 0 q 655 -161 656 -77 q 671 -202 655 -185 z "},"ą":{"ha":712,"x_min":50,"x_max":687,"o":"m 278 64 q 494 184 420 64 l 494 274 q 338 302 428 302 q 198 271 249 302 q 146 181 146 240 q 184 94 146 123 q 278 64 222 64 m 494 391 q 283 586 494 586 q 114 542 179 586 l 111 543 l 111 620 q 312 667 180 667 q 516 597 444 667 q 587 395 587 528 l 587 149 q 639 81 587 81 q 683 96 667 81 l 687 95 l 687 13 q 671 4 682 7 q 557 -157 557 -71 q 573 -197 557 -180 q 617 -214 589 -214 q 659 -208 645 -214 l 664 -211 l 664 -273 q 588 -281 639 -281 q 500 -255 536 -281 q 465 -179 465 -229 q 580 -5 465 -82 q 500 100 504 9 q 260 -15 412 -15 q 110 35 170 -15 q 50 180 50 85 q 127 326 50 275 q 313 376 203 376 q 494 349 422 376 l 494 391 z "},"Ć":{"ha":803,"x_min":68,"x_max":749,"o":"m 189 102 q 129 159 189 102 q 68 413 68 217 q 190 728 68 608 q 509 848 312 848 q 749 800 640 848 l 749 712 l 745 711 q 520 763 645 762 q 262 668 359 763 q 165 415 165 573 q 259 165 165 258 q 520 72 353 72 q 745 123 642 72 l 749 123 l 749 38 q 507 -15 642 -15 q 189 102 309 -14 m 362 885 l 342 938 l 570 1081 l 620 1006 l 614 992 l 362 885 z "},"ć":{"ha":631,"x_min":63,"x_max":580,"o":"m 407 -15 q 159 78 254 -15 q 63 326 63 170 q 160 574 63 481 q 407 668 256 668 q 576 639 500 668 l 576 559 l 572 557 q 416 586 498 586 q 231 515 302 586 q 160 328 160 444 q 229 140 160 211 q 416 67 298 68 q 574 109 498 67 l 580 106 l 580 25 q 407 -15 507 -15 m 293 718 l 259 766 l 452 947 l 517 879 l 514 865 l 293 718 z "},"Ĉ":{"ha":803,"x_min":68,"x_max":749,"o":"m 189 102 q 129 159 189 102 q 68 413 68 217 q 190 728 68 608 q 509 848 312 848 q 749 800 640 848 l 749 712 l 745 711 q 520 763 645 762 q 262 668 359 763 q 165 415 165 573 q 259 165 165 258 q 520 72 353 72 q 745 123 642 72 l 749 123 l 749 38 q 507 -15 642 -15 q 189 102 309 -14 m 338 885 l 303 932 l 454 1072 l 498 1072 l 655 932 l 618 885 l 475 990 l 338 885 z "},"ĉ":{"ha":631,"x_min":63,"x_max":580,"o":"m 407 -15 q 159 78 254 -15 q 63 326 63 170 q 160 574 63 481 q 407 668 256 668 q 576 639 500 668 l 576 559 l 572 557 q 416 586 498 586 q 231 515 302 586 q 160 328 160 444 q 229 140 160 211 q 416 67 298 68 q 574 109 498 67 l 580 106 l 580 25 q 407 -15 507 -15 m 249 722 l 207 764 l 355 933 l 399 933 l 551 764 l 509 722 l 375 844 l 249 722 z "},"Ċ":{"ha":803,"x_min":68,"x_max":749,"o":"m 189 102 q 129 159 189 102 q 68 413 68 217 q 190 728 68 608 q 509 848 312 848 q 749 800 640 848 l 749 712 l 745 711 q 520 763 645 762 q 262 668 359 763 q 165 415 165 573 q 259 165 165 258 q 520 72 353 72 q 745 123 642 72 l 749 123 l 749 38 q 507 -15 642 -15 q 189 102 309 -14 m 522 942 q 513 933 522 942 q 478 924 504 924 q 435 942 453 924 q 418 985 418 960 q 436 1028 418 1010 q 479 1046 454 1046 q 522 1029 504 1046 q 541 985 541 1011 q 522 942 541 960 z "},"ċ":{"ha":631,"x_min":63,"x_max":580,"o":"m 407 -15 q 159 78 254 -15 q 63 326 63 170 q 160 574 63 481 q 407 668 256 668 q 576 639 500 668 l 576 559 l 572 557 q 416 586 498 586 q 231 515 302 586 q 160 328 160 444 q 229 140 160 211 q 416 67 298 68 q 574 109 498 67 l 580 106 l 580 25 q 407 -15 507 -15 m 424 801 q 414 791 424 801 q 378 781 404 781 q 332 801 351 781 q 312 848 312 821 q 332 894 312 875 q 378 913 351 913 q 424 894 404 913 q 443 848 443 875 q 424 801 443 821 z "},"Č":{"ha":803,"x_min":68,"x_max":749,"o":"m 189 102 q 129 159 189 102 q 68 413 68 217 q 190 728 68 608 q 509 848 312 848 q 749 800 640 848 l 749 712 l 745 711 q 520 763 645 762 q 262 668 359 763 q 165 415 165 573 q 259 165 165 258 q 520 72 353 72 q 745 123 642 72 l 749 123 l 749 38 q 507 -15 642 -15 q 189 102 309 -14 m 460 885 l 303 1027 l 338 1072 l 484 967 l 620 1072 l 655 1027 l 503 885 l 460 885 z "},"č":{"ha":631,"x_min":63,"x_max":580,"o":"m 407 -15 q 159 78 254 -15 q 63 326 63 170 q 160 574 63 481 q 407 668 256 668 q 576 639 500 668 l 576 559 l 572 557 q 416 586 498 586 q 231 515 302 586 q 160 328 160 444 q 229 140 160 211 q 416 67 298 68 q 574 109 498 67 l 580 106 l 580 25 q 407 -15 507 -15 m 359 724 l 207 894 l 249 933 l 382 813 l 509 933 l 551 894 l 403 724 l 359 724 z "},"Ď":{"ha":924,"x_min":126,"x_max":856,"o":"m 665 171 q 711 215 665 171 q 758 420 758 259 q 662 670 758 581 q 385 759 567 759 q 220 753 308 759 l 220 86 q 394 82 278 82 q 665 171 573 83 m 388 845 q 737 732 618 845 q 856 420 856 620 q 733 110 856 221 q 384 -1 610 -1 q 126 3 191 -1 l 126 835 q 388 845 264 845 m 439 885 l 397 885 l 240 1027 l 275 1072 l 420 967 l 557 1072 l 592 1027 l 439 885 z "},"ď":{"ha":808,"x_min":63,"x_max":850,"o":"m 375 69 q 571 187 507 69 l 571 526 q 399 583 503 583 q 228 511 295 583 q 161 318 161 439 q 221 133 161 196 q 375 69 280 69 m 571 897 l 667 897 l 667 0 l 589 0 l 578 90 q 353 -15 500 -16 q 144 71 226 -15 q 63 314 63 157 q 157 569 63 472 q 393 667 250 667 q 571 617 498 667 l 571 897 m 840 901 l 850 890 l 816 634 l 754 634 l 765 901 l 840 901 z "},"Đ":{"ha":934,"x_min":23,"x_max":866,"o":"m 675 171 q 722 215 675 171 q 768 420 768 259 q 672 670 768 581 q 395 759 577 759 q 230 753 318 759 l 230 448 l 366 448 l 366 379 l 230 379 l 230 86 q 404 82 290 82 q 675 171 583 83 m 397 845 q 747 732 627 845 q 866 420 866 620 q 743 110 866 221 q 394 -1 620 -1 q 136 3 201 -1 l 136 379 l 23 379 l 23 448 l 136 448 l 136 835 q 397 845 274 845 z "},"đ":{"ha":772,"x_min":63,"x_max":768,"o":"m 375 69 q 571 187 507 69 l 571 526 q 399 583 503 583 q 228 511 295 583 q 161 317 161 439 q 221 132 161 195 q 375 69 280 69 m 768 804 l 768 735 l 667 735 l 667 0 l 589 0 l 578 90 q 353 -15 500 -16 q 144 71 226 -15 q 63 315 63 157 q 157 569 63 472 q 393 667 250 667 q 571 617 498 667 l 571 735 l 442 735 l 442 804 l 571 804 l 571 897 l 667 897 l 667 804 l 768 804 z "},"Ē":{"ha":694,"x_min":126,"x_max":633,"o":"m 221 87 l 633 87 l 633 0 l 126 0 l 126 835 l 616 835 l 616 747 l 221 747 l 221 473 l 592 473 l 592 387 l 221 387 l 221 87 m 563 1024 l 563 945 l 210 945 l 210 1024 l 563 1024 z "},"ē":{"ha":721,"x_min":63,"x_max":663,"o":"m 510 533 q 485 559 510 533 q 376 586 460 586 q 236 533 293 586 q 164 385 178 479 l 570 385 q 510 533 561 480 m 152 572 q 197 620 152 572 q 376 667 241 667 q 586 583 510 667 q 663 351 662 500 q 662 307 663 322 l 160 307 q 239 130 166 192 q 419 67 312 67 q 623 119 526 67 l 626 117 l 626 38 q 398 -16 534 -16 q 162 71 262 -16 q 63 318 63 158 q 152 572 63 478 m 552 856 l 552 784 l 189 784 l 189 856 l 552 856 z "},"Ĕ":{"ha":694,"x_min":126,"x_max":633,"o":"m 221 87 l 633 87 l 633 0 l 126 0 l 126 835 l 616 835 l 616 747 l 221 747 l 221 473 l 592 473 l 592 387 l 221 387 l 221 87 m 510 937 q 486 915 510 937 q 387 892 461 892 q 264 937 312 892 q 216 1058 216 982 l 278 1065 q 312 991 283 1018 q 389 964 341 964 q 468 991 437 964 q 500 1065 498 1019 l 559 1058 q 510 937 559 982 z "},"ĕ":{"ha":721,"x_min":63,"x_max":663,"o":"m 510 533 q 485 559 510 533 q 376 586 460 586 q 236 533 293 586 q 164 385 178 479 l 570 385 q 510 533 561 480 m 152 572 q 197 620 152 572 q 376 667 241 667 q 586 583 510 667 q 663 351 662 500 q 662 307 663 322 l 160 307 q 239 130 166 192 q 419 67 312 67 q 623 119 526 67 l 626 117 l 626 38 q 398 -16 534 -16 q 162 71 262 -16 q 63 318 63 158 q 152 572 63 478 m 494 776 q 469 752 494 776 q 370 728 444 728 q 248 775 296 728 q 199 903 199 822 l 264 910 l 267 908 q 298 831 269 860 q 372 802 327 802 q 448 831 418 802 q 479 907 477 860 l 481 910 l 543 903 q 494 776 543 823 z "},"Ė":{"ha":694,"x_min":126,"x_max":633,"o":"m 221 87 l 633 87 l 633 0 l 126 0 l 126 835 l 616 835 l 616 747 l 221 747 l 221 473 l 592 473 l 592 387 l 221 387 l 221 87 m 430 942 q 421 933 430 942 q 386 924 412 924 q 343 942 361 924 q 326 985 326 960 q 343 1028 326 1010 q 386 1046 361 1046 q 430 1029 412 1046 q 448 985 448 1011 q 430 942 448 960 z "},"ė":{"ha":721,"x_min":63,"x_max":663,"o":"m 510 533 q 485 559 510 533 q 376 586 460 586 q 236 533 293 586 q 164 385 178 479 l 570 385 q 510 533 561 480 m 152 572 q 197 620 152 572 q 376 667 241 667 q 586 583 510 667 q 663 351 662 500 q 662 307 663 322 l 160 307 q 239 130 166 192 q 419 67 312 67 q 623 119 526 67 l 626 117 l 626 38 q 398 -16 534 -16 q 162 71 262 -16 q 63 318 63 158 q 152 572 63 478 m 417 795 q 407 785 417 795 q 371 775 397 775 q 325 795 345 775 q 306 842 306 814 q 325 888 306 869 q 371 907 345 907 q 417 888 397 907 q 437 842 437 869 q 417 795 437 814 z "},"Ę":{"ha":694,"x_min":126,"x_max":633,"o":"m 533 -202 q 541 -210 533 -202 q 577 -218 549 -218 q 620 -214 606 -218 l 625 -216 l 625 -278 q 549 -287 600 -287 q 461 -260 497 -287 q 425 -184 425 -233 q 555 0 425 -79 l 126 0 l 126 835 l 616 835 l 616 747 l 221 747 l 221 473 l 592 473 l 592 387 l 221 387 l 221 87 l 633 87 l 633 0 q 517 -161 518 -77 q 533 -202 517 -185 z "},"ę":{"ha":721,"x_min":63,"x_max":663,"o":"m 510 533 q 485 559 510 533 q 376 586 460 586 q 236 533 293 586 q 164 385 178 479 l 570 385 q 510 533 561 480 m 152 572 q 197 620 152 572 q 376 667 241 667 q 586 583 510 667 q 663 351 662 500 q 662 307 663 322 l 160 307 q 239 130 166 192 q 419 67 312 67 q 623 119 526 67 l 626 117 l 626 38 q 554 5 588 15 q 439 -157 439 -73 q 455 -197 439 -180 q 499 -214 471 -214 q 542 -208 528 -214 l 547 -211 l 547 -273 q 470 -281 522 -281 q 383 -255 419 -281 q 347 -179 347 -229 q 448 -15 347 -87 q 406 -16 433 -16 q 162 71 262 -16 q 63 318 63 158 q 152 572 63 478 z "},"Ě":{"ha":694,"x_min":126,"x_max":633,"o":"m 221 87 l 633 87 l 633 0 l 126 0 l 126 835 l 616 835 l 616 747 l 221 747 l 221 473 l 592 473 l 592 387 l 221 387 l 221 87 m 410 885 l 368 885 l 211 1027 l 246 1072 l 391 967 l 528 1072 l 563 1027 l 410 885 z "},"ě":{"ha":721,"x_min":63,"x_max":663,"o":"m 510 533 q 485 559 510 533 q 376 586 460 586 q 236 533 293 586 q 164 385 178 479 l 570 385 q 510 533 561 480 m 152 572 q 197 620 152 572 q 376 667 241 667 q 586 583 510 667 q 663 351 662 500 q 662 307 663 322 l 160 307 q 239 130 166 192 q 419 67 312 67 q 623 119 526 67 l 626 117 l 626 38 q 398 -16 534 -16 q 162 71 262 -16 q 63 318 63 158 q 152 572 63 478 m 397 718 l 352 718 l 201 888 l 242 927 l 376 807 l 503 927 l 544 888 l 397 718 z "},"Ĝ":{"ha":880,"x_min":68,"x_max":803,"o":"m 803 403 l 803 60 q 482 -12 671 -12 q 181 102 293 -12 q 68 412 68 216 q 192 729 68 609 q 520 848 315 848 q 768 802 659 848 l 766 709 l 763 708 q 507 762 656 762 q 262 667 357 762 q 167 414 167 571 q 253 165 167 258 q 501 73 340 73 q 718 119 627 73 l 718 322 l 496 322 l 496 403 l 803 403 m 484 990 l 347 885 l 312 932 l 463 1072 l 507 1072 l 664 932 l 627 885 l 484 990 z "},"ĝ":{"ha":704,"x_min":54,"x_max":662,"o":"m 571 -38 q 513 39 571 18 q 371 63 466 55 q 252 78 277 75 q 142 -44 142 28 q 357 -141 142 -141 q 571 -38 571 -142 m 458 345 q 480 362 458 345 q 503 444 503 380 q 457 543 503 507 q 339 578 412 578 q 222 543 267 578 q 177 444 177 507 q 222 347 177 381 q 340 311 267 312 q 458 345 413 311 m 662 652 l 662 580 l 517 580 q 593 437 593 526 q 522 294 593 349 q 338 239 450 239 q 222 258 273 239 q 199 212 199 240 q 236 171 199 184 q 401 146 273 158 q 595 98 530 135 q 659 -26 659 60 q 346 -216 659 -216 q 135 -178 216 -216 q 54 -52 54 -140 q 172 100 54 37 q 111 185 111 127 q 165 287 111 243 q 85 441 85 344 q 156 595 85 538 q 340 652 227 652 l 662 652 m 331 844 l 205 722 l 163 764 l 311 933 l 355 933 l 507 764 l 465 722 l 331 844 z "},"Ğ":{"ha":880,"x_min":68,"x_max":803,"o":"m 803 403 l 803 60 q 482 -12 671 -12 q 181 102 293 -12 q 68 412 68 216 q 192 729 68 609 q 520 848 315 848 q 768 802 659 848 l 766 709 l 763 708 q 507 762 656 762 q 262 667 357 762 q 167 414 167 571 q 253 165 167 258 q 501 73 340 73 q 718 119 627 73 l 718 322 l 496 322 l 496 403 l 803 403 m 611 937 q 587 915 611 937 q 488 892 562 892 q 365 937 413 892 q 317 1058 317 982 l 379 1065 q 413 991 384 1018 q 490 964 442 964 q 569 991 538 964 q 601 1065 600 1019 l 661 1058 q 611 937 661 982 z "},"ğ":{"ha":704,"x_min":54,"x_max":662,"o":"m 571 -38 q 513 39 571 18 q 371 63 466 55 q 252 78 277 75 q 142 -44 142 28 q 357 -141 142 -141 q 571 -38 571 -142 m 458 345 q 480 362 458 345 q 503 444 503 380 q 457 543 503 507 q 339 578 412 578 q 222 543 267 578 q 177 444 177 507 q 222 347 177 381 q 340 311 267 312 q 458 345 413 311 m 662 652 l 662 580 l 517 580 q 593 437 593 526 q 522 294 593 349 q 338 239 450 239 q 222 258 273 239 q 199 212 199 240 q 236 171 199 184 q 401 146 273 158 q 595 98 530 135 q 659 -26 659 60 q 346 -216 659 -216 q 135 -178 216 -216 q 54 -52 54 -140 q 172 100 54 37 q 111 185 111 127 q 165 287 111 243 q 85 441 85 344 q 156 595 85 538 q 340 652 227 652 l 662 652 m 456 783 q 431 759 456 783 q 332 735 407 735 q 210 782 258 735 q 161 909 161 828 l 226 917 l 229 914 q 260 837 231 866 q 335 808 289 808 q 410 837 380 808 q 441 913 439 866 l 443 917 l 505 909 q 456 783 505 830 z "},"Ġ":{"ha":880,"x_min":68,"x_max":803,"o":"m 803 403 l 803 60 q 482 -12 671 -12 q 181 102 293 -12 q 68 412 68 216 q 192 729 68 609 q 520 848 315 848 q 768 802 659 848 l 766 709 l 763 708 q 507 762 656 762 q 262 667 357 762 q 167 414 167 571 q 253 165 167 258 q 501 73 340 73 q 718 119 627 73 l 718 322 l 496 322 l 496 403 l 803 403 m 531 942 q 522 933 531 942 q 487 924 513 924 q 444 942 462 924 q 427 985 427 960 q 444 1028 427 1010 q 487 1046 462 1046 q 531 1029 513 1046 q 549 985 549 1011 q 531 942 549 960 z "},"ġ":{"ha":704,"x_min":54,"x_max":662,"o":"m 571 -38 q 513 39 571 18 q 371 63 466 55 q 252 78 277 75 q 142 -44 142 28 q 357 -141 142 -141 q 571 -38 571 -142 m 458 345 q 480 362 458 345 q 503 444 503 380 q 457 543 503 507 q 339 578 412 578 q 222 543 267 578 q 177 444 177 507 q 222 347 177 381 q 340 311 267 312 q 458 345 413 311 m 662 652 l 662 580 l 517 580 q 593 437 593 526 q 522 294 593 349 q 338 239 450 239 q 222 258 273 239 q 199 212 199 240 q 236 171 199 184 q 401 146 273 158 q 595 98 530 135 q 659 -26 659 60 q 346 -216 659 -216 q 135 -178 216 -216 q 54 -52 54 -140 q 172 100 54 37 q 111 185 111 127 q 165 287 111 243 q 85 441 85 344 q 156 595 85 538 q 340 652 227 652 l 662 652 m 379 801 q 370 791 379 801 q 333 781 360 781 q 287 801 307 781 q 268 848 268 821 q 287 894 268 875 q 333 913 307 913 q 379 894 360 913 q 399 848 399 875 q 379 801 399 821 z "},"Ģ":{"ha":880,"x_min":68,"x_max":803,"o":"m 447 -116 l 446 -66 l 534 -58 l 543 -69 q 489 -283 543 -182 l 425 -283 q 447 -116 448 -207 m 803 403 l 803 60 q 482 -13 671 -12 q 181 101 293 -13 q 68 412 68 216 q 192 729 68 609 q 520 848 315 848 q 768 802 659 848 l 766 709 l 763 708 q 507 763 656 762 q 262 667 357 763 q 167 414 167 571 q 253 165 167 258 q 501 73 340 73 q 718 119 627 73 l 718 322 l 496 322 l 496 403 l 803 403 z "},"ģ":{"ha":704,"x_min":54,"x_max":662,"o":"m 571 -38 q 513 39 571 18 q 371 63 466 55 q 252 78 277 75 q 142 -44 142 28 q 357 -141 142 -141 q 571 -38 571 -142 m 458 345 q 480 362 458 345 q 503 444 503 380 q 457 543 503 507 q 339 578 412 578 q 222 543 267 578 q 177 444 177 507 q 222 347 177 381 q 340 311 267 312 q 458 345 413 311 m 662 652 l 662 580 l 517 580 q 593 437 593 526 q 522 294 593 349 q 338 239 450 239 q 222 258 273 239 q 199 212 199 240 q 236 171 199 184 q 401 146 273 158 q 595 98 530 135 q 659 -26 659 60 q 346 -216 659 -216 q 135 -178 216 -216 q 54 -52 54 -140 q 172 100 54 37 q 111 185 111 127 q 165 287 111 243 q 85 441 85 344 q 156 595 85 538 q 340 652 227 652 l 662 652 m 388 774 l 389 724 l 300 716 l 292 727 q 346 941 292 840 l 410 941 q 388 774 387 865 z "},"Ĥ":{"ha":939,"x_min":126,"x_max":813,"o":"m 718 835 l 813 835 l 813 0 l 718 0 l 718 381 l 221 381 l 221 0 l 126 0 l 126 835 l 221 835 l 221 466 l 718 466 l 718 835 m 465 990 l 328 885 l 293 932 l 444 1072 l 489 1072 l 645 932 l 608 885 l 465 990 z "},"ĥ":{"ha":774,"x_min":-15,"x_max":677,"o":"m 420 667 q 606 594 535 667 q 677 385 677 522 l 677 0 l 582 0 l 582 363 q 530 524 582 473 q 404 574 479 574 q 278 539 330 574 q 202 441 226 504 l 202 0 l 106 0 l 106 897 l 202 897 l 202 561 q 420 667 274 667 m 300 929 l 157 1034 l 20 929 l -15 976 l 136 1116 l 180 1116 l 337 976 l 300 929 z "},"Ħ":{"ha":973,"x_min":41,"x_max":933,"o":"m 736 466 l 736 602 l 237 602 l 237 466 l 736 466 m 933 675 l 933 602 l 829 602 l 829 0 l 736 0 l 736 381 l 237 381 l 237 0 l 142 0 l 142 602 l 41 602 l 41 675 l 142 675 l 142 835 l 237 835 l 237 675 l 736 675 l 736 835 l 829 835 l 829 675 l 933 675 z "},"ħ":{"ha":774,"x_min":0,"x_max":677,"o":"m 420 667 q 606 594 535 667 q 677 385 677 522 l 677 0 l 582 0 l 582 363 q 530 524 582 473 q 404 574 479 574 q 278 539 330 574 q 202 441 226 504 l 202 0 l 106 0 l 106 735 l 0 735 l 0 804 l 106 804 l 106 897 l 202 897 l 202 804 l 343 804 l 343 735 l 202 735 l 202 561 q 420 667 274 667 z "},"Ĩ":{"ha":346,"x_min":-26,"x_max":378,"o":"m 126 0 l 126 835 l 221 835 l 221 0 l 126 0 m 8 1005 q 25 1022 8 1005 q 82 1039 41 1039 q 178 1016 123 1039 q 256 992 233 992 q 295 1007 279 992 q 311 1046 311 1021 l 313 1049 l 378 1029 q 343 944 375 976 q 273 911 312 911 q 177 936 233 911 q 97 960 121 960 q 56 944 72 960 q 41 904 41 929 l 38 903 l -26 920 q 8 1005 -24 972 z "},"ĩ":{"ha":308,"x_min":-50,"x_max":362,"o":"m 106 0 l 106 652 l 202 652 l 202 0 l 106 0 m -19 859 q -4 876 -19 859 q 54 894 12 894 q 157 869 96 894 q 242 845 217 845 q 282 859 267 845 q 297 898 297 873 l 300 900 l 362 886 q 331 799 362 831 q 258 766 299 766 q 156 791 216 765 q 71 817 96 817 q 31 803 45 817 q 16 763 16 788 l 14 760 l -50 774 q -19 859 -50 824 z "},"Ī":{"ha":346,"x_min":32,"x_max":315,"o":"m 126 0 l 126 835 l 221 835 l 221 0 l 126 0 m 32 946 l 32 1027 l 315 1027 l 315 946 l 32 946 z "},"ī":{"ha":308,"x_min":-4,"x_max":312,"o":"m 106 0 l 106 652 l 202 652 l 202 0 l 106 0 m -4 784 l -4 856 l 312 856 l 312 784 l -4 784 z "},"Ĭ":{"ha":346,"x_min":3,"x_max":346,"o":"m 126 0 l 126 835 l 221 835 l 221 0 l 126 0 m 297 937 q 272 915 297 937 q 173 892 248 892 q 51 937 98 892 q 3 1058 3 982 l 64 1065 q 98 991 69 1018 q 176 964 127 964 q 255 991 224 964 q 287 1065 286 1019 l 346 1058 q 297 937 346 982 z "},"ĭ":{"ha":308,"x_min":-18,"x_max":326,"o":"m 106 0 l 106 652 l 202 652 l 202 0 l 106 0 m 276 776 q 252 752 276 776 q 153 728 227 728 q 30 775 78 728 q -18 903 -18 822 l 47 910 l 50 908 q 81 831 52 860 q 155 802 110 802 q 231 831 201 802 q 261 907 260 860 l 264 910 l 326 903 q 276 776 326 823 z "},"Į":{"ha":346,"x_min":9,"x_max":221,"o":"m 101 -157 q 117 -197 101 -180 q 161 -214 132 -214 q 203 -208 189 -214 l 208 -211 l 208 -273 q 132 -281 183 -281 q 45 -255 81 -281 q 9 -179 9 -229 q 132 0 9 -79 l 126 0 l 126 835 l 221 835 l 221 0 l 208 0 q 101 -157 101 -76 z "},"į":{"ha":308,"x_min":-14,"x_max":220,"o":"m 106 0 l 106 652 l 202 652 l 202 0 l 193 0 q 78 -161 79 -77 q 94 -202 78 -185 q 138 -218 110 -218 q 180 -214 167 -218 l 186 -216 l 186 -278 q 109 -287 161 -287 q 22 -260 58 -287 q -14 -184 -14 -233 q 116 0 -14 -79 l 106 0 m 200 795 q 190 785 200 795 q 154 775 180 775 q 108 795 127 775 q 88 842 88 814 q 108 888 88 869 q 154 907 127 907 q 200 888 180 907 q 220 842 220 869 q 200 795 220 814 z "},"İ":{"ha":346,"x_min":113,"x_max":235,"o":"m 126 0 l 126 835 l 221 835 l 221 0 l 126 0 m 216 942 q 207 933 216 942 q 173 924 198 924 q 130 942 148 924 q 113 985 113 960 q 131 1028 113 1010 q 174 1046 149 1046 q 216 1029 198 1046 q 235 985 235 1011 q 216 942 235 960 z "},"ı":{"ha":308,"x_min":106,"x_max":202,"o":"m 106 0 l 106 652 l 202 652 l 202 0 l 106 0 z "},"Ĳ":{"ha":795,"x_min":126,"x_max":680,"o":"m 428 -4 q 363 0 399 -4 l 363 81 l 368 82 q 418 78 389 78 q 585 277 585 78 l 585 835 l 680 835 l 680 284 q 428 -4 680 -4 m 126 0 l 126 835 l 221 835 l 221 0 l 126 0 z "},"ĳ":{"ha":621,"x_min":88,"x_max":534,"o":"m 283 -214 q 148 -193 217 -214 l 148 -111 l 151 -110 q 284 -127 210 -127 q 389 -75 358 -127 q 420 113 420 -22 l 420 652 l 515 652 l 515 92 q 457 -142 515 -72 q 283 -214 399 -213 m 106 38 l 106 652 l 202 652 l 202 38 l 106 38 m 515 795 q 505 785 515 795 q 469 775 495 775 q 422 795 442 775 q 403 842 403 814 q 422 888 403 869 q 469 907 442 907 q 515 888 495 907 q 534 842 534 869 q 515 795 534 814 m 200 795 q 190 785 200 795 q 154 775 180 775 q 108 795 127 775 q 88 842 88 814 q 108 888 88 869 q 154 907 127 907 q 200 888 180 907 q 220 842 220 869 q 200 795 220 814 z "},"Ĵ":{"ha":449,"x_min":18,"x_max":461,"o":"m 82 -4 q 18 0 53 -4 l 18 81 l 22 82 q 72 78 43 78 q 239 277 239 78 l 239 835 l 334 835 l 334 284 q 82 -4 334 -4 m 144 885 l 109 932 l 260 1072 l 304 1072 l 461 932 l 425 885 l 280 990 l 144 885 z "},"ĵ":{"ha":329,"x_min":-50,"x_max":349,"o":"m 13 -214 q -50 -207 -11 -214 l -50 -125 l -45 -123 q -5 -127 -26 -127 q 129 35 129 -127 l 129 652 l 224 652 l 224 15 q 13 -214 224 -214 m 47 716 l 5 758 l 153 927 l 197 927 l 349 758 l 307 716 l 173 837 l 47 716 z "},"Ķ":{"ha":777,"x_min":126,"x_max":779,"o":"m 353 -116 l 352 -66 l 441 -58 l 450 -69 q 395 -283 450 -182 l 331 -283 q 353 -116 354 -207 m 221 0 l 126 0 l 126 835 l 221 835 l 221 453 l 642 835 l 754 835 l 755 831 l 306 425 l 779 4 l 778 0 l 655 0 l 221 384 l 221 0 z "},"ķ":{"ha":664,"x_min":106,"x_max":650,"o":"m 299 -116 l 298 -66 l 387 -58 l 395 -69 q 341 -283 395 -182 l 277 -283 q 299 -116 300 -207 m 202 0 l 106 0 l 106 897 l 202 897 l 202 363 l 520 652 l 633 652 l 634 648 l 293 340 l 650 4 l 649 0 l 530 0 l 202 306 l 202 0 z "},"ĸ":{"ha":664,"x_min":106,"x_max":650,"o":"m 202 0 l 106 0 l 106 652 l 202 652 l 202 362 l 524 652 l 636 652 l 637 648 l 293 340 l 650 4 l 649 0 l 530 0 l 202 306 l 202 0 z "},"Ĺ":{"ha":631,"x_min":50,"x_max":616,"o":"m 221 79 l 616 79 l 616 0 l 126 0 l 126 835 l 221 835 l 221 79 m 328 1006 l 322 992 l 71 885 l 50 938 l 278 1081 l 328 1006 z "},"ĺ":{"ha":311,"x_min":41,"x_max":300,"o":"m 110 0 l 110 897 l 205 897 l 205 0 l 110 0 m 76 956 l 41 1005 l 235 1185 l 300 1118 l 297 1103 l 76 956 z "},"Ļ":{"ha":631,"x_min":126,"x_max":616,"o":"m 331 -116 l 330 -66 l 418 -58 l 427 -69 q 372 -283 427 -182 l 308 -283 q 331 -116 331 -207 m 221 79 l 616 79 l 616 0 l 126 0 l 126 835 l 221 835 l 221 79 z "},"ļ":{"ha":311,"x_min":87,"x_max":205,"o":"m 110 -116 l 109 -66 l 197 -58 l 205 -69 q 151 -283 205 -182 l 87 -283 q 110 -116 110 -207 m 110 0 l 110 897 l 205 897 l 205 0 l 110 0 z "},"Ľ":{"ha":636,"x_min":126,"x_max":616,"o":"m 221 79 l 616 79 l 616 0 l 126 0 l 126 835 l 221 835 l 221 79 m 526 847 l 491 592 l 431 592 l 441 859 l 515 859 l 526 847 z "},"ľ":{"ha":347,"x_min":110,"x_max":389,"o":"m 110 0 l 110 897 l 205 897 l 205 0 l 110 0 m 293 634 l 303 901 l 379 901 l 389 890 l 355 634 l 293 634 z "},"Ŀ":{"ha":645,"x_min":126,"x_max":616,"o":"m 489 422 q 446 437 461 422 q 431 476 431 452 q 446 516 431 500 q 489 532 461 532 q 531 516 516 532 q 547 476 547 500 q 489 422 547 422 m 221 79 l 616 79 l 616 0 l 126 0 l 126 835 l 221 835 l 221 79 z "},"ŀ":{"ha":390,"x_min":110,"x_max":412,"o":"m 396 422 q 389 415 396 422 q 353 407 381 407 q 310 422 326 407 q 294 461 294 437 q 310 502 294 486 q 353 517 326 517 q 396 502 381 517 q 412 462 412 486 q 396 422 412 437 m 110 0 l 110 897 l 205 897 l 205 0 l 110 0 z "},"Ł":{"ha":640,"x_min":39,"x_max":625,"o":"m 230 79 l 625 79 l 625 0 l 135 0 l 135 345 l 43 288 l 39 290 l 39 374 l 135 433 l 135 835 l 230 835 l 230 492 l 323 551 l 327 551 l 327 463 l 230 403 l 230 79 z "},"ł":{"ha":380,"x_min":48,"x_max":336,"o":"m 336 582 l 336 501 l 237 439 l 237 0 l 142 0 l 142 379 l 52 322 l 48 322 l 48 404 l 142 462 l 142 897 l 237 897 l 237 523 l 332 582 l 336 582 z "},"Ń":{"ha":932,"x_min":126,"x_max":807,"o":"m 126 0 l 126 837 l 165 837 l 712 192 l 716 192 l 716 835 l 807 835 l 807 -4 l 769 -4 l 220 644 l 217 644 l 217 0 l 126 0 m 353 885 l 334 938 l 561 1081 l 611 1006 l 605 992 l 353 885 z "},"ń":{"ha":775,"x_min":106,"x_max":678,"o":"m 420 667 q 606 594 534 667 q 678 379 678 522 l 678 0 l 583 0 l 583 355 q 531 522 583 469 q 404 574 479 574 q 276 538 328 574 q 202 438 224 501 l 202 0 l 106 0 l 106 652 l 184 652 l 196 553 q 420 667 269 667 m 517 859 l 297 711 l 262 760 l 456 941 l 522 873 l 517 859 z "},"Ņ":{"ha":932,"x_min":126,"x_max":807,"o":"m 425 -116 l 423 -66 l 511 -58 l 520 -69 q 466 -283 520 -182 l 401 -283 q 425 -116 425 -207 m 126 0 l 126 837 l 165 837 l 712 192 l 716 192 l 716 835 l 807 835 l 807 -4 l 769 -4 l 220 644 l 217 644 l 217 0 l 126 0 z "},"ņ":{"ha":775,"x_min":106,"x_max":678,"o":"m 330 -116 l 328 -66 l 416 -58 l 425 -69 q 371 -283 425 -182 l 307 -283 q 330 -116 330 -207 m 420 667 q 606 594 534 667 q 678 379 678 522 l 678 0 l 583 0 l 583 355 q 531 522 583 469 q 404 574 479 574 q 276 538 328 574 q 202 438 224 501 l 202 0 l 106 0 l 106 652 l 184 652 l 196 553 q 420 667 269 667 z "},"Ň":{"ha":932,"x_min":126,"x_max":807,"o":"m 126 0 l 126 837 l 165 837 l 712 192 l 716 192 l 716 835 l 807 835 l 807 -4 l 769 -4 l 220 644 l 217 644 l 217 0 l 126 0 m 451 885 l 294 1027 l 330 1072 l 475 967 l 611 1072 l 646 1027 l 494 885 l 451 885 z "},"ň":{"ha":775,"x_min":106,"x_max":678,"o":"m 420 667 q 606 594 534 667 q 678 379 678 522 l 678 0 l 583 0 l 583 355 q 531 522 583 469 q 404 574 479 574 q 276 538 328 574 q 202 438 224 501 l 202 0 l 106 0 l 106 652 l 184 652 l 196 553 q 420 667 269 667 m 407 718 l 362 718 l 211 888 l 252 927 l 387 807 l 513 927 l 554 888 l 407 718 z "},"ŉ":{"ha":856,"x_min":10,"x_max":758,"o":"m 500 667 q 686 594 614 667 q 758 379 758 522 l 758 0 l 664 0 l 664 355 q 612 522 664 469 q 484 574 559 574 q 356 538 408 574 q 281 438 304 501 l 281 0 l 187 0 l 187 652 l 264 652 l 275 553 q 366 635 308 604 q 500 667 424 667 m 10 600 q 25 861 31 749 l 110 876 l 123 861 q 69 600 121 745 l 10 600 z "},"Ŋ":{"ha":932,"x_min":126,"x_max":807,"o":"m 716 835 l 807 835 l 807 45 q 557 -243 807 -243 q 492 -239 522 -243 l 492 -160 l 494 -159 q 545 -163 517 -163 q 673 -109 631 -163 q 716 39 715 -56 l 716 60 l 220 643 l 217 643 l 217 0 l 126 0 l 126 837 l 165 837 l 712 191 l 716 191 l 716 835 z "},"ŋ":{"ha":767,"x_min":106,"x_max":671,"o":"m 422 667 q 603 596 534 667 q 671 389 671 526 l 671 -32 q 471 -250 671 -250 q 431 -248 460 -250 l 431 -169 l 433 -168 q 451 -169 441 -170 q 546 -134 517 -169 q 576 -16 576 -98 l 576 363 q 525 523 576 471 q 399 574 473 574 q 275 538 326 574 q 202 441 224 503 l 202 0 l 106 0 l 106 652 l 184 652 l 197 539 q 287 631 229 595 q 422 667 345 667 z "},"Ō":{"ha":995,"x_min":68,"x_max":927,"o":"m 259 161 q 305 114 259 161 q 498 67 351 67 q 736 161 644 67 q 828 417 828 255 q 736 672 828 578 q 498 766 644 766 q 259 672 351 766 q 167 417 167 578 q 259 161 167 255 m 805 100 q 744 41 805 100 q 499 -18 684 -18 q 192 99 315 -18 q 68 415 68 215 q 190 733 68 616 q 496 851 312 851 q 804 735 681 851 q 927 418 927 618 q 805 100 927 218 m 319 945 l 319 1024 l 673 1024 l 673 945 l 319 945 z "},"ō":{"ha":796,"x_min":63,"x_max":734,"o":"m 226 138 q 259 102 226 138 q 397 67 292 67 q 569 138 503 67 q 635 326 635 208 q 569 514 635 444 q 397 583 503 583 q 226 514 292 583 q 160 326 160 444 q 226 138 160 208 m 636 77 q 588 30 636 77 q 396 -16 539 -16 q 158 75 253 -16 q 63 323 63 165 q 160 574 63 481 q 400 667 256 667 q 638 576 543 667 q 734 328 734 486 q 636 77 734 170 m 217 784 l 217 856 l 580 856 l 580 784 l 217 784 z "},"Ŏ":{"ha":995,"x_min":68,"x_max":927,"o":"m 259 161 q 305 114 259 161 q 498 67 351 67 q 736 161 644 67 q 828 417 828 255 q 736 672 828 578 q 498 766 644 766 q 259 672 351 766 q 167 417 167 578 q 259 161 167 255 m 805 100 q 744 41 805 100 q 499 -18 684 -18 q 192 99 315 -18 q 68 415 68 215 q 190 733 68 616 q 496 851 312 851 q 804 735 681 851 q 927 418 927 618 q 805 100 927 218 m 620 937 q 596 915 620 937 q 496 892 571 892 q 374 937 422 892 q 326 1058 326 982 l 388 1065 q 422 991 393 1018 q 499 964 451 964 q 578 991 547 964 q 610 1065 608 1019 l 669 1058 q 620 937 669 982 z "},"ŏ":{"ha":796,"x_min":63,"x_max":734,"o":"m 226 138 q 259 102 226 138 q 397 67 292 67 q 569 138 503 67 q 635 326 635 208 q 569 514 635 444 q 397 583 503 583 q 226 514 292 583 q 160 326 160 444 q 226 138 160 208 m 636 77 q 588 30 636 77 q 396 -16 539 -16 q 158 75 253 -16 q 63 323 63 165 q 160 574 63 481 q 400 667 256 667 q 638 576 543 667 q 734 328 734 486 q 636 77 734 170 m 522 776 q 497 752 522 776 q 398 728 472 728 q 275 775 323 728 q 227 903 227 822 l 292 910 l 294 908 q 326 831 297 860 q 400 802 355 802 q 475 831 446 802 q 507 907 505 860 l 509 910 l 571 903 q 522 776 571 823 z "},"Ő":{"ha":995,"x_min":68,"x_max":927,"o":"m 259 161 q 305 114 259 161 q 498 67 351 67 q 736 161 644 67 q 828 417 828 255 q 736 672 828 578 q 498 766 644 766 q 259 672 351 766 q 167 417 167 578 q 259 161 167 255 m 805 100 q 744 41 805 100 q 499 -18 684 -18 q 192 99 315 -18 q 68 415 68 215 q 190 733 68 616 q 496 851 312 851 q 804 735 681 851 q 927 418 927 618 q 805 100 927 218 m 615 898 l 562 922 l 652 1109 l 730 1090 l 732 1074 l 615 898 m 388 898 l 334 920 l 423 1109 l 503 1090 l 505 1074 l 388 898 z "},"ő":{"ha":796,"x_min":63,"x_max":734,"o":"m 226 138 q 259 102 226 138 q 397 67 292 67 q 569 138 503 67 q 635 326 635 208 q 569 514 635 444 q 397 583 503 583 q 226 514 292 583 q 160 326 160 444 q 226 138 160 208 m 636 77 q 588 30 636 77 q 396 -16 539 -16 q 158 75 253 -16 q 63 323 63 165 q 160 574 63 481 q 400 667 256 667 q 638 576 543 667 q 734 328 734 486 q 636 77 734 170 m 505 713 l 457 739 l 566 938 l 637 911 l 639 898 l 505 713 m 296 713 l 248 739 l 356 938 l 429 911 l 431 898 l 296 713 z "},"Œ":{"ha":1162,"x_min":68,"x_max":1100,"o":"m 636 394 l 636 96 q 766 210 717 132 q 819 394 814 287 l 636 394 m 636 479 l 816 479 q 756 640 803 573 q 636 740 709 707 l 636 479 m 258 675 q 213 628 258 675 q 167 418 167 581 q 258 162 167 256 q 495 67 350 67 q 543 69 513 67 l 543 766 q 495 769 513 769 q 258 675 350 769 m 1100 87 l 1100 0 l 625 0 q 495 -18 562 -18 q 192 99 315 -18 q 68 416 68 216 q 190 735 68 617 q 495 854 311 854 q 624 836 561 854 l 1083 836 l 1083 750 l 783 750 q 914 479 895 649 l 1059 479 l 1059 394 l 918 394 q 784 87 909 199 l 1100 87 z "},"œ":{"ha":1249,"x_min":63,"x_max":1190,"o":"m 225 136 q 257 101 225 136 q 388 66 288 66 q 549 136 488 66 q 611 326 611 207 q 549 515 611 446 q 389 585 488 585 q 225 513 290 585 q 161 324 161 442 q 225 136 161 205 m 1046 535 q 1021 562 1046 535 q 915 589 996 589 q 779 535 833 589 q 711 382 724 481 l 1101 382 q 1046 535 1095 481 m 911 667 q 1116 583 1042 667 q 1190 349 1190 498 l 1190 306 l 707 306 q 781 129 713 190 q 952 67 848 67 q 1152 119 1057 67 l 1154 117 l 1154 38 q 958 -16 1063 -16 q 661 148 741 -16 q 551 27 623 70 q 384 -16 479 -16 q 153 75 242 -16 q 63 321 63 167 q 155 571 63 475 q 384 667 248 667 q 549 625 476 667 q 661 505 621 583 q 763 625 697 583 q 911 667 829 667 z "},"Ŕ":{"ha":733,"x_min":126,"x_max":684,"o":"m 220 404 l 332 404 q 488 450 427 404 q 548 582 548 496 q 498 713 548 667 q 358 760 448 760 q 220 755 268 760 l 220 404 m 220 328 l 220 0 l 126 0 l 126 835 q 340 842 250 842 q 563 780 482 842 q 644 589 644 718 q 595 431 644 493 q 467 345 547 370 l 684 4 l 683 0 l 581 0 l 375 328 l 220 328 m 491 992 l 240 885 l 220 938 l 447 1081 l 498 1006 l 491 992 z "},"ŕ":{"ha":479,"x_min":106,"x_max":456,"o":"m 380 665 q 456 653 421 665 l 456 567 l 452 566 q 380 578 425 578 q 202 403 231 578 l 202 0 l 106 0 l 106 652 l 184 652 l 195 557 q 380 665 248 665 m 416 859 l 195 711 l 160 760 l 353 941 l 419 873 l 416 859 z "},"Ŗ":{"ha":733,"x_min":126,"x_max":684,"o":"m 328 -116 l 327 -66 l 416 -58 l 425 -69 q 370 -283 425 -182 l 306 -283 q 328 -116 329 -207 m 220 404 l 332 404 q 488 450 427 404 q 548 582 548 496 q 498 713 548 667 q 358 760 448 760 q 220 755 268 760 l 220 404 m 220 328 l 220 0 l 126 0 l 126 835 q 340 842 250 842 q 563 780 482 842 q 644 589 644 718 q 595 431 644 493 q 467 345 547 370 l 684 4 l 683 0 l 581 0 l 375 328 l 220 328 z "},"ŗ":{"ha":479,"x_min":86,"x_max":456,"o":"m 109 -116 l 107 -66 l 196 -58 l 205 -69 q 151 -283 205 -182 l 86 -283 q 109 -116 109 -207 m 380 665 q 456 653 421 665 l 456 567 l 452 566 q 380 578 425 578 q 202 403 231 578 l 202 0 l 106 0 l 106 652 l 184 652 l 195 557 q 380 665 248 665 z "},"Ř":{"ha":733,"x_min":126,"x_max":684,"o":"m 220 404 l 332 404 q 488 450 427 404 q 548 582 548 496 q 498 713 548 667 q 358 760 448 760 q 220 755 268 760 l 220 404 m 220 328 l 220 0 l 126 0 l 126 835 q 340 842 250 842 q 563 780 482 842 q 644 589 644 718 q 595 431 644 493 q 467 345 547 370 l 684 4 l 683 0 l 581 0 l 375 328 l 220 328 m 380 885 l 337 885 l 180 1027 l 216 1072 l 361 967 l 498 1072 l 533 1027 l 380 885 z "},"ř":{"ha":479,"x_min":106,"x_max":456,"o":"m 380 665 q 456 653 421 665 l 456 567 l 452 566 q 380 578 425 578 q 202 403 231 578 l 202 0 l 106 0 l 106 652 l 184 652 l 195 557 q 380 665 248 665 m 304 718 l 260 718 l 109 888 l 151 927 l 284 807 l 410 927 l 452 888 l 304 718 z "},"Ś":{"ha":642,"x_min":69,"x_max":572,"o":"m 498 47 q 461 15 498 47 q 296 -18 425 -18 q 69 41 168 -18 l 69 136 l 73 139 q 296 66 170 66 q 429 104 379 66 q 479 209 479 142 q 435 316 479 275 q 294 402 391 357 q 139 500 196 447 q 82 636 82 553 q 157 800 82 742 q 349 857 233 857 q 552 817 465 857 l 552 727 l 548 726 q 352 775 472 773 q 227 743 275 775 q 178 649 178 711 q 226 553 178 588 q 341 487 274 517 q 440 436 408 456 q 506 385 472 416 q 572 218 572 324 q 498 47 572 111 m 214 891 l 193 945 l 420 1087 l 471 1013 l 465 999 l 214 891 z "},"ś":{"ha":602,"x_min":60,"x_max":547,"o":"m 474 34 q 438 9 474 34 q 274 -16 401 -16 q 60 33 146 -16 l 60 125 l 63 126 q 274 66 154 66 q 453 169 453 66 q 415 243 453 218 q 275 295 378 268 q 121 362 173 322 q 69 484 69 403 q 141 616 69 566 q 327 667 214 667 q 513 634 439 667 l 513 549 l 509 548 q 341 585 429 585 q 208 559 254 585 q 163 490 163 533 q 201 423 163 446 q 341 374 239 400 q 495 304 443 349 q 547 173 547 260 q 474 34 547 85 m 217 718 l 183 766 l 376 947 l 442 879 l 438 865 l 217 718 z "},"Ŝ":{"ha":642,"x_min":69,"x_max":572,"o":"m 498 47 q 461 15 498 47 q 296 -18 425 -18 q 69 41 168 -18 l 69 136 l 73 139 q 296 66 170 66 q 429 104 379 66 q 479 209 479 142 q 435 316 479 275 q 294 402 391 357 q 139 500 196 447 q 82 636 82 553 q 157 800 82 742 q 349 857 233 857 q 552 817 465 857 l 552 727 l 548 726 q 352 775 472 773 q 227 743 275 775 q 178 649 178 711 q 226 553 178 588 q 341 487 274 517 q 440 436 408 456 q 506 385 472 416 q 572 218 572 324 q 498 47 572 111 m 189 891 l 154 938 l 306 1078 l 350 1078 l 507 938 l 470 891 l 326 996 l 189 891 z "},"ŝ":{"ha":602,"x_min":60,"x_max":547,"o":"m 474 34 q 438 9 474 34 q 274 -16 401 -16 q 60 33 146 -16 l 60 125 l 63 126 q 274 66 154 66 q 453 169 453 66 q 415 243 453 218 q 275 295 378 268 q 121 362 173 322 q 69 484 69 403 q 141 616 69 566 q 327 667 214 667 q 513 634 439 667 l 513 549 l 509 548 q 341 585 429 585 q 208 559 254 585 q 163 490 163 533 q 201 423 163 446 q 341 374 239 400 q 495 304 443 349 q 547 173 547 260 q 474 34 547 85 m 173 722 l 132 764 l 279 933 l 323 933 l 475 764 l 433 722 l 299 844 l 173 722 z "},"Ş":{"ha":642,"x_min":69,"x_max":572,"o":"m 349 -62 q 425 -86 394 -62 q 456 -170 456 -111 q 412 -259 456 -229 q 314 -290 369 -290 q 224 -278 259 -290 l 224 -221 l 226 -220 q 290 -230 252 -230 q 349 -214 327 -230 q 371 -168 371 -198 q 311 -116 371 -117 q 252 -126 279 -116 l 252 -123 l 252 -77 l 288 -18 q 69 41 161 -15 l 69 136 l 73 139 q 296 66 170 66 q 429 104 379 66 q 479 209 479 142 q 435 316 479 275 q 294 402 391 357 q 139 500 196 447 q 82 636 82 553 q 157 800 82 742 q 349 857 233 857 q 552 817 465 857 l 552 727 l 548 726 q 352 775 472 773 q 227 743 275 775 q 178 649 178 711 q 226 553 178 588 q 341 487 274 517 q 440 436 408 456 q 506 385 472 416 q 572 223 572 324 q 512 60 572 123 q 352 -15 452 -3 l 322 -66 q 349 -62 331 -62 z "},"ş":{"ha":602,"x_min":60,"x_max":547,"o":"m 494 304 q 520 282 494 304 q 547 178 547 260 q 490 46 547 96 q 334 -14 433 -4 l 302 -66 q 328 -62 312 -62 q 405 -86 374 -62 q 435 -170 435 -111 q 392 -259 435 -228 q 294 -290 349 -290 q 203 -278 239 -290 l 203 -221 l 205 -220 q 270 -230 232 -230 q 330 -214 308 -230 q 351 -168 351 -198 q 290 -116 351 -117 q 233 -126 258 -116 l 231 -123 l 231 -77 l 268 -16 q 60 33 145 -15 l 60 125 l 63 126 q 274 66 154 66 q 453 169 453 66 q 415 243 453 218 q 275 295 378 268 q 121 362 173 322 q 69 484 69 403 q 141 616 69 566 q 327 666 214 666 q 513 634 439 667 l 513 549 l 509 548 q 342 585 430 585 q 208 559 254 585 q 163 490 163 533 q 201 423 163 446 q 340 374 239 400 q 494 304 442 349 z "},"Š":{"ha":642,"x_min":69,"x_max":572,"o":"m 498 47 q 461 15 498 47 q 296 -18 425 -18 q 69 41 168 -18 l 69 136 l 73 139 q 296 66 170 66 q 429 104 379 66 q 479 209 479 142 q 435 316 479 275 q 294 402 391 357 q 139 500 196 447 q 82 636 82 553 q 157 800 82 742 q 349 857 233 857 q 552 817 465 857 l 552 727 l 548 726 q 352 775 472 773 q 227 743 275 775 q 178 649 178 711 q 226 553 178 588 q 341 487 274 517 q 440 436 408 456 q 506 385 472 416 q 572 218 572 324 q 498 47 572 111 m 311 891 l 154 1033 l 189 1078 l 334 973 l 471 1078 l 507 1033 l 353 891 l 311 891 z "},"š":{"ha":602,"x_min":60,"x_max":547,"o":"m 474 34 q 438 9 474 34 q 274 -16 401 -16 q 60 33 146 -16 l 60 125 l 63 126 q 274 66 154 66 q 453 169 453 66 q 415 243 453 218 q 275 295 378 268 q 121 362 173 322 q 69 484 69 403 q 141 616 69 566 q 327 667 214 667 q 513 634 439 667 l 513 549 l 509 548 q 341 585 429 585 q 208 559 254 585 q 163 490 163 533 q 201 423 163 446 q 341 374 239 400 q 495 304 443 349 q 547 173 547 260 q 474 34 547 85 m 283 724 l 132 894 l 173 933 l 307 813 l 433 933 l 475 894 l 327 724 l 283 724 z "},"Ţ":{"ha":699,"x_min":19,"x_max":680,"o":"m 399 0 l 385 0 l 346 -66 q 372 -62 356 -62 q 449 -86 418 -62 q 479 -170 479 -111 q 436 -259 479 -228 q 338 -290 393 -290 q 248 -278 283 -290 l 248 -221 l 250 -220 q 314 -230 277 -230 q 373 -214 351 -230 q 395 -168 395 -198 q 334 -116 395 -117 q 277 -126 302 -116 l 275 -123 l 275 -77 l 322 0 l 306 0 l 306 750 l 19 750 l 19 835 l 680 835 l 680 750 l 399 750 l 399 0 z "},"ţ":{"ha":492,"x_min":29,"x_max":482,"o":"m 324 -66 q 365 -62 333 -62 q 428 -86 397 -62 q 458 -170 458 -111 q 415 -259 458 -229 q 316 -290 371 -290 q 226 -278 262 -290 l 226 -221 l 229 -220 q 292 -230 255 -230 q 352 -214 330 -230 q 374 -168 374 -198 q 313 -116 374 -117 q 255 -126 281 -116 l 254 -123 l 254 -77 l 299 -3 q 154 188 154 19 l 154 572 l 29 572 l 29 652 l 154 652 l 154 812 l 246 829 l 250 827 l 250 652 l 479 652 l 479 572 l 250 572 l 250 205 q 368 78 250 78 q 479 107 428 78 l 482 106 l 482 25 q 360 -6 438 -1 l 324 -66 z "},"Ť":{"ha":699,"x_min":19,"x_max":680,"o":"m 680 835 l 680 750 l 399 750 l 399 0 l 306 0 l 306 750 l 19 750 l 19 835 l 680 835 m 372 885 l 330 885 l 173 1027 l 208 1072 l 353 967 l 490 1072 l 526 1027 l 372 885 z "},"ť":{"ha":472,"x_min":29,"x_max":482,"o":"m 154 188 l 154 572 l 29 572 l 29 652 l 154 652 l 154 812 l 246 829 l 250 827 l 250 652 l 479 652 l 479 572 l 250 572 l 250 205 q 368 78 250 78 q 479 107 429 78 l 482 106 l 482 25 q 340 -6 429 -7 q 203 43 252 -6 q 154 188 154 92 m 444 985 l 409 765 l 359 765 l 369 996 l 434 996 l 444 985 z "},"Ŧ":{"ha":708,"x_min":24,"x_max":684,"o":"m 684 750 l 404 750 l 404 431 l 526 431 l 526 360 l 404 360 l 404 0 l 311 0 l 311 360 l 182 360 l 182 431 l 311 431 l 311 750 l 24 750 l 24 835 l 684 835 l 684 750 z "},"ŧ":{"ha":492,"x_min":29,"x_max":482,"o":"m 154 188 l 154 323 l 39 323 l 39 393 l 154 393 l 154 572 l 29 572 l 29 652 l 154 652 l 154 812 l 246 829 l 250 827 l 250 652 l 479 652 l 479 572 l 250 572 l 250 393 l 382 393 l 382 323 l 250 323 l 250 205 q 368 78 250 78 q 479 107 429 78 l 482 106 l 482 25 q 340 -6 429 -7 q 203 43 252 -6 q 154 188 154 92 z "},"Ũ":{"ha":900,"x_min":115,"x_max":787,"o":"m 699 71 q 654 27 699 71 q 450 -18 610 -18 q 202 70 290 -18 q 115 319 115 158 l 115 835 l 208 835 l 208 332 q 271 133 208 201 q 451 64 334 64 q 631 133 568 64 q 694 332 694 202 l 694 835 l 787 835 l 787 319 q 699 71 787 159 m 285 1005 q 301 1022 285 1005 q 358 1039 317 1039 q 455 1016 400 1039 q 533 992 510 992 q 572 1007 556 992 q 587 1046 587 1021 l 589 1049 l 654 1029 q 620 944 651 976 q 549 911 589 911 q 454 936 510 911 q 373 960 397 960 q 332 944 348 960 q 317 904 317 929 l 315 903 l 250 920 q 285 1005 253 972 z "},"ũ":{"ha":758,"x_min":98,"x_max":652,"o":"m 555 652 l 652 652 l 652 0 l 573 0 l 563 88 q 342 -15 494 -16 q 162 51 227 -15 q 98 249 98 117 l 98 652 l 195 652 l 195 265 q 368 67 195 67 q 483 101 431 67 q 555 199 534 135 l 555 652 m 207 859 q 222 876 207 859 q 280 894 237 894 q 383 869 323 894 q 468 845 443 845 q 508 859 493 845 q 523 898 523 873 l 526 900 l 589 886 q 557 799 589 831 q 484 766 526 766 q 382 791 442 765 q 297 817 322 817 q 257 803 271 817 q 242 763 242 788 l 240 760 l 177 774 q 207 859 177 824 z "},"Ū":{"ha":900,"x_min":115,"x_max":787,"o":"m 699 71 q 654 27 699 71 q 450 -18 610 -18 q 202 70 290 -18 q 115 319 115 158 l 115 835 l 208 835 l 208 332 q 271 133 208 201 q 451 64 334 64 q 631 133 568 64 q 694 332 694 202 l 694 835 l 787 835 l 787 319 q 699 71 787 159 m 273 945 l 273 1024 l 626 1024 l 626 945 l 273 945 z "},"ū":{"ha":758,"x_min":98,"x_max":652,"o":"m 555 652 l 652 652 l 652 0 l 573 0 l 563 88 q 342 -15 494 -16 q 162 51 227 -15 q 98 249 98 117 l 98 652 l 195 652 l 195 265 q 368 67 195 67 q 483 101 431 67 q 555 199 534 135 l 555 652 m 561 856 l 561 784 l 198 784 l 198 856 l 561 856 z "},"Ŭ":{"ha":900,"x_min":115,"x_max":787,"o":"m 699 71 q 654 27 699 71 q 450 -18 610 -18 q 202 70 290 -18 q 115 319 115 158 l 115 835 l 208 835 l 208 332 q 271 133 208 201 q 451 64 334 64 q 631 133 568 64 q 694 332 694 202 l 694 835 l 787 835 l 787 319 q 699 71 787 159 m 573 937 q 549 915 573 937 q 450 892 524 892 q 327 937 375 892 q 279 1058 279 982 l 341 1065 q 375 991 346 1018 q 452 964 404 964 q 531 991 500 964 q 563 1065 562 1019 l 623 1058 q 573 937 623 982 z "},"ŭ":{"ha":758,"x_min":98,"x_max":652,"o":"m 555 652 l 652 652 l 652 0 l 573 0 l 563 88 q 342 -15 494 -16 q 162 51 227 -15 q 98 249 98 117 l 98 652 l 195 652 l 195 265 q 368 67 195 67 q 483 101 431 67 q 555 199 534 135 l 555 652 m 503 776 q 478 752 503 776 q 379 728 453 728 q 256 775 304 728 q 208 903 208 822 l 273 910 l 275 908 q 307 831 278 860 q 381 802 336 802 q 456 831 427 802 q 488 907 486 860 l 490 910 l 552 903 q 503 776 552 823 z "},"Ů":{"ha":900,"x_min":115,"x_max":787,"o":"m 699 71 q 654 27 699 71 q 450 -18 610 -18 q 202 70 290 -18 q 115 319 115 158 l 115 835 l 208 835 l 208 332 q 271 133 208 201 q 451 64 334 64 q 631 133 568 64 q 694 332 694 202 l 694 835 l 787 835 l 787 319 q 699 71 787 159 m 409 930 q 417 921 409 930 q 451 913 425 913 q 492 930 476 913 q 509 971 509 947 q 492 1012 509 995 q 451 1029 476 1029 q 409 1012 425 1029 q 393 971 393 995 q 409 930 393 947 m 533 892 q 517 877 533 892 q 450 861 501 861 q 367 892 399 861 q 334 971 334 923 q 367 1050 334 1019 q 450 1081 399 1081 q 533 1050 501 1081 q 566 971 566 1019 q 533 892 566 923 z "},"ů":{"ha":758,"x_min":98,"x_max":652,"o":"m 555 652 l 652 652 l 652 0 l 573 0 l 563 88 q 342 -15 494 -16 q 162 51 227 -15 q 98 249 98 117 l 98 652 l 195 652 l 195 265 q 368 67 195 67 q 483 101 431 67 q 555 199 534 135 l 555 652 m 426 871 q 417 880 426 871 q 380 889 408 889 q 335 871 353 889 q 317 826 317 852 q 335 781 317 800 q 380 763 353 763 q 426 781 408 763 q 444 826 444 800 q 426 871 444 852 m 466 742 q 449 726 466 742 q 380 709 433 709 q 295 743 328 709 q 261 826 261 777 q 295 908 261 875 q 380 941 328 941 q 466 908 433 941 q 498 826 498 876 q 466 742 498 775 z "},"Ű":{"ha":900,"x_min":115,"x_max":787,"o":"m 699 71 q 654 27 699 71 q 450 -18 610 -18 q 202 70 290 -18 q 115 319 115 158 l 115 835 l 208 835 l 208 332 q 271 133 208 201 q 451 64 334 64 q 631 133 568 64 q 694 332 694 202 l 694 835 l 787 835 l 787 319 q 699 71 787 159 m 568 898 l 515 922 l 605 1109 l 683 1090 l 686 1074 l 568 898 m 341 898 l 288 920 l 376 1109 l 456 1090 l 458 1074 l 341 898 z "},"ű":{"ha":758,"x_min":98,"x_max":652,"o":"m 555 652 l 652 652 l 652 0 l 573 0 l 563 88 q 342 -15 494 -16 q 162 51 227 -15 q 98 249 98 117 l 98 652 l 195 652 l 195 265 q 368 67 195 67 q 483 101 431 67 q 555 199 534 135 l 555 652 m 620 898 l 486 713 l 438 739 l 547 938 l 618 911 l 620 898 m 412 898 l 277 713 l 229 739 l 337 938 l 410 911 l 412 898 z "},"Ų":{"ha":900,"x_min":115,"x_max":787,"o":"m 694 835 l 787 835 l 787 319 q 731 111 787 193 q 572 -1 675 28 q 467 -157 467 -77 q 483 -197 467 -180 q 527 -214 498 -214 q 570 -208 555 -214 l 574 -211 l 574 -273 q 498 -281 549 -281 q 411 -255 446 -281 q 375 -179 375 -229 q 472 -18 375 -91 l 451 -18 q 202 70 290 -18 q 115 319 115 158 l 115 835 l 208 835 l 208 332 q 271 133 208 201 q 452 65 335 65 q 631 133 568 64 q 694 332 694 202 l 694 835 z "},"ų":{"ha":758,"x_min":98,"x_max":652,"o":"m 555 652 l 652 652 l 652 0 l 650 0 q 536 -160 536 -77 q 552 -200 536 -184 q 597 -217 568 -217 q 639 -212 625 -217 l 644 -215 l 644 -277 q 568 -286 619 -286 q 480 -259 516 -286 q 444 -183 444 -233 q 573 0 444 -81 l 563 88 q 342 -15 494 -16 q 162 51 227 -15 q 98 249 98 117 l 98 652 l 195 652 l 195 265 q 368 67 195 67 q 483 101 431 67 q 555 199 534 135 l 555 652 z "},"Ŵ":{"ha":1217,"x_min":22,"x_max":1192,"o":"m 1191 835 l 1192 831 l 916 -15 l 846 -15 l 618 650 l 611 681 l 602 650 l 375 -15 l 304 -15 l 22 831 l 23 835 l 123 835 l 334 165 l 343 119 l 355 165 l 577 831 l 645 831 l 870 173 l 882 125 l 891 173 l 1100 835 l 1191 835 m 604 991 l 467 886 l 432 933 l 583 1074 l 627 1074 l 784 933 l 747 886 l 604 991 z "},"ŵ":{"ha":1013,"x_min":28,"x_max":983,"o":"m 982 652 l 983 648 l 766 0 l 696 0 l 516 509 l 509 535 l 503 509 l 318 0 l 246 0 l 28 648 l 29 652 l 125 652 l 281 149 l 287 121 l 293 149 l 471 652 l 549 652 l 725 151 l 731 123 l 736 151 l 895 652 l 982 652 m 505 844 l 379 722 l 337 764 l 485 933 l 529 933 l 681 764 l 639 722 l 505 844 z "},"Ŷ":{"ha":743,"x_min":19,"x_max":724,"o":"m 326 0 l 326 349 l 19 831 l 20 835 l 120 835 l 375 435 l 627 835 l 722 835 l 724 831 l 419 347 l 419 0 l 326 0 m 231 885 l 196 932 l 347 1072 l 391 1072 l 548 932 l 511 885 l 368 990 l 231 885 z "},"ŷ":{"ha":665,"x_min":24,"x_max":644,"o":"m 138 -214 q 64 -205 113 -214 l 64 -125 l 68 -123 q 121 -132 96 -131 q 227 -98 190 -132 q 300 24 264 -65 l 24 648 l 25 652 l 127 652 l 347 132 l 547 652 l 643 652 l 644 648 l 381 3 q 284 -165 334 -117 q 138 -214 233 -214 m 338 837 l 212 716 l 170 758 l 318 927 l 362 927 l 514 758 l 472 716 l 338 837 z "},"Ÿ":{"ha":743,"x_min":19,"x_max":724,"o":"m 326 0 l 326 349 l 19 831 l 20 835 l 120 835 l 375 435 l 627 835 l 722 835 l 724 831 l 419 347 l 419 0 l 326 0 m 543 939 q 535 931 543 939 q 503 923 526 923 q 462 939 479 923 q 446 980 446 956 q 462 1020 446 1004 q 503 1037 479 1037 q 543 1020 526 1037 q 559 980 559 1004 q 543 939 559 956 m 287 939 q 278 931 287 939 q 246 923 270 923 q 206 939 222 923 q 189 980 189 956 q 206 1020 189 1004 q 246 1037 222 1037 q 287 1020 270 1037 q 303 980 303 1004 q 287 939 303 956 z "},"Ź":{"ha":734,"x_min":45,"x_max":690,"o":"m 45 0 l 45 33 l 553 756 l 50 756 l 50 835 l 684 835 l 684 802 l 172 78 l 690 78 l 690 0 l 45 0 m 249 885 l 229 938 l 456 1081 l 507 1006 l 500 992 l 249 885 z "},"ź":{"ha":645,"x_min":48,"x_max":601,"o":"m 601 82 l 601 0 l 48 0 l 48 43 l 460 570 l 50 570 l 50 652 l 591 652 l 591 606 l 178 82 l 601 82 m 457 859 l 236 711 l 202 760 l 395 941 l 461 873 l 457 859 z "},"Ż":{"ha":734,"x_min":45,"x_max":690,"o":"m 45 0 l 45 33 l 553 756 l 50 756 l 50 835 l 684 835 l 684 802 l 172 78 l 690 78 l 690 0 l 45 0 m 408 942 q 399 933 408 942 q 365 924 390 924 q 322 942 340 924 q 304 985 304 960 q 323 1028 304 1010 q 366 1046 341 1046 q 408 1029 390 1046 q 427 985 427 1011 q 408 942 427 960 z "},"ż":{"ha":645,"x_min":48,"x_max":601,"o":"m 601 82 l 601 0 l 48 0 l 48 43 l 460 570 l 50 570 l 50 652 l 591 652 l 591 606 l 178 82 l 601 82 m 367 795 q 357 785 367 795 q 321 775 347 775 q 275 795 294 775 q 255 842 255 814 q 275 888 255 869 q 321 907 294 907 q 367 888 347 907 q 387 842 387 869 q 367 795 387 814 z "},"Ž":{"ha":734,"x_min":45,"x_max":690,"o":"m 45 0 l 45 33 l 553 756 l 50 756 l 50 835 l 684 835 l 684 802 l 172 78 l 690 78 l 690 0 l 45 0 m 346 885 l 189 1027 l 224 1072 l 370 967 l 507 1072 l 542 1027 l 389 885 l 346 885 z "},"ž":{"ha":645,"x_min":48,"x_max":601,"o":"m 601 82 l 601 0 l 48 0 l 48 43 l 460 570 l 50 570 l 50 652 l 591 652 l 591 606 l 178 82 l 601 82 m 346 718 l 302 718 l 151 888 l 192 927 l 326 807 l 452 927 l 494 888 l 346 718 z "},"Ə":{"ha":976,"x_min":110,"x_max":869,"o":"m 289 145 q 327 106 289 145 q 486 67 365 67 q 681 142 607 67 q 768 359 754 217 l 208 359 q 289 145 213 222 m 179 753 q 478 851 304 851 q 760 741 652 851 q 869 426 869 630 q 762 103 869 222 q 485 -16 655 -16 q 212 92 315 -16 q 110 384 110 201 q 111 441 110 425 l 770 441 q 689 681 766 596 q 470 765 612 765 q 183 669 327 765 l 179 673 l 179 753 z "},"Ɲ":{"ha":932,"x_min":-92,"x_max":807,"o":"m 716 835 l 807 835 l 807 -4 l 769 -4 l 220 644 l 217 644 l 217 45 q -28 -243 217 -243 q -92 -239 -62 -243 l -92 -160 l -91 -159 q -39 -163 -68 -163 q 126 39 126 -163 l 126 837 l 165 837 l 712 192 l 716 192 l 716 835 z "},"Ǧ":{"ha":880,"x_min":68,"x_max":803,"o":"m 803 403 l 803 60 q 482 -12 671 -12 q 181 102 293 -12 q 68 412 68 216 q 192 729 68 609 q 520 848 315 848 q 768 802 659 848 l 766 709 l 763 708 q 507 762 656 762 q 262 667 357 762 q 167 414 167 571 q 253 165 167 258 q 501 73 340 73 q 718 119 627 73 l 718 322 l 496 322 l 496 403 l 803 403 m 511 885 l 469 885 l 312 1027 l 347 1072 l 492 967 l 629 1072 l 664 1027 l 511 885 z "},"ǧ":{"ha":704,"x_min":54,"x_max":662,"o":"m 571 -38 q 513 39 571 18 q 371 63 466 55 q 252 78 277 75 q 142 -44 142 28 q 357 -141 142 -141 q 571 -38 571 -142 m 458 345 q 480 362 458 345 q 503 444 503 380 q 457 543 503 507 q 339 578 412 578 q 222 543 267 578 q 177 444 177 507 q 222 347 177 381 q 340 311 267 312 q 458 345 413 311 m 662 652 l 662 580 l 517 580 q 593 437 593 526 q 522 294 593 349 q 338 239 450 239 q 222 258 273 239 q 199 212 199 240 q 236 171 199 184 q 401 146 273 158 q 595 98 530 135 q 659 -26 659 60 q 346 -216 659 -216 q 135 -178 216 -216 q 54 -52 54 -140 q 172 100 54 37 q 111 185 111 127 q 165 287 111 243 q 85 441 85 344 q 156 595 85 538 q 340 652 227 652 l 662 652 m 359 724 l 315 724 l 163 894 l 205 933 l 338 813 l 465 933 l 507 894 l 359 724 z "},"Ǫ":{"ha":995,"x_min":68,"x_max":927,"o":"m 259 672 q 213 625 259 672 q 167 417 167 578 q 259 161 167 255 q 498 67 351 67 q 736 161 644 67 q 828 417 828 255 q 736 672 828 578 q 498 766 644 766 q 259 672 351 766 m 495 -164 q 511 -204 495 -188 q 555 -221 526 -221 q 597 -216 583 -221 l 602 -218 l 602 -280 q 526 -289 577 -289 q 439 -262 475 -289 q 403 -187 403 -236 q 510 -18 403 -94 l 498 -18 q 192 99 315 -18 q 68 415 68 215 q 190 733 68 616 q 496 851 312 851 q 804 735 681 851 q 927 416 927 618 q 839 137 927 248 q 605 -6 750 26 q 495 -164 495 -82 z "},"ǫ":{"ha":796,"x_min":63,"x_max":734,"o":"m 226 514 q 193 479 226 514 q 160 326 160 444 q 226 138 160 208 q 397 67 292 67 q 569 138 503 67 q 635 326 635 208 q 569 514 635 444 q 397 583 503 583 q 226 514 292 583 m 413 -197 q 421 -205 413 -197 q 457 -214 429 -214 q 500 -208 486 -214 l 505 -211 l 505 -273 q 429 -281 480 -281 q 341 -255 377 -281 q 306 -179 306 -229 q 404 -16 306 -88 l 397 -16 q 158 75 253 -16 q 63 323 63 165 q 160 574 63 481 q 400 667 256 667 q 638 576 543 667 q 734 326 734 486 q 671 116 734 202 q 504 -1 608 31 q 397 -157 398 -76 q 413 -197 397 -180 z "},"Ǻ":{"ha":799,"x_min":16,"x_max":789,"o":"m 233 296 l 562 296 l 407 654 l 394 690 l 381 654 l 233 296 m 690 0 l 595 221 l 202 221 l 110 0 l 16 0 l 378 847 l 416 847 l 789 0 l 690 0 m 437 1012 q 429 1020 437 1012 q 395 1029 420 1029 q 354 1012 370 1029 q 337 971 337 995 q 354 930 337 947 q 395 913 370 913 q 437 930 420 913 q 453 971 453 947 q 437 1012 453 995 m 478 892 q 462 877 478 892 q 395 861 446 861 q 311 892 344 861 q 279 971 279 923 q 311 1050 279 1019 q 394 1081 343 1081 q 479 1049 445 1081 l 669 1168 l 720 1093 l 713 1080 l 509 992 q 510 971 510 985 q 478 892 510 923 z "},"ǻ":{"ha":712,"x_min":50,"x_max":687,"o":"m 278 64 q 494 184 420 64 l 494 274 q 338 302 428 302 q 198 271 249 302 q 146 181 146 240 q 184 94 146 123 q 278 64 222 64 m 494 391 q 283 586 494 586 q 114 542 179 586 l 111 543 l 111 620 q 312 667 180 667 q 516 597 444 667 q 587 395 587 528 l 587 149 q 639 81 587 81 q 683 96 667 81 l 687 95 l 687 13 q 608 -7 654 -7 q 500 100 504 -7 q 260 -15 412 -15 q 110 35 170 -15 q 50 180 50 85 q 127 326 50 275 q 313 376 203 376 q 494 349 422 376 l 494 391 m 370 871 q 361 880 370 871 q 325 889 352 889 q 279 871 298 889 q 261 826 261 852 q 279 781 261 800 q 325 763 298 763 q 370 781 352 763 q 389 826 389 800 q 370 871 389 852 m 410 743 q 394 726 410 743 q 325 709 377 709 q 239 743 273 709 q 205 826 205 777 q 239 908 205 875 q 316 941 273 941 q 387 926 359 941 l 551 1080 l 616 1011 l 612 998 l 432 878 q 443 826 444 854 q 410 743 443 776 z "},"Ǽ":{"ha":1034,"x_min":-28,"x_max":971,"o":"m 517 323 l 517 730 l 458 623 l 271 323 l 517 323 m 612 79 l 971 79 l 971 0 l 517 0 l 517 255 l 229 255 l 69 0 l -28 0 l 492 835 l 955 835 l 955 756 l 612 756 l 612 472 l 930 472 l 930 394 l 612 394 l 612 79 m 763 998 l 511 890 l 491 943 l 718 1086 l 769 1011 l 763 998 z "},"ǽ":{"ha":1135,"x_min":50,"x_max":1065,"o":"m 179 94 q 197 80 179 94 q 280 66 215 66 q 407 100 345 66 q 504 197 469 135 q 486 304 490 247 q 168 241 229 304 q 142 168 142 214 q 179 94 142 121 m 917 535 q 892 562 917 535 q 785 589 867 589 q 648 533 703 589 q 581 378 593 477 l 972 378 q 917 535 966 480 m 484 391 q 278 586 484 586 q 107 542 175 586 l 104 544 l 104 620 q 304 667 165 667 q 543 534 484 667 q 646 631 584 596 q 781 667 707 667 q 989 583 913 667 q 1065 349 1065 498 l 1065 304 l 580 304 q 653 130 586 192 q 826 68 720 68 q 1025 125 933 68 l 1029 123 l 1029 39 q 809 -16 934 -16 q 650 20 722 -16 q 535 127 577 56 q 255 -15 430 -15 q 105 32 161 -15 q 50 168 50 79 q 177 337 50 293 q 484 378 288 375 l 484 391 m 696 859 l 475 711 l 441 760 l 634 941 l 699 873 l 696 859 z "},"Ǿ":{"ha":995,"x_min":68,"x_max":927,"o":"m 736 161 q 782 208 736 161 q 828 407 828 255 q 754 652 828 559 l 296 129 q 498 67 379 67 q 736 161 644 67 m 259 672 q 213 625 259 672 q 167 427 167 578 q 240 183 167 276 l 697 706 q 498 766 612 766 q 259 672 351 766 m 927 856 l 927 848 l 816 722 q 927 410 927 602 q 805 100 927 218 q 498 -18 683 -18 q 236 62 347 -18 l 163 -22 l 68 -22 l 68 -12 l 177 113 q 68 424 68 231 q 190 733 68 616 q 498 851 312 851 q 758 774 647 851 l 829 856 l 927 856 m 635 992 l 384 885 l 363 938 l 591 1081 l 642 1006 l 635 992 z "},"ǿ":{"ha":799,"x_min":64,"x_max":735,"o":"m 397 67 q 570 138 503 67 q 636 318 636 208 q 587 495 636 428 l 261 109 q 397 67 318 67 m 227 514 q 194 479 227 514 q 161 336 161 444 q 210 159 161 227 l 534 545 q 397 583 475 583 q 227 514 292 583 m 397 -16 q 203 39 285 -16 l 153 -20 l 68 -20 l 68 -10 l 149 86 q 64 329 64 177 q 161 574 64 481 q 397 667 258 667 q 592 614 509 667 l 639 671 l 728 671 l 728 663 l 648 568 q 735 322 734 475 q 638 77 735 170 q 397 -16 541 -16 m 536 859 l 315 711 l 281 760 l 475 941 l 541 873 l 536 859 z "},"Ș":{"ha":642,"x_min":69,"x_max":572,"o":"m 277 -116 l 275 -66 l 363 -58 l 372 -69 q 318 -283 372 -182 l 254 -283 q 277 -116 277 -207 m 498 47 q 461 15 498 47 q 296 -18 425 -18 q 69 41 168 -18 l 69 136 l 73 139 q 296 66 170 66 q 429 104 379 66 q 479 209 479 142 q 435 316 479 275 q 294 402 391 357 q 139 500 196 447 q 82 636 82 553 q 157 800 82 742 q 349 857 233 857 q 552 817 465 857 l 552 727 l 548 726 q 352 775 472 773 q 227 743 275 775 q 178 649 178 711 q 226 553 178 588 q 341 487 274 517 q 440 436 408 456 q 506 385 472 416 q 572 218 572 324 q 498 47 572 111 z "},"ș":{"ha":602,"x_min":60,"x_max":547,"o":"m 256 -116 l 255 -66 l 343 -58 l 352 -69 q 298 -283 352 -182 l 233 -283 q 256 -116 256 -207 m 474 34 q 438 9 474 34 q 274 -16 401 -16 q 60 33 146 -16 l 60 125 l 63 126 q 274 66 154 66 q 453 169 453 66 q 415 243 453 218 q 275 295 378 268 q 121 362 173 322 q 69 484 69 403 q 141 616 69 566 q 327 667 214 667 q 513 634 439 667 l 513 549 l 509 548 q 341 585 429 585 q 208 559 254 585 q 163 490 163 533 q 201 423 163 446 q 341 374 239 400 q 495 304 443 349 q 547 173 547 260 q 474 34 547 85 z "},"Ț":{"ha":699,"x_min":19,"x_max":680,"o":"m 300 -116 l 299 -66 l 388 -58 l 397 -69 q 342 -283 397 -182 l 278 -283 q 300 -116 301 -207 m 680 835 l 680 750 l 399 750 l 399 0 l 306 0 l 306 750 l 19 750 l 19 835 l 680 835 z "},"ț":{"ha":492,"x_min":29,"x_max":482,"o":"m 279 -116 l 278 -66 l 366 -58 l 375 -69 q 321 -283 375 -182 l 256 -283 q 279 -116 279 -207 m 154 188 l 154 572 l 29 572 l 29 652 l 154 652 l 154 812 l 246 829 l 250 827 l 250 652 l 479 652 l 479 572 l 250 572 l 250 205 q 368 78 250 78 q 479 107 429 78 l 482 106 l 482 25 q 340 -6 429 -7 q 203 43 252 -6 q 154 188 154 92 z "},"Ȳ":{"ha":743,"x_min":19,"x_max":724,"o":"m 326 0 l 326 349 l 19 831 l 20 835 l 120 835 l 375 435 l 627 835 l 722 835 l 724 831 l 419 347 l 419 0 l 326 0 m 195 945 l 195 1024 l 548 1024 l 548 945 l 195 945 z "},"ȳ":{"ha":665,"x_min":24,"x_max":644,"o":"m 138 -214 q 64 -205 113 -214 l 64 -125 l 68 -123 q 121 -132 96 -131 q 227 -98 190 -132 q 300 24 264 -65 l 24 648 l 25 652 l 127 652 l 347 132 l 547 652 l 643 652 l 644 648 l 381 3 q 284 -165 334 -117 q 138 -214 233 -214 m 522 856 l 522 784 l 159 784 l 159 856 l 522 856 z "},"ȷ":{"ha":329,"x_min":-50,"x_max":224,"o":"m 13 -214 q -50 -207 -11 -214 l -50 -125 l -45 -123 q -5 -127 -26 -127 q 129 35 129 -127 l 129 652 l 224 652 l 224 15 q 13 -214 224 -214 z "},"ə":{"ha":718,"x_min":58,"x_max":654,"o":"m 342 66 q 482 117 424 66 q 554 267 541 168 l 151 267 q 210 118 160 171 q 342 66 260 65 m 339 668 q 565 581 476 667 q 654 331 654 494 q 566 76 654 168 q 345 -15 479 -15 q 134 66 210 -15 q 58 300 59 146 q 60 345 58 330 l 558 345 q 492 521 553 458 q 346 583 431 583 q 208 565 261 583 q 100 503 154 547 l 96 504 l 96 589 q 339 668 202 668 z "},"ɲ":{"ha":775,"x_min":-38,"x_max":678,"o":"m 420 667 q 606 594 534 667 q 678 379 678 522 l 678 0 l 583 0 l 583 355 q 531 522 583 469 q 404 574 479 574 q 277 538 328 574 q 202 438 225 501 l 202 -32 q 3 -250 202 -250 q -38 -248 -7 -250 l -38 -169 l -35 -168 q -18 -169 -28 -170 q 77 -134 47 -169 q 106 -16 106 -98 l 106 652 l 184 652 l 196 553 q 420 667 269 667 z "},"ˆ":{"ha":420,"x_min":39,"x_max":382,"o":"m 81 716 l 39 758 l 187 927 l 231 927 l 382 758 l 341 716 l 207 837 l 81 716 z "},"ˇ":{"ha":420,"x_min":43,"x_max":380,"o":"m 196 664 l 43 841 l 75 873 l 212 743 l 349 873 l 380 841 l 227 664 l 196 664 z "},"˘":{"ha":400,"x_min":29,"x_max":372,"o":"m 323 776 q 299 752 323 776 q 199 728 274 728 q 77 775 125 728 q 29 903 29 822 l 94 910 l 96 908 q 127 831 98 860 q 202 802 157 802 q 277 831 248 802 q 308 907 307 860 l 311 910 l 372 903 q 323 776 372 823 z "},"˙":{"ha":345,"x_min":106,"x_max":237,"o":"m 218 795 q 208 785 218 795 q 172 775 198 775 q 125 795 145 775 q 106 842 106 814 q 125 888 106 869 q 172 907 145 907 q 218 888 198 907 q 237 842 237 869 q 218 795 237 814 z "},"˚":{"ha":414,"x_min":60,"x_max":298,"o":"m 134 781 q 143 772 134 781 q 180 763 153 763 q 225 781 207 763 q 243 826 243 800 q 225 871 243 852 q 180 889 207 889 q 134 871 153 889 q 116 826 116 852 q 134 781 116 800 m 265 742 q 248 726 265 742 q 180 709 232 709 q 94 743 127 709 q 60 826 60 777 q 94 908 60 875 q 180 941 127 941 q 265 908 232 941 q 298 826 298 876 q 265 742 298 775 z "},"˛":{"ha":238,"x_min":18,"x_max":224,"o":"m 217 -273 q 141 -281 193 -281 q 54 -255 90 -281 q 18 -179 18 -229 q 157 10 18 -71 l 224 5 q 110 -157 110 -73 q 125 -197 110 -180 q 170 -213 141 -213 q 212 -208 198 -213 l 217 -211 l 217 -273 z "},"˜":{"ha":440,"x_min":16,"x_max":428,"o":"m 47 859 q 62 876 47 859 q 119 894 77 894 q 222 869 161 894 q 308 845 283 845 q 347 859 332 845 q 362 898 362 873 l 366 900 l 428 886 q 396 799 428 831 q 323 766 365 766 q 221 791 281 765 q 136 817 161 817 q 96 803 111 817 q 82 763 82 788 l 79 760 l 16 774 q 47 859 16 824 z "},"˝":{"ha":447,"x_min":28,"x_max":419,"o":"m 286 713 l 237 739 l 346 938 l 418 911 l 419 898 l 286 713 m 76 713 l 28 739 l 136 938 l 210 911 l 211 898 l 76 713 z "},"̀":{"ha":0,"x_min":-279,"x_max":-20,"o":"m -54 711 l -277 859 l -279 873 l -214 941 l -20 760 l -54 711 z "},"́":{"ha":0,"x_min":-279,"x_max":-20,"o":"m -245 711 l -279 760 l -86 941 l -20 873 l -24 859 l -245 711 z "},"̂":{"ha":0,"x_min":-381,"x_max":-38,"o":"m -340 716 l -381 758 l -233 927 l -189 927 l -38 758 l -79 716 l -214 837 l -340 716 z "},"̃":{"ha":0,"x_min":-425,"x_max":-13,"o":"m -394 859 q -379 876 -394 859 q -321 894 -363 894 q -219 869 -279 894 q -134 845 -159 845 q -93 859 -109 845 q -78 898 -78 873 l -75 900 l -13 886 q -44 799 -13 831 q -117 766 -76 766 q -219 791 -159 765 q -304 817 -279 817 q -344 803 -330 817 q -359 763 -359 788 l -361 760 l -425 774 q -394 859 -425 824 z "},"̄":{"ha":0,"x_min":-391,"x_max":-29,"o":"m -391 784 l -391 856 l -29 856 l -29 784 l -391 784 z "},"̆":{"ha":0,"x_min":-371,"x_max":-28,"o":"m -77 776 q -102 752 -77 776 q -201 728 -126 728 q -323 775 -275 728 q -371 903 -371 822 l -307 910 l -304 908 q -273 831 -302 860 q -198 802 -243 802 q -123 831 -153 802 q -92 907 -94 860 l -90 910 l -28 903 q -77 776 -28 823 z "},"̇":{"ha":0,"x_min":-239,"x_max":-107,"o":"m -127 795 q -137 785 -127 795 q -173 775 -146 775 q -219 795 -199 775 q -239 842 -239 814 q -219 888 -239 869 q -173 907 -199 907 q -127 888 -146 907 q -107 842 -107 869 q -127 795 -107 814 z "},"̈":{"ha":0,"x_min":-375,"x_max":-6,"o":"m -25 796 q -35 787 -25 796 q -70 778 -44 778 q -114 796 -96 778 q -132 840 -132 814 q -114 884 -132 866 q -70 903 -96 903 q -25 884 -44 903 q -6 840 -6 865 q -25 796 -6 814 m -268 796 q -277 787 -268 796 q -313 778 -287 778 q -357 796 -338 778 q -375 840 -375 814 q -357 884 -375 866 q -313 903 -338 903 q -268 884 -287 903 q -249 840 -249 866 q -268 796 -249 814 z "},"̊":{"ha":0,"x_min":-298,"x_max":-60,"o":"m -224 781 q -215 772 -224 781 q -178 763 -205 763 q -133 781 -151 763 q -115 826 -115 800 q -133 871 -115 852 q -178 889 -151 889 q -224 871 -205 889 q -242 826 -242 852 q -224 781 -242 800 m -93 742 q -110 726 -93 742 q -178 709 -126 709 q -264 743 -231 709 q -298 826 -298 777 q -264 908 -298 875 q -179 941 -231 941 q -93 908 -126 941 q -60 826 -60 876 q -93 742 -60 775 z "},"̋":{"ha":0,"x_min":-419,"x_max":-28,"o":"m -161 713 l -210 739 l -101 938 l -29 911 l -28 898 l -161 713 m -371 713 l -419 739 l -311 938 l -237 911 l -236 898 l -371 713 z "},"̌":{"ha":0,"x_min":-381,"x_max":-38,"o":"m -230 718 l -381 888 l -340 927 l -205 807 l -79 927 l -38 888 l -186 718 l -230 718 z "},"̒":{"ha":0,"x_min":-151,"x_max":-33,"o":"m -56 775 l -54 725 l -142 718 l -151 728 q -97 942 -151 841 l -33 942 q -56 775 -56 866 z "},"̣":{"ha":0,"x_min":-239,"x_max":-107,"o":"m -127 -212 q -137 -221 -127 -212 q -173 -231 -146 -231 q -219 -212 -199 -231 q -239 -165 -239 -192 q -219 -119 -239 -138 q -173 -100 -199 -100 q -127 -119 -146 -100 q -107 -165 -107 -138 q -127 -212 -107 -192 z "},"̦":{"ha":0,"x_min":-173,"x_max":-54,"o":"m -151 -116 l -151 -66 l -63 -58 l -54 -69 q -109 -283 -54 -182 l -173 -283 q -151 -116 -150 -207 z "},"̧":{"ha":0,"x_min":-241,"x_max":-9,"o":"m -52 -259 q -74 -275 -52 -259 q -151 -290 -96 -290 q -241 -278 -205 -290 l -241 -221 l -239 -220 q -175 -230 -212 -230 q -116 -214 -138 -230 q -94 -168 -94 -198 q -154 -116 -94 -117 q -212 -126 -186 -116 l -214 -123 l -214 -77 l -167 0 l -104 0 l -142 -66 q -116 -62 -134 -62 q -40 -86 -71 -62 q -9 -170 -9 -111 q -52 -259 -9 -229 z "},"̨":{"ha":0,"x_min":-231,"x_max":-24,"o":"m -32 -273 q -108 -281 -57 -281 q -195 -255 -159 -281 q -231 -179 -231 -229 q -92 10 -231 -71 l -24 5 q -139 -157 -138 -73 q -123 -197 -139 -180 q -79 -214 -107 -214 q -37 -208 -51 -214 l -32 -211 l -32 -273 z "},"̵":{"ha":0,"x_min":-379,"x_max":-35,"o":"m -379 240 l -379 309 l -35 309 l -35 240 l -379 240 z "},"̶":{"ha":0,"x_min":-718,"x_max":-32,"o":"m -718 412 l -718 485 l -32 485 l -32 412 l -718 412 z "},"̷":{"ha":0,"x_min":-313,"x_max":-25,"o":"m -313 322 l -313 404 l -29 582 l -25 582 l -25 501 l -308 322 l -313 322 z "},"̸":{"ha":0,"x_min":-712,"x_max":-53,"o":"m -712 -16 l -712 -6 l -142 673 l -53 673 l -53 665 l -629 -16 l -712 -16 z "},"Ẁ":{"ha":1217,"x_min":22,"x_max":1192,"o":"m 1191 835 l 1192 831 l 916 -15 l 846 -15 l 618 650 l 611 681 l 602 650 l 375 -15 l 304 -15 l 22 831 l 23 835 l 123 835 l 334 165 l 343 119 l 355 165 l 577 831 l 645 831 l 870 173 l 882 125 l 891 173 l 1100 835 l 1191 835 m 716 886 l 463 994 l 457 1008 l 507 1082 l 735 941 l 716 886 z "},"ẁ":{"ha":1013,"x_min":28,"x_max":983,"o":"m 982 652 l 983 648 l 766 0 l 696 0 l 516 509 l 509 535 l 503 509 l 318 0 l 246 0 l 28 648 l 29 652 l 125 652 l 281 149 l 287 121 l 293 149 l 471 652 l 549 652 l 725 151 l 731 123 l 736 151 l 895 652 l 982 652 m 586 718 l 363 865 l 361 879 l 427 947 l 620 766 l 586 718 z "},"Ẃ":{"ha":1217,"x_min":22,"x_max":1192,"o":"m 1191 835 l 1192 831 l 916 -15 l 846 -15 l 618 650 l 611 681 l 602 650 l 375 -15 l 304 -15 l 22 831 l 23 835 l 123 835 l 334 165 l 343 119 l 355 165 l 577 831 l 645 831 l 870 173 l 882 125 l 891 173 l 1100 835 l 1191 835 m 743 994 l 491 886 l 471 939 l 699 1082 l 749 1008 l 743 994 z "},"ẃ":{"ha":1013,"x_min":28,"x_max":983,"o":"m 982 652 l 983 648 l 766 0 l 696 0 l 516 509 l 509 535 l 503 509 l 318 0 l 246 0 l 28 648 l 29 652 l 125 652 l 281 149 l 287 121 l 293 149 l 471 652 l 549 652 l 725 151 l 731 123 l 736 151 l 895 652 l 982 652 m 644 865 l 423 718 l 389 766 l 582 947 l 648 879 l 644 865 z "},"Ẅ":{"ha":1217,"x_min":22,"x_max":1192,"o":"m 1191 835 l 1192 831 l 916 -15 l 846 -15 l 618 650 l 611 681 l 602 650 l 375 -15 l 304 -15 l 22 831 l 23 835 l 123 835 l 334 165 l 343 119 l 355 165 l 577 831 l 645 831 l 870 173 l 882 125 l 891 173 l 1100 835 l 1191 835 m 779 941 q 771 932 779 941 q 739 924 763 924 q 698 941 715 924 q 682 981 682 957 q 698 1021 682 1005 q 739 1038 715 1038 q 779 1021 763 1038 q 795 981 795 1005 q 779 941 795 957 m 523 941 q 515 932 523 941 q 483 924 507 924 q 442 941 458 924 q 425 981 425 957 q 442 1021 425 1005 q 483 1038 458 1038 q 523 1021 507 1038 q 539 981 539 1005 q 523 941 539 957 z "},"ẅ":{"ha":1013,"x_min":28,"x_max":983,"o":"m 982 652 l 983 648 l 766 0 l 696 0 l 516 509 l 509 535 l 503 509 l 318 0 l 246 0 l 28 648 l 29 652 l 125 652 l 281 149 l 287 121 l 293 149 l 471 652 l 549 652 l 725 151 l 731 123 l 736 151 l 895 652 l 982 652 m 678 802 q 669 793 678 802 q 633 784 659 784 q 589 802 608 784 q 571 846 571 821 q 589 891 571 872 q 633 909 608 909 q 678 890 659 909 q 697 846 697 871 q 678 802 697 821 m 435 802 q 426 793 435 802 q 391 784 416 784 q 347 802 365 784 q 328 846 328 821 q 347 891 328 872 q 391 909 365 909 q 435 891 416 909 q 454 847 454 873 q 435 802 454 821 z "},"ẞ":{"ha":920,"x_min":113,"x_max":865,"o":"m 794 51 q 759 16 794 51 q 601 -19 724 -19 q 389 26 478 -19 l 389 111 l 391 114 q 578 61 482 61 q 722 109 674 60 q 770 233 770 157 q 630 397 770 366 q 477 407 574 410 l 477 435 l 668 749 q 527 766 608 766 q 394 752 446 766 q 299 704 343 737 q 205 458 205 633 l 205 0 l 113 0 l 113 465 q 137 624 113 554 q 200 735 161 693 q 538 852 307 852 q 784 802 686 852 l 784 774 l 600 484 q 789 422 713 479 q 865 242 865 365 q 794 51 865 120 z "},"Ạ":{"ha":799,"x_min":16,"x_max":789,"o":"m 353 -119 q 363 -109 353 -119 q 399 -100 372 -100 q 445 -119 425 -100 q 465 -165 465 -138 q 445 -212 465 -192 q 399 -231 425 -231 q 353 -212 372 -231 q 334 -165 334 -192 q 353 -119 334 -138 m 233 296 l 562 296 l 407 654 l 394 690 l 381 654 l 233 296 m 789 0 l 690 0 l 595 221 l 202 221 l 110 0 l 16 0 l 378 847 l 416 847 l 789 0 z "},"ạ":{"ha":712,"x_min":50,"x_max":687,"o":"m 305 -119 q 315 -109 305 -119 q 351 -100 324 -100 q 397 -119 378 -100 q 416 -165 416 -138 q 397 -212 416 -192 q 351 -231 378 -231 q 305 -212 324 -231 q 286 -165 286 -192 q 305 -119 286 -138 m 278 64 q 494 184 420 64 l 494 274 q 338 302 428 302 q 198 271 249 302 q 146 181 146 240 q 184 94 146 123 q 278 64 222 64 m 494 391 q 283 586 494 586 q 114 542 179 586 l 111 543 l 111 620 q 312 667 180 667 q 516 597 444 667 q 587 395 587 528 l 587 149 q 639 81 587 81 q 683 96 667 81 l 687 95 l 687 13 q 608 -7 654 -7 q 500 100 504 -7 q 260 -15 412 -15 q 110 35 170 -15 q 50 180 50 85 q 127 326 50 275 q 313 376 203 376 q 494 349 422 376 l 494 391 z "},"Ẹ":{"ha":694,"x_min":126,"x_max":633,"o":"m 355 -119 q 365 -109 355 -119 q 401 -100 375 -100 q 448 -119 428 -100 q 467 -165 467 -138 q 448 -212 467 -192 q 401 -231 428 -231 q 355 -212 375 -231 q 336 -165 336 -192 q 355 -119 336 -138 m 221 87 l 633 87 l 633 0 l 126 0 l 126 835 l 616 835 l 616 747 l 221 747 l 221 473 l 592 473 l 592 387 l 221 387 l 221 87 z "},"ẹ":{"ha":721,"x_min":63,"x_max":663,"o":"m 363 -119 q 373 -109 363 -119 q 409 -100 382 -100 q 455 -119 435 -100 q 475 -165 475 -138 q 455 -212 475 -192 q 409 -231 435 -231 q 363 -212 382 -231 q 343 -165 343 -192 q 363 -119 343 -138 m 510 533 q 485 559 510 533 q 376 586 460 586 q 236 533 293 586 q 164 385 178 479 l 570 385 q 510 533 561 480 m 152 572 q 197 620 152 572 q 376 667 241 667 q 586 583 510 667 q 663 351 662 500 q 662 307 663 322 l 160 307 q 239 130 166 192 q 419 67 312 67 q 623 119 526 67 l 626 117 l 626 38 q 398 -16 534 -16 q 162 71 262 -16 q 63 318 63 158 q 152 572 63 478 z "},"Ẽ":{"ha":694,"x_min":126,"x_max":633,"o":"m 221 87 l 633 87 l 633 0 l 126 0 l 126 835 l 616 835 l 616 747 l 221 747 l 221 473 l 592 473 l 592 387 l 221 387 l 221 87 m 222 1005 q 238 1022 222 1005 q 295 1039 254 1039 q 392 1016 337 1039 q 470 992 447 992 q 508 1007 492 992 q 524 1046 524 1021 l 526 1049 l 591 1029 q 557 944 588 976 q 486 911 526 911 q 391 936 447 911 q 310 960 334 960 q 269 944 285 960 q 254 904 254 929 l 252 903 l 187 920 q 222 1005 190 972 z "},"ẽ":{"ha":721,"x_min":63,"x_max":663,"o":"m 510 533 q 485 559 510 533 q 376 586 460 586 q 236 533 293 586 q 164 385 178 479 l 570 385 q 510 533 561 480 m 152 572 q 197 620 152 572 q 376 667 241 667 q 586 583 510 667 q 663 351 662 500 q 662 307 663 322 l 160 307 q 239 130 166 192 q 419 67 312 67 q 623 119 526 67 l 626 117 l 626 38 q 398 -16 534 -16 q 162 71 262 -16 q 63 318 63 158 q 152 572 63 478 m 198 859 q 213 876 198 859 q 271 894 229 894 q 374 869 313 894 q 459 845 434 845 q 499 859 484 845 q 514 898 514 873 l 517 900 l 580 886 q 548 799 580 831 q 475 766 516 766 q 373 791 433 765 q 288 817 313 817 q 248 803 262 817 q 233 763 233 788 l 231 760 l 168 774 q 198 859 168 824 z "},"Ị":{"ha":346,"x_min":109,"x_max":240,"o":"m 220 -212 q 211 -221 220 -212 q 174 -231 201 -231 q 128 -212 148 -231 q 109 -165 109 -192 q 128 -119 109 -138 q 174 -100 148 -100 q 220 -119 201 -100 q 240 -165 240 -138 q 220 -212 240 -192 m 126 0 l 126 835 l 221 835 l 221 0 l 126 0 z "},"ị":{"ha":308,"x_min":88,"x_max":220,"o":"m 200 -212 q 190 -221 200 -212 q 154 -231 180 -231 q 108 -212 127 -231 q 88 -165 88 -192 q 108 -119 88 -138 q 154 -100 127 -100 q 200 -119 180 -100 q 220 -165 220 -138 q 200 -212 220 -192 m 106 0 l 106 652 l 202 652 l 202 0 l 106 0 m 200 795 q 190 785 200 795 q 154 775 180 775 q 108 795 127 775 q 88 842 88 814 q 108 888 88 869 q 154 907 127 907 q 200 888 180 907 q 220 842 220 869 q 200 795 220 814 z "},"Ọ":{"ha":995,"x_min":68,"x_max":927,"o":"m 544 -212 q 534 -221 544 -212 q 497 -231 524 -231 q 451 -212 471 -231 q 432 -165 432 -192 q 451 -119 432 -138 q 497 -100 471 -100 q 544 -119 524 -100 q 563 -165 563 -138 q 544 -212 563 -192 m 259 161 q 305 114 259 161 q 498 67 351 67 q 736 161 644 67 q 828 417 828 255 q 736 672 828 578 q 498 766 644 766 q 259 672 351 766 q 167 417 167 578 q 259 161 167 255 m 805 100 q 744 41 805 100 q 499 -18 684 -18 q 192 99 315 -18 q 68 415 68 215 q 190 733 68 616 q 496 851 312 851 q 804 735 681 851 q 927 418 927 618 q 805 100 927 218 z "},"ọ":{"ha":796,"x_min":63,"x_max":734,"o":"m 445 -212 q 435 -221 445 -212 q 399 -231 425 -231 q 353 -212 372 -231 q 334 -165 334 -192 q 353 -119 334 -138 q 399 -100 372 -100 q 445 -119 425 -100 q 465 -165 465 -138 q 445 -212 465 -192 m 226 138 q 259 102 226 138 q 397 67 292 67 q 569 138 503 67 q 635 326 635 208 q 569 514 635 444 q 397 583 503 583 q 226 514 292 583 q 160 326 160 444 q 226 138 160 208 m 636 77 q 588 30 636 77 q 396 -16 539 -16 q 158 75 253 -16 q 63 323 63 165 q 160 574 63 481 q 400 667 256 667 q 638 576 543 667 q 734 328 734 486 q 636 77 734 170 z "},"Ụ":{"ha":900,"x_min":115,"x_max":787,"o":"m 497 -212 q 487 -221 497 -212 q 451 -231 477 -231 q 405 -212 425 -231 q 385 -165 385 -192 q 405 -119 385 -138 q 451 -100 425 -100 q 497 -119 477 -100 q 516 -165 516 -138 q 497 -212 516 -192 m 699 71 q 654 27 699 71 q 450 -18 610 -18 q 202 70 290 -18 q 115 319 115 158 l 115 835 l 208 835 l 208 332 q 271 133 208 201 q 451 64 334 64 q 631 133 568 64 q 694 332 694 202 l 694 835 l 787 835 l 787 319 q 699 71 787 159 z "},"ụ":{"ha":758,"x_min":98,"x_max":652,"o":"m 334 -119 q 344 -109 334 -119 q 380 -100 353 -100 q 426 -119 407 -100 q 446 -165 446 -138 q 426 -212 446 -192 q 380 -231 407 -231 q 334 -212 353 -231 q 315 -165 315 -192 q 334 -119 315 -138 m 555 652 l 652 652 l 652 0 l 573 0 l 563 88 q 342 -15 494 -16 q 162 51 227 -15 q 98 249 98 117 l 98 652 l 195 652 l 195 265 q 368 67 195 67 q 483 101 431 67 q 555 199 534 135 l 555 652 z "},"Ỳ":{"ha":743,"x_min":19,"x_max":724,"o":"m 326 0 l 326 349 l 19 831 l 20 835 l 120 835 l 375 435 l 627 835 l 722 835 l 724 831 l 419 347 l 419 0 l 326 0 m 479 885 l 227 992 l 221 1006 l 271 1081 l 498 939 l 479 885 z "},"ỳ":{"ha":665,"x_min":24,"x_max":644,"o":"m 138 -214 q 64 -205 113 -214 l 64 -125 l 68 -123 q 121 -132 96 -131 q 227 -98 190 -132 q 300 24 264 -65 l 24 648 l 25 652 l 127 652 l 347 132 l 547 652 l 643 652 l 644 648 l 381 3 q 284 -165 334 -117 q 138 -214 233 -214 m 419 711 l 197 859 l 195 873 l 260 941 l 453 760 l 419 711 z "},"Ỹ":{"ha":743,"x_min":19,"x_max":724,"o":"m 326 0 l 326 349 l 19 831 l 20 835 l 120 835 l 375 435 l 627 835 l 722 835 l 724 831 l 419 347 l 419 0 l 326 0 m 207 1005 q 223 1022 207 1005 q 280 1039 239 1039 q 377 1016 322 1039 q 455 992 432 992 q 493 1007 477 992 q 509 1046 509 1021 l 511 1049 l 576 1029 q 542 944 573 976 q 471 911 510 911 q 376 936 432 911 q 295 960 319 960 q 254 944 270 960 q 239 904 239 929 l 236 903 l 172 920 q 207 1005 174 972 z "},"ỹ":{"ha":665,"x_min":24,"x_max":644,"o":"m 138 -214 q 64 -205 113 -214 l 64 -125 l 68 -123 q 121 -132 96 -131 q 228 -98 190 -132 q 300 24 265 -64 l 24 648 l 25 652 l 127 652 l 347 132 l 547 652 l 643 652 l 644 648 l 381 3 q 284 -165 334 -117 q 138 -214 233 -214 m 168 859 q 183 876 168 859 q 240 894 198 894 q 343 869 283 894 q 429 845 404 845 q 469 859 454 845 q 484 898 484 873 l 488 900 l 549 886 q 518 799 549 831 q 445 766 486 766 q 343 791 403 765 q 257 817 283 817 q 218 803 232 817 q 203 763 203 788 l 201 760 l 138 774 q 168 859 138 824 z "},"–":{"ha":652,"x_min":92,"x_max":559,"o":"m 92 313 l 92 391 l 559 391 l 559 313 l 92 313 z "},"—":{"ha":1084,"x_min":92,"x_max":994,"o":"m 92 313 l 92 391 l 994 391 l 994 313 l 92 313 z "},"‘":{"ha":256,"x_min":85,"x_max":197,"o":"m 197 875 q 183 614 173 715 l 97 599 l 85 614 q 138 875 86 730 l 197 875 z "},"’":{"ha":239,"x_min":64,"x_max":177,"o":"m 64 600 q 78 861 88 760 l 164 876 l 177 861 q 123 600 176 745 l 64 600 z "},"‚":{"ha":248,"x_min":50,"x_max":163,"o":"m 50 -183 q 64 78 74 -20 l 151 94 l 163 78 q 110 -183 161 -38 l 50 -183 z "},"“":{"ha":435,"x_min":85,"x_max":375,"o":"m 375 875 q 361 614 352 719 l 275 599 l 262 614 q 315 875 264 730 l 375 875 m 197 875 q 183 614 173 715 l 97 599 l 85 614 q 138 875 86 730 l 197 875 z "},"”":{"ha":430,"x_min":64,"x_max":355,"o":"m 242 600 q 256 861 267 762 l 342 876 l 355 861 q 302 600 353 745 l 242 600 m 64 600 q 78 861 88 760 l 164 876 l 177 861 q 123 600 176 745 l 64 600 z "},"„":{"ha":424,"x_min":50,"x_max":341,"o":"m 229 -183 q 242 78 252 -23 l 328 94 l 341 78 q 288 -183 340 -38 l 229 -183 m 50 -183 q 64 78 74 -20 l 151 94 l 163 78 q 110 -183 161 -38 l 50 -183 z "},"†":{"ha":651,"x_min":76,"x_max":574,"o":"m 356 640 l 574 654 l 574 566 l 369 577 l 357 -72 l 293 -72 l 280 577 l 76 566 l 76 654 l 293 640 l 280 869 l 370 869 l 356 640 z "},"‡":{"ha":651,"x_min":76,"x_max":574,"o":"m 280 -69 l 293 154 l 76 142 l 76 231 l 283 218 l 294 400 l 281 581 l 77 570 l 77 659 l 293 645 l 280 869 l 370 869 l 356 646 l 574 659 l 574 570 l 369 581 l 359 400 l 369 220 l 574 231 l 574 142 l 357 155 l 370 -69 l 280 -69 z "},"•":{"ha":475,"x_min":113,"x_max":362,"o":"m 326 255 q 307 237 326 255 q 237 218 289 218 q 149 255 186 218 q 113 343 113 292 q 149 431 113 395 q 237 469 186 468 q 326 432 289 469 q 362 343 362 395 q 326 255 362 292 z "},"…":{"ha":715,"x_min":72,"x_max":661,"o":"m 643 12 q 634 3 643 12 q 595 -6 625 -6 q 547 12 564 -6 q 530 56 530 29 q 548 100 530 82 q 595 119 566 119 q 643 100 625 119 q 661 56 661 82 q 643 12 661 29 m 414 12 q 406 3 414 12 q 366 -6 397 -6 q 319 12 336 -6 q 302 56 302 29 q 319 100 302 82 q 367 119 337 119 q 414 100 397 119 q 432 56 432 82 q 414 12 432 29 m 184 12 q 176 3 184 12 q 136 -6 167 -6 q 89 12 106 -6 q 72 56 72 29 q 90 100 72 82 q 137 119 107 119 q 184 100 167 119 q 202 56 202 82 q 184 12 202 29 z "},"‰":{"ha":1371,"x_min":52,"x_max":1329,"o":"m 1127 60 q 1217 95 1183 60 q 1250 195 1250 130 q 1217 297 1250 260 q 1127 334 1183 334 q 1038 298 1070 334 q 1005 195 1005 260 q 1038 95 1005 130 q 1127 60 1070 60 m 688 60 q 778 95 745 60 q 810 196 810 130 q 778 298 810 262 q 688 334 745 335 q 599 298 631 334 q 566 195 566 260 q 598 95 566 130 q 688 60 631 60 m 1126 -6 q 980 46 1036 -6 q 924 195 924 98 q 981 347 924 293 q 1128 401 1037 401 q 1274 347 1219 401 q 1329 196 1329 293 q 1273 46 1329 99 q 1126 -6 1217 -7 m 835 347 q 863 320 835 347 q 890 196 890 293 q 835 46 890 99 q 689 -6 779 -7 q 543 46 599 -6 q 486 195 486 99 q 543 347 486 292 q 689 401 599 401 q 835 347 779 401 m 132 634 q 164 533 132 568 q 253 498 197 498 q 343 534 309 498 q 377 635 377 570 q 343 736 377 700 q 253 772 309 772 q 164 736 197 772 q 132 634 132 699 m 146 14 l 709 823 l 793 823 l 229 14 l 146 14 m 401 785 q 429 758 401 785 q 457 634 457 731 q 401 484 457 537 q 254 432 345 431 q 107 484 163 432 q 52 633 52 536 q 107 785 52 731 q 254 840 163 840 q 401 785 345 840 z "},"‹":{"ha":422,"x_min":45,"x_max":353,"o":"m 353 578 l 353 568 l 153 351 l 353 126 l 353 119 l 255 119 l 45 350 l 256 578 l 353 578 z "},"›":{"ha":422,"x_min":71,"x_max":379,"o":"m 71 116 l 71 126 l 271 343 l 71 568 l 71 576 l 169 576 l 379 345 l 168 116 l 71 116 z "},"⁄":{"ha":142,"x_min":-227,"x_max":394,"o":"m -227 -15 l 315 835 l 394 835 l -149 -15 l -227 -15 z "},"₨":{"ha":554,"x_min":58,"x_max":548,"o":"m 501 0 l 389 0 l 79 332 l 79 409 l 140 409 q 284 444 227 409 q 353 548 341 479 l 58 548 l 78 630 l 352 630 q 157 753 327 753 l 58 753 l 78 835 l 538 835 l 517 753 l 369 753 q 448 630 436 710 l 548 630 l 528 548 l 447 548 q 361 398 433 452 q 197 334 289 343 l 501 5 l 501 0 z "},"€":{"ha":875,"x_min":45,"x_max":797,"o":"m 585 -4 q 326 76 434 -4 q 180 294 217 156 l 45 294 l 57 365 l 168 365 q 165 427 165 400 q 169 488 165 454 l 79 488 l 92 558 l 184 558 q 332 772 224 693 q 572 850 439 850 q 795 817 705 850 l 779 736 l 775 735 q 587 766 699 766 q 395 711 476 766 q 281 558 315 656 l 621 558 l 608 488 l 265 488 q 261 426 261 457 q 265 365 261 395 l 585 365 l 573 294 l 279 294 q 391 135 311 192 q 583 79 472 79 q 793 123 694 79 l 797 120 l 781 37 q 585 -4 694 -4 z "},"₽":{"ha":696,"x_min":31,"x_max":659,"o":"m 236 422 l 341 422 q 564 596 565 422 q 514 718 564 672 q 372 764 463 764 q 236 762 281 764 l 236 422 m 351 341 l 236 341 l 236 229 l 406 229 l 406 148 l 236 148 l 236 0 l 142 0 l 142 148 l 31 148 l 31 229 l 142 229 l 142 341 l 31 341 l 31 422 l 142 422 l 142 838 q 353 846 251 846 q 581 782 505 846 q 659 597 658 718 q 579 409 661 476 q 351 341 498 341 z "},"™":{"ha":1023,"x_min":50,"x_max":933,"o":"m 894 827 l 933 435 l 863 435 l 835 696 l 833 696 l 711 437 l 669 437 l 545 701 l 544 701 l 516 435 l 444 435 l 486 827 l 558 827 l 693 542 l 823 827 l 894 827 m 50 755 l 50 827 l 406 827 l 406 755 l 267 755 l 267 435 l 192 435 l 192 755 l 50 755 z "},"⅛":{"ha":885,"x_min":31,"x_max":838,"o":"m 661 45 q 738 66 709 45 q 765 118 765 85 q 738 172 765 151 q 649 216 711 194 l 627 224 q 551 126 550 190 q 581 66 551 87 q 661 45 612 46 m 727 397 q 659 416 700 416 q 595 399 618 416 q 572 353 572 381 q 598 306 572 326 q 683 269 625 286 q 753 349 752 303 q 727 397 753 378 m 790 26 q 766 8 790 26 q 659 -10 742 -10 q 527 23 576 -10 q 479 117 478 56 q 574 246 479 199 q 496 349 496 288 q 543 442 496 410 q 659 475 589 475 q 776 444 728 475 q 823 351 823 414 q 739 245 823 289 q 816 191 793 220 q 838 123 839 163 q 790 26 838 63 m 605 835 l 683 835 l 140 -15 l 62 -15 l 605 835 m 139 379 l 139 743 l 31 699 l 31 781 l 207 848 l 217 848 l 217 379 l 139 379 z "},"⅜":{"ha":1016,"x_min":50,"x_max":970,"o":"m 682 126 q 712 66 682 87 q 792 45 743 46 q 869 66 841 45 q 897 118 897 85 q 869 172 897 151 q 781 216 842 194 l 759 224 q 682 126 682 190 m 884 349 q 857 397 883 378 q 791 416 831 416 q 726 399 750 416 q 703 353 703 381 q 730 306 703 326 q 814 269 756 286 q 884 349 884 303 m 970 123 q 922 26 970 63 q 790 -10 873 -10 q 658 23 707 -10 q 610 117 609 56 q 706 246 610 199 q 628 349 628 288 q 673 442 628 410 q 789 475 719 475 q 907 444 860 475 q 955 351 955 414 q 870 245 955 289 q 947 191 924 220 q 970 123 970 163 m 736 835 l 814 835 l 271 -15 l 193 -15 l 736 835 m 379 515 q 329 408 379 448 q 193 369 278 369 q 50 404 107 369 l 50 467 l 50 469 q 189 431 103 431 q 274 453 241 431 q 307 515 307 476 q 280 575 307 555 q 211 595 254 595 l 139 595 l 139 649 l 203 649 q 263 667 240 649 q 287 718 286 686 q 184 788 287 788 q 64 758 109 788 l 63 758 l 63 822 q 194 851 119 851 q 315 821 269 851 q 361 728 361 791 q 297 627 361 665 q 379 515 379 597 z "},"⅝":{"ha":1021,"x_min":47,"x_max":975,"o":"m 798 45 q 873 66 846 45 q 901 118 901 85 q 874 172 901 151 q 785 216 847 194 l 764 224 q 687 126 686 190 q 718 66 687 87 q 798 45 749 46 m 863 397 q 850 407 863 397 q 796 416 837 416 q 732 399 755 416 q 708 353 708 381 q 733 307 708 326 q 819 269 758 289 q 889 349 888 303 q 863 397 888 378 m 926 26 q 903 8 926 26 q 795 -10 879 -10 q 663 23 712 -10 q 615 117 614 56 q 711 246 615 199 q 633 349 633 288 q 679 442 633 410 q 795 475 725 475 q 912 444 865 475 q 960 351 960 414 q 875 245 960 289 q 952 191 929 220 q 975 123 975 163 q 926 26 974 63 m 741 835 l 819 835 l 277 -15 l 198 -15 l 741 835 m 335 627 q 357 609 335 627 q 380 518 380 591 q 326 407 380 446 q 194 369 273 369 q 47 395 115 369 l 47 462 l 48 462 q 177 430 114 430 q 300 524 300 431 q 272 583 300 560 q 182 606 243 606 q 57 591 121 606 l 56 593 l 73 842 l 357 842 l 357 779 l 134 779 l 123 655 q 210 664 165 664 q 335 627 290 664 z "},"⅞":{"ha":957,"x_min":33,"x_max":910,"o":"m 732 45 q 810 66 781 45 q 837 118 837 85 q 810 172 837 151 q 721 216 783 194 l 699 224 q 623 126 622 190 q 653 66 623 87 q 732 45 684 46 m 799 397 q 731 416 772 416 q 667 399 690 416 q 644 353 644 381 q 669 307 644 326 q 755 269 693 289 q 825 349 824 303 q 799 397 825 378 m 731 -10 q 599 23 648 -10 q 551 117 550 56 q 646 246 551 199 q 568 349 568 288 q 614 442 568 410 q 730 475 661 475 q 848 444 800 475 q 895 351 895 414 q 810 245 895 289 q 888 191 865 220 q 910 123 911 163 q 863 26 910 63 q 731 -10 815 -10 m 677 835 l 755 835 l 212 -15 l 134 -15 l 677 835 m 33 769 l 33 841 l 375 841 l 375 803 l 183 379 l 106 379 l 104 380 l 288 769 l 33 769 z "},"←":{"ha":742,"x_min":19,"x_max":722,"o":"m 722 361 l 179 361 l 372 170 l 312 110 l 19 404 l 312 699 l 372 639 l 183 448 l 721 448 l 722 361 z "},"↑":{"ha":742,"x_min":77,"x_max":665,"o":"m 327 28 l 327 635 l 138 447 l 77 507 l 372 800 l 665 507 l 605 446 l 416 636 l 416 28 l 327 28 z "},"→":{"ha":742,"x_min":20,"x_max":724,"o":"m 431 699 l 724 404 l 431 110 l 370 170 l 563 361 l 20 361 l 22 448 l 559 448 l 370 639 l 431 699 z "},"↓":{"ha":742,"x_min":77,"x_max":665,"o":"m 327 800 l 416 800 l 416 191 l 605 381 l 665 321 l 372 28 l 77 319 l 138 380 l 327 192 l 327 800 z "},"↖":{"ha":742,"x_min":78,"x_max":699,"o":"m 495 631 l 227 631 l 699 160 l 636 98 l 163 568 l 164 300 l 78 300 l 79 715 l 495 718 l 495 631 z "},"↗":{"ha":742,"x_min":50,"x_max":669,"o":"m 252 626 l 252 712 l 668 709 l 669 296 l 583 296 l 585 563 l 111 94 l 50 155 l 520 626 l 252 626 z "},"↘":{"ha":742,"x_min":50,"x_max":669,"o":"m 252 184 l 520 184 l 50 655 l 111 718 l 585 248 l 583 515 l 669 515 l 668 101 l 252 98 l 252 184 z "},"↙":{"ha":742,"x_min":78,"x_max":699,"o":"m 495 183 l 495 97 l 79 100 l 78 514 l 164 514 l 163 246 l 636 716 l 699 654 l 227 183 l 495 183 z "},"−":{"ha":690,"x_min":95,"x_max":596,"o":"m 95 332 l 95 408 l 596 408 l 596 332 l 95 332 z "},"≈":{"ha":652,"x_min":94,"x_max":561,"o":"m 127 273 q 143 291 127 273 q 212 308 160 308 q 333 282 264 308 q 437 256 401 256 q 498 312 496 256 l 501 315 l 561 304 q 528 216 560 250 q 446 182 495 182 q 328 207 397 182 q 224 233 259 232 q 159 177 162 233 l 158 174 l 94 182 q 127 273 94 239 m 127 514 q 143 531 127 514 q 212 548 160 548 q 333 523 264 548 q 437 498 401 498 q 498 553 496 498 l 501 555 l 561 544 q 528 456 560 488 q 446 423 495 423 q 328 448 397 423 q 224 473 259 473 q 159 416 162 473 l 158 416 l 94 425 q 127 514 94 480 z "},"≠":{"ha":705,"x_min":95,"x_max":611,"o":"m 611 462 l 457 462 l 365 267 l 611 267 l 611 193 l 331 193 l 252 25 l 164 25 l 243 193 l 95 193 l 95 267 l 278 267 l 370 462 l 95 462 l 95 535 l 406 535 l 479 694 l 567 694 l 492 535 l 611 535 l 611 462 z "},"":{"ha":1832,"x_min":126,"x_max":1706,"o":"m 1380 19 l 1389 19 q 1394 23 1394 19 q 1389 26 1394 27 l 1380 26 l 1380 19 m 1374 3 l 1374 32 l 1388 32 q 1400 23 1400 32 q 1392 14 1400 14 l 1399 3 l 1392 3 l 1386 14 l 1380 14 l 1380 3 l 1374 3 m 1386 -6 q 1409 16 1409 -7 q 1386 39 1409 39 q 1364 16 1363 39 q 1386 -6 1363 -6 m 1417 16 q 1386 -13 1417 -13 q 1356 16 1356 -13 q 1386 45 1356 45 q 1417 16 1416 45 m 892 138 q 866 167 892 167 q 840 127 840 167 q 846 91 840 110 q 879 106 865 91 q 892 138 892 121 m 1184 138 l 1235 138 q 1213 172 1239 172 q 1184 138 1184 172 m 1225 -6 q 1046 148 1046 -6 q 1088 264 1046 222 q 1202 307 1130 307 q 1312 269 1274 307 q 1351 160 1351 231 q 1348 116 1351 134 l 1191 116 q 1251 94 1204 94 q 1323 109 1297 94 l 1323 14 q 1225 -6 1294 -6 m 705 -56 q 718 300 705 123 l 816 300 q 825 205 825 248 q 926 307 846 307 q 1000 270 972 307 q 1027 164 1027 233 q 854 -6 1027 -6 q 854 -56 855 -25 l 705 -56 m 684 129 q 642 -20 684 23 q 507 -63 600 -63 q 381 -41 415 -63 l 381 63 q 465 43 411 43 q 534 65 519 43 q 538 78 538 72 q 476 64 517 64 q 362 169 362 64 l 362 186 l 293 186 l 297 104 q 318 99 304 99 q 338 105 332 99 l 338 13 q 255 -6 315 -6 q 172 15 195 -7 q 151 85 149 37 q 154 186 151 133 l 132 186 l 132 287 l 279 323 l 278 300 l 501 300 l 501 151 q 505 123 501 130 q 520 116 509 117 q 541 151 541 116 l 541 300 l 671 300 q 684 129 684 235 m 1550 507 q 1524 471 1524 506 q 1552 435 1524 435 q 1579 471 1579 435 q 1550 507 1579 506 m 462 507 q 434 471 434 506 q 463 435 434 435 q 492 471 492 435 q 462 507 492 506 m 1553 649 q 1706 492 1706 649 q 1551 334 1706 334 q 1396 492 1396 334 q 1553 649 1396 649 m 1053 341 q 1065 643 1053 562 l 1166 643 q 1174 547 1174 587 q 1183 585 1177 566 q 1213 627 1188 604 q 1282 649 1237 650 q 1349 617 1328 649 q 1373 515 1370 585 l 1376 341 l 1232 341 l 1235 458 q 1216 495 1235 495 q 1193 458 1193 495 l 1197 341 l 1053 341 m 467 649 q 624 501 624 649 l 624 341 l 519 341 l 509 418 q 414 334 494 334 q 298 479 298 334 q 467 649 298 649 m 636 526 l 636 626 l 787 664 l 788 643 l 1013 643 q 1025 341 1025 562 l 876 341 q 880 526 876 457 l 803 526 l 807 444 q 827 439 812 439 q 848 446 842 439 l 848 352 q 763 334 831 334 q 659 416 659 334 l 664 526 l 636 526 m 126 341 q 138 737 126 510 l 264 737 q 277 341 277 485 l 126 341 m 1005 681 q 994 670 1005 681 q 949 659 982 659 q 895 682 917 659 q 872 736 872 705 q 895 791 872 768 q 949 814 917 814 q 1005 791 982 814 q 1028 736 1028 768 q 1005 681 1028 703 z "},"ﬁ":{"ha":692,"x_min":44,"x_max":601,"o":"m 491 0 l 491 652 l 585 652 l 585 0 l 491 0 m 135 677 q 194 844 135 785 q 345 901 253 902 q 425 888 394 901 l 425 806 l 422 804 q 350 817 400 817 q 265 781 300 817 q 230 677 230 746 l 230 653 l 388 653 l 388 576 l 230 576 l 230 0 l 135 0 l 135 576 l 44 576 l 44 653 l 135 653 l 135 677 m 582 801 q 572 792 582 801 q 538 783 563 783 q 494 801 513 783 q 475 845 475 819 q 494 890 475 871 q 538 908 513 909 q 582 890 563 908 q 601 845 601 871 q 582 801 601 819 z "},"ﬂ":{"ha":690,"x_min":44,"x_max":583,"o":"m 489 897 l 583 897 l 583 0 l 489 0 l 489 897 m 135 677 q 194 844 135 785 q 345 901 253 902 q 425 888 397 901 l 425 804 l 422 803 q 349 817 398 817 q 265 781 300 817 q 230 677 230 746 l 230 652 l 388 652 l 388 576 l 230 576 l 230 0 l 135 0 l 135 576 l 44 576 l 44 652 l 135 652 l 135 677 z "}}}
